Grandstander-Black.ufo
<glyph name="numbersign" format="2">
  <advance width="1511"/>
  <unicode hex="0023"/>
  <outline>
    <contour>
      <point x="101" y="790" type="curve"/>
      <point x="324" y="796"/>
      <point x="663" y="808"/>
      <point x="996" y="821" type="curve" smooth="yes"/>
      <point x="1200" y="829"/>
      <point x="1407" y="840"/>
      <point x="1573" y="850" type="curve"/>
      <point x="1595" y="896"/>
      <point x="1671" y="1130"/>
      <point x="1684" y="1176" type="curve"/>
      <point x="1480" y="1171"/>
      <point x="1197" y="1158"/>
      <point x="904" y="1142" type="curve" smooth="yes"/>
      <point x="661" y="1129"/>
      <point x="353" y="1112"/>
      <point x="198" y="1103" type="curve"/>
      <point x="190" y="1081"/>
      <point x="121" y="864"/>
    </contour>
    <contour>
      <point x="1338" y="345" type="curve"/>
      <point x="1360" y="391"/>
      <point x="1454" y="622"/>
      <point x="1467" y="668" type="curve"/>
      <point x="1291" y="683"/>
      <point x="1101" y="689"/>
      <point x="912" y="689" type="curve" smooth="yes"/>
      <point x="774" y="689"/>
      <point x="638" y="687"/>
      <point x="504" y="682" type="curve" smooth="yes"/>
      <point x="348" y="676"/>
      <point x="198" y="669"/>
      <point x="62" y="662" type="curve"/>
      <point x="49" y="632"/>
      <point x="-25" y="419"/>
      <point x="-36" y="378" type="curve"/>
      <point x="69" y="386"/>
      <point x="189" y="389"/>
      <point x="317" y="389" type="curve" smooth="yes"/>
      <point x="446" y="389"/>
      <point x="584" y="386"/>
      <point x="721" y="380" type="curve" smooth="yes"/>
      <point x="934" y="371"/>
      <point x="1149" y="358"/>
    </contour>
    <contour>
      <point x="152" y="21" type="curve"/>
      <point x="214" y="21"/>
      <point x="470" y="39"/>
      <point x="518" y="48" type="curve"/>
      <point x="644" y="515"/>
      <point x="861" y="1175"/>
      <point x="965" y="1475" type="curve"/>
      <point x="846" y="1475"/>
      <point x="663" y="1472"/>
      <point x="627" y="1465" type="curve"/>
      <point x="501" y="1150"/>
      <point x="326" y="668"/>
    </contour>
    <contour>
      <point x="720" y="51" type="curve"/>
      <point x="766" y="51"/>
      <point x="1041" y="91"/>
      <point x="1091" y="101" type="curve"/>
      <point x="1139" y="421"/>
      <point x="1219" y="801"/>
      <point x="1308" y="1132" type="curve" smooth="yes"/>
      <point x="1342" y="1258"/>
      <point x="1376" y="1376"/>
      <point x="1412" y="1482" type="curve"/>
      <point x="1371" y="1482"/>
      <point x="1136" y="1467"/>
      <point x="1105" y="1462" type="curve"/>
      <point x="1023" y="1228"/>
      <point x="949" y="985"/>
      <point x="883" y="740" type="curve" smooth="yes"/>
      <point x="821" y="510"/>
      <point x="767" y="278"/>
    </contour>
  </outline>
</glyph>
<glyph name="dollar" format="2">
  <advance width="1027"/>
  <unicode hex="0024"/>
  <anchor x="387" y="57" name="bottom"/>
  <anchor x="691" y="1251" name="top"/>
  <outline>
    <contour>
      <point x="522" y="-82" type="line"/>
      <point x="541" y="-10"/>
      <point x="572" y="118"/>
      <point x="582" y="162" type="curve"/>
      <point x="252" y="181" type="line"/>
      <point x="236" y="147"/>
      <point x="162" y="-60"/>
      <point x="153" y="-91" type="curve"/>
    </contour>
    <contour>
      <point x="539" y="1198" type="curve"/>
      <point x="840" y="1200" type="line"/>
      <point x="856" y="1259"/>
      <point x="888" y="1380"/>
      <point x="898" y="1422" type="curve"/>
      <point x="607" y="1409" type="line"/>
      <point x="594" y="1374"/>
      <point x="553" y="1243"/>
    </contour>
    <component base="s" xOffset="50" yOffset="127"/>
  </outline>
</glyph>
<glyph name="percent" format="2">
  <advance width="1385"/>
  <unicode hex="0025"/>
  <outline>
    <contour>
      <point x="53" y="-48" type="curve"/>
      <point x="427" y="241"/>
      <point x="1056" y="764"/>
      <point x="1519" y="1255" type="curve"/>
      <point x="1495" y="1313"/>
      <point x="1433" y="1411"/>
      <point x="1358" y="1450" type="curve"/>
      <point x="962" y="1018"/>
      <point x="267" y="397"/>
      <point x="-119" y="108" type="curve"/>
      <point x="-85" y="68"/>
      <point x="16" y="-18"/>
    </contour>
    <contour>
      <point x="1001" y="302" type="curve" smooth="yes"/>
      <point x="961" y="302"/>
      <point x="940" y="323"/>
      <point x="940" y="358" type="curve" smooth="yes"/>
      <point x="940" y="422"/>
      <point x="992" y="461"/>
      <point x="1056" y="461" type="curve" smooth="yes"/>
      <point x="1088" y="461"/>
      <point x="1117" y="447"/>
      <point x="1117" y="409" type="curve" smooth="yes"/>
      <point x="1117" y="351"/>
      <point x="1056" y="302"/>
    </contour>
    <contour>
      <point x="947" y="85" type="curve" smooth="yes"/>
      <point x="1187" y="85"/>
      <point x="1331" y="215"/>
      <point x="1331" y="448" type="curve" smooth="yes"/>
      <point x="1331" y="586"/>
      <point x="1250" y="663"/>
      <point x="1100" y="663" type="curve" smooth="yes"/>
      <point x="890" y="663"/>
      <point x="704" y="495"/>
      <point x="704" y="294" type="curve" smooth="yes"/>
      <point x="704" y="155"/>
      <point x="820" y="85"/>
    </contour>
    <contour>
      <point x="423" y="726" type="curve" smooth="yes"/>
      <point x="629" y="726"/>
      <point x="816" y="924"/>
      <point x="816" y="1127" type="curve" smooth="yes"/>
      <point x="816" y="1270"/>
      <point x="695" y="1352"/>
      <point x="537" y="1352" type="curve" smooth="yes"/>
      <point x="338" y="1352"/>
      <point x="149" y="1175"/>
      <point x="149" y="972" type="curve" smooth="yes"/>
      <point x="149" y="819"/>
      <point x="243" y="726"/>
    </contour>
    <contour>
      <point x="466" y="971" type="curve" smooth="yes"/>
      <point x="434" y="971"/>
      <point x="398" y="985"/>
      <point x="398" y="1023" type="curve" smooth="yes"/>
      <point x="398" y="1082"/>
      <point x="447" y="1138"/>
      <point x="515" y="1138" type="curve" smooth="yes"/>
      <point x="562" y="1138"/>
      <point x="581" y="1115"/>
      <point x="581" y="1082" type="curve" smooth="yes"/>
      <point x="581" y="1017"/>
      <point x="540" y="971"/>
    </contour>
  </outline>
</glyph>
<glyph name="ampersand" format="2">
  <advance width="1395"/>
  <unicode hex="0026"/>
  <outline>
    <contour>
      <point x="443" y="-100" type="curve" smooth="yes"/>
      <point x="684" y="-100"/>
      <point x="852" y="-4"/>
      <point x="945" y="102" type="curve"/>
      <point x="969" y="53"/>
      <point x="1015" y="-22"/>
      <point x="1049" y="-67" type="curve"/>
      <point x="1138" y="-21"/>
      <point x="1238" y="74"/>
      <point x="1303" y="153" type="curve"/>
      <point x="1268" y="207"/>
      <point x="1234" y="259"/>
      <point x="1189" y="314" type="curve"/>
      <point x="1238" y="353"/>
      <point x="1338" y="438"/>
      <point x="1360" y="487" type="curve"/>
      <point x="1320" y="547"/>
      <point x="1213" y="627"/>
      <point x="1158" y="656" type="curve"/>
      <point x="1137" y="617"/>
      <point x="1080" y="548"/>
      <point x="1044" y="522" type="curve"/>
      <point x="978" y="615"/>
      <point x="893" y="732"/>
      <point x="850" y="784" type="curve"/>
      <point x="1017" y="853"/>
      <point x="1141" y="981"/>
      <point x="1141" y="1155" type="curve" smooth="yes"/>
      <point x="1141" y="1323"/>
      <point x="996" y="1417"/>
      <point x="819" y="1417" type="curve" smooth="yes"/>
      <point x="587" y="1417"/>
      <point x="383" y="1309"/>
      <point x="383" y="1092" type="curve" smooth="yes"/>
      <point x="383" y="1010"/>
      <point x="427" y="920"/>
      <point x="485" y="849" type="curve"/>
      <point x="240" y="749"/>
      <point x="3" y="565"/>
      <point x="3" y="290" type="curve" smooth="yes"/>
      <point x="3" y="70"/>
      <point x="157" y="-100"/>
    </contour>
    <contour>
      <point x="499" y="186" type="curve" smooth="yes"/>
      <point x="401" y="186"/>
      <point x="361" y="244"/>
      <point x="361" y="325" type="curve" smooth="yes"/>
      <point x="361" y="473"/>
      <point x="490" y="562"/>
      <point x="622" y="644" type="curve"/>
      <point x="683" y="538"/>
      <point x="745" y="432"/>
      <point x="802" y="342" type="curve"/>
      <point x="734" y="271"/>
      <point x="641" y="186"/>
    </contour>
    <contour>
      <point x="718" y="969" type="curve"/>
      <point x="704" y="989"/>
      <point x="689" y="1039"/>
      <point x="689" y="1083" type="curve" smooth="yes"/>
      <point x="689" y="1147"/>
      <point x="723" y="1185"/>
      <point x="783" y="1185" type="curve" smooth="yes"/>
      <point x="816" y="1185"/>
      <point x="841" y="1170"/>
      <point x="841" y="1138" type="curve" smooth="yes"/>
      <point x="841" y="1074"/>
      <point x="768" y="998"/>
    </contour>
  </outline>
</glyph>
<glyph name="parenright" format="2">
  <advance width="651"/>
  <unicode hex="0029"/>
  <outline>
    <contour>
      <point x="333" y="1223"/>
      <point x="333" y="1073" type="curve" smooth="yes"/>
      <point x="333" y="630"/>
      <point x="96" y="-37"/>
      <point x="-209" y="-331" type="curve"/>
      <point x="-172" y="-384"/>
      <point x="8" y="-491"/>
      <point x="81" y="-518" type="curve"/>
      <point x="437" y="-201"/>
      <point x="728" y="554"/>
      <point x="728" y="1064" type="curve" smooth="yes"/>
      <point x="728" y="1273"/>
      <point x="693" y="1469"/>
      <point x="621" y="1595" type="curve"/>
      <point x="501" y="1571"/>
      <point x="376" y="1526"/>
      <point x="260" y="1470" type="curve"/>
      <point x="311" y="1365"/>
    </contour>
  </outline>
</glyph>
<glyph name="comma" format="2">
  <advance width="667"/>
  <unicode hex="002C"/>
  <outline>
    <contour>
      <point x="199" y="-346" type="curve"/>
      <point x="373" y="-248"/>
      <point x="492" y="-32"/>
      <point x="492" y="148" type="curve" smooth="yes"/>
      <point x="492" y="307"/>
      <point x="382" y="374"/>
      <point x="269" y="374" type="curve" smooth="yes"/>
      <point x="97" y="374"/>
      <point x="-46" y="285"/>
      <point x="-46" y="113" type="curve" smooth="yes"/>
      <point x="-46" y="32"/>
      <point x="-7" y="-38"/>
      <point x="73" y="-38" type="curve" smooth="yes"/>
      <point x="121" y="-38"/>
      <point x="154" y="-30"/>
      <point x="175" y="-17" type="curve"/>
      <point x="175" y="-20"/>
      <point x="174" y="-25"/>
      <point x="173" y="-28" type="curve" smooth="yes"/>
      <point x="163" y="-59"/>
      <point x="56" y="-133"/>
      <point x="3" y="-150" type="curve"/>
      <point x="32" y="-256"/>
      <point x="172" y="-336"/>
    </contour>
  </outline>
</glyph>
<glyph name="hyphen" format="2">
  <advance width="933"/>
  <unicode hex="002D"/>
  <outline>
    <contour>
      <point x="973" y="844" type="curve"/>
      <point x="870" y="858"/>
      <point x="746" y="863"/>
      <point x="588" y="863" type="curve" smooth="yes"/>
      <point x="459" y="863"/>
      <point x="276" y="851"/>
      <point x="125" y="833" type="curve"/>
      <point x="101" y="785"/>
      <point x="26" y="572"/>
      <point x="2" y="479" type="curve"/>
      <point x="207" y="491"/>
      <point x="814" y="509"/>
      <point x="903" y="509" type="curve"/>
      <point x="927" y="601"/>
      <point x="963" y="740"/>
    </contour>
  </outline>
</glyph>
<glyph name="slash" format="2">
  <advance width="969"/>
  <unicode hex="002F"/>
  <outline>
    <contour>
      <point x="1137" y="1513"/>
      <point x="979" y="1547" type="curve"/>
      <point x="747" y="1193"/>
      <point x="172" y="359"/>
      <point x="-176" y="-32" type="curve"/>
      <point x="-129" y="-96"/>
      <point x="-35" y="-166"/>
      <point x="69" y="-191" type="curve"/>
      <point x="410" y="154"/>
      <point x="864" y="750"/>
      <point x="1234" y="1420" type="curve"/>
      <point x="1203" y="1473"/>
    </contour>
  </outline>
</glyph>
<glyph name="one" format="2">
  <advance width="809"/>
  <unicode hex="0031"/>
  <outline>
    <contour>
      <point x="503" y="318" type="curve"/>
      <point x="557" y="465"/>
      <point x="611" y="629"/>
      <point x="647" y="766" type="curve" smooth="yes"/>
      <point x="725" y="1061"/>
      <point x="764" y="1239"/>
      <point x="772" y="1294" type="curve"/>
      <point x="712" y="1305"/>
      <point x="572" y="1311"/>
      <point x="507" y="1311" type="curve"/>
      <point x="391" y="1232"/>
      <point x="201" y="1080"/>
      <point x="147" y="1036" type="curve"/>
      <point x="168" y="947"/>
      <point x="212" y="831"/>
      <point x="246" y="776" type="curve"/>
      <point x="264" y="792"/>
      <point x="339" y="856"/>
      <point x="375" y="880" type="curve"/>
      <point x="344" y="766"/>
      <point x="241" y="425"/>
      <point x="204" y="303" type="curve"/>
      <point x="167" y="299"/>
      <point x="66" y="287"/>
      <point x="20" y="277" type="curve"/>
      <point x="-6" y="219"/>
      <point x="-55" y="46"/>
      <point x="-62" y="-12" type="curve"/>
      <point x="13" y="-3"/>
      <point x="520" y="9"/>
      <point x="562" y="9" type="curve"/>
      <point x="586" y="62"/>
      <point x="648" y="260"/>
      <point x="659" y="303" type="curve"/>
      <point x="624" y="311"/>
      <point x="567" y="318"/>
    </contour>
  </outline>
</glyph>
<glyph name="two" format="2">
  <advance width="995"/>
  <unicode hex="0032"/>
  <outline>
    <contour>
      <point x="869" y="414" type="curve"/>
      <point x="804" y="410"/>
      <point x="602" y="386"/>
      <point x="528" y="376" type="curve"/>
      <point x="572" y="407"/>
      <point x="615" y="442"/>
      <point x="771" y="585" type="curve" smooth="yes"/>
      <point x="931" y="732"/>
      <point x="1061" y="950"/>
      <point x="1061" y="1132" type="curve" smooth="yes"/>
      <point x="1061" y="1277"/>
      <point x="946" y="1364"/>
      <point x="774" y="1364" type="curve" smooth="yes"/>
      <point x="567" y="1364"/>
      <point x="301" y="1218"/>
      <point x="163" y="1031" type="curve"/>
      <point x="207" y="983"/>
      <point x="348" y="880"/>
      <point x="411" y="836" type="curve"/>
      <point x="477" y="915"/>
      <point x="588" y="1000"/>
      <point x="651" y="1000" type="curve" smooth="yes"/>
      <point x="666" y="1000"/>
      <point x="678" y="994"/>
      <point x="678" y="979" type="curve" smooth="yes"/>
      <point x="678" y="908"/>
      <point x="499" y="735"/>
      <point x="381" y="627" type="curve" smooth="yes"/>
      <point x="211" y="472"/>
      <point x="101" y="393"/>
      <point x="21" y="337" type="curve"/>
      <point x="-2" y="221"/>
      <point x="-15" y="5"/>
      <point x="-16" y="-17" type="curve"/>
      <point x="801" y="27" type="line"/>
      <point x="812" y="70"/>
      <point x="869" y="293"/>
    </contour>
  </outline>
</glyph>
<glyph name="semicolon" format="2">
  <advance width="593"/>
  <unicode hex="003B"/>
  <outline>
    <contour>
      <point x="412" y="1061" type="curve" smooth="yes"/>
      <point x="260" y="1061"/>
      <point x="123" y="957"/>
      <point x="123" y="790" type="curve" smooth="yes"/>
      <point x="123" y="687"/>
      <point x="218" y="609"/>
      <point x="332" y="609" type="curve" smooth="yes"/>
      <point x="476" y="609"/>
      <point x="604" y="709"/>
      <point x="604" y="881" type="curve" smooth="yes"/>
      <point x="604" y="980"/>
      <point x="522" y="1061"/>
    </contour>
    <contour>
      <point x="143" y="-330" type="curve"/>
      <point x="306" y="-238"/>
      <point x="418" y="-35"/>
      <point x="418" y="134" type="curve" smooth="yes"/>
      <point x="418" y="283"/>
      <point x="314" y="346"/>
      <point x="208" y="346" type="curve" smooth="yes"/>
      <point x="47" y="346"/>
      <point x="-87" y="262"/>
      <point x="-87" y="101" type="curve" smooth="yes"/>
      <point x="-87" y="25"/>
      <point x="-51" y="-41"/>
      <point x="24" y="-41" type="curve" smooth="yes"/>
      <point x="70" y="-41"/>
      <point x="101" y="-33"/>
      <point x="120" y="-21" type="curve"/>
      <point x="120" y="-24"/>
      <point x="119" y="-28"/>
      <point x="118" y="-31" type="curve" smooth="yes"/>
      <point x="109" y="-60"/>
      <point x="9" y="-130"/>
      <point x="-41" y="-146" type="curve"/>
      <point x="-14" y="-245"/>
      <point x="117" y="-320"/>
    </contour>
  </outline>
</glyph>
<glyph name="at" format="2">
  <advance width="1920"/>
  <unicode hex="0040"/>
  <outline>
    <contour>
      <point x="748" y="-41" type="curve" smooth="yes"/>
      <point x="1030" y="-41"/>
      <point x="1274" y="34"/>
      <point x="1401" y="178" type="curve"/>
      <point x="1187" y="364" type="line"/>
      <point x="1111" y="296"/>
      <point x="978" y="234"/>
      <point x="822" y="234" type="curve" smooth="yes"/>
      <point x="595" y="234"/>
      <point x="407" y="356"/>
      <point x="407" y="606" type="curve" smooth="yes"/>
      <point x="407" y="1010"/>
      <point x="826" y="1213"/>
      <point x="1245" y="1213" type="curve" smooth="yes"/>
      <point x="1506" y="1213"/>
      <point x="1626" y="1102"/>
      <point x="1626" y="873" type="curve" smooth="yes"/>
      <point x="1626" y="766"/>
      <point x="1596" y="617"/>
      <point x="1521" y="617" type="curve" smooth="yes"/>
      <point x="1490" y="617"/>
      <point x="1472" y="630"/>
      <point x="1472" y="687" type="curve" smooth="yes"/>
      <point x="1472" y="711"/>
      <point x="1487" y="932"/>
      <point x="1502" y="1116" type="curve"/>
      <point x="1440" y="1113"/>
      <point x="1300" y="1108"/>
      <point x="1254" y="1108" type="curve"/>
      <point x="1251" y="1094"/>
      <point x="1245" y="1055"/>
      <point x="1244" y="1034" type="curve"/>
      <point x="1210" y="1069"/>
      <point x="1142" y="1089"/>
      <point x="1052" y="1089" type="curve" smooth="yes"/>
      <point x="796" y="1089"/>
      <point x="554" y="886"/>
      <point x="554" y="624" type="curve" smooth="yes"/>
      <point x="554" y="456"/>
      <point x="662" y="350"/>
      <point x="863" y="350" type="curve" smooth="yes"/>
      <point x="1002" y="350"/>
      <point x="1147" y="391"/>
      <point x="1230" y="485" type="curve"/>
      <point x="1245" y="398"/>
      <point x="1344" y="337"/>
      <point x="1465" y="337" type="curve" smooth="yes"/>
      <point x="1767" y="337"/>
      <point x="1948" y="597"/>
      <point x="1948" y="926" type="curve" smooth="yes"/>
      <point x="1948" y="1299"/>
      <point x="1684" y="1497"/>
      <point x="1252" y="1497" type="curve" smooth="yes"/>
      <point x="625" y="1497"/>
      <point x="51" y="1120"/>
      <point x="51" y="539" type="curve" smooth="yes"/>
      <point x="51" y="182"/>
      <point x="340" y="-41"/>
    </contour>
    <contour>
      <point x="998" y="634" type="curve" smooth="yes"/>
      <point x="945" y="634"/>
      <point x="893" y="660"/>
      <point x="893" y="706" type="curve" smooth="yes"/>
      <point x="893" y="768"/>
      <point x="950" y="819"/>
      <point x="1081" y="819" type="curve" smooth="yes"/>
      <point x="1151" y="819"/>
      <point x="1193" y="807"/>
      <point x="1217" y="797" type="curve"/>
      <point x="1211" y="721" type="line"/>
      <point x="1152" y="674"/>
      <point x="1078" y="634"/>
    </contour>
  </outline>
</glyph>
<glyph name="A" format="2">
  <advance width="1212"/>
  <unicode hex="0041"/>
  <anchor x="495" y="0" name="bottom"/>
  <anchor x="867" y="5" name="ogonek"/>
  <anchor x="903" y="1337" name="top"/>
  <outline>
    <contour>
      <point x="310" y="-15" type="curve"/>
      <point x="337" y="57"/>
      <point x="390" y="178"/>
      <point x="447" y="291" type="curve"/>
      <point x="487" y="299"/>
      <point x="593" y="306"/>
      <point x="699" y="308" type="curve"/>
      <point x="667" y="191"/>
      <point x="638" y="80"/>
      <point x="620" y="-15" type="curve"/>
      <point x="747" y="-15"/>
      <point x="968" y="-4"/>
      <point x="1051" y="7" type="curve"/>
      <point x="1198" y="783"/>
      <point x="1222" y="1089"/>
      <point x="1232" y="1323" type="curve"/>
      <point x="1153" y="1333"/>
      <point x="1075" y="1338"/>
      <point x="993" y="1338" type="curve" smooth="yes"/>
      <point x="865" y="1338"/>
      <point x="726" y="1327"/>
      <point x="550" y="1306" type="curve"/>
      <point x="347" y="940"/>
      <point x="8" y="271"/>
      <point x="-112" y="-2" type="curve"/>
      <point x="-7" y="-7"/>
      <point x="235" y="-15"/>
    </contour>
    <contour>
      <point x="590" y="639" type="curve"/>
      <point x="610" y="691"/>
      <point x="707" y="911"/>
      <point x="746" y="995" type="curve"/>
      <point x="764" y="997"/>
      <point x="842" y="1002"/>
      <point x="867" y="1002" type="curve"/>
      <point x="860" y="976"/>
      <point x="792" y="692"/>
      <point x="783" y="651" type="curve"/>
      <point x="744" y="651"/>
      <point x="618" y="643"/>
    </contour>
  </outline>
</glyph>
<glyph name="D" format="2">
  <advance width="1198"/>
  <unicode hex="0044"/>
  <anchor x="456.585" y="0" name="bottom"/>
  <anchor x="354" y="646" name="center"/>
  <anchor x="716" y="1291" name="top"/>
  <outline>
    <contour>
      <point x="4" y="-34" type="curve"/>
      <point x="809" y="-34"/>
      <point x="1208" y="157"/>
      <point x="1208" y="836" type="curve" smooth="yes"/>
      <point x="1208" y="1126"/>
      <point x="1065" y="1325"/>
      <point x="642" y="1325" type="curve" smooth="yes"/>
      <point x="495" y="1325"/>
      <point x="349" y="1310"/>
      <point x="256" y="1299" type="curve"/>
      <point x="227" y="1152"/>
      <point x="35" y="178"/>
    </contour>
    <contour>
      <point x="490" y="381" type="curve"/>
      <point x="536" y="565"/>
      <point x="575" y="773"/>
      <point x="612" y="978" type="curve"/>
      <point x="625" y="979"/>
      <point x="651" y="979"/>
      <point x="671" y="979" type="curve" smooth="yes"/>
      <point x="768" y="979"/>
      <point x="798" y="903"/>
      <point x="798" y="808" type="curve" smooth="yes"/>
      <point x="798" y="568"/>
      <point x="703" y="381"/>
    </contour>
  </outline>
</glyph>
<glyph name="E" format="2">
  <advance width="957"/>
  <unicode hex="0045"/>
  <anchor x="337" y="0" name="bottom"/>
  <anchor x="599" y="0" name="ogonek"/>
  <anchor x="683" y="1321" name="top"/>
  <anchor x="224" y="1291" name="topleft"/>
  <outline>
    <contour>
      <point x="685" y="-15" type="curve"/>
      <point x="707" y="22"/>
      <point x="799" y="267"/>
      <point x="835" y="400" type="curve"/>
      <point x="787" y="404"/>
      <point x="709" y="410"/>
      <point x="627" y="410" type="curve" smooth="yes"/>
      <point x="539" y="410"/>
      <point x="448" y="410"/>
      <point x="438" y="410" type="curve"/>
      <point x="444" y="432"/>
      <point x="473" y="530"/>
      <point x="482" y="557" type="curve"/>
      <point x="517" y="557"/>
      <point x="684" y="543"/>
      <point x="728" y="540" type="curve"/>
      <point x="820" y="860" type="line"/>
      <point x="733" y="858"/>
      <point x="650" y="855"/>
      <point x="571" y="855" type="curve"/>
      <point x="576" y="874"/>
      <point x="599" y="961"/>
      <point x="607" y="978" type="curve"/>
      <point x="988" y="1009" type="line"/>
      <point x="1029" y="1123"/>
      <point x="1064" y="1226"/>
      <point x="1092" y="1330" type="curve"/>
      <point x="1037" y="1330"/>
      <point x="701" y="1328"/>
      <point x="291" y="1251" type="curve"/>
      <point x="260" y="1153"/>
      <point x="196" y="945"/>
      <point x="122" y="670" type="curve" smooth="yes"/>
      <point x="72" y="483"/>
      <point x="18" y="266"/>
      <point x="-36" y="31" type="curve"/>
      <point x="84" y="23"/>
      <point x="205" y="15"/>
      <point x="325" y="8" type="curve" smooth="yes"/>
      <point x="445" y="1"/>
      <point x="565" y="-7"/>
    </contour>
  </outline>
</glyph>
<glyph name="F" format="2">
  <advance width="949"/>
  <unicode hex="0046"/>
  <anchor x="313" y="0" name="bottom"/>
  <anchor x="659" y="1291" name="top"/>
  <outline>
    <contour>
      <point x="409" y="0" type="line"/>
      <point x="449" y="151"/>
      <point x="485" y="355"/>
      <point x="513" y="517" type="curve"/>
      <point x="615" y="517"/>
      <point x="723" y="506"/>
      <point x="792" y="498" type="curve"/>
      <point x="834" y="609"/>
      <point x="866" y="722"/>
      <point x="887" y="819" type="curve"/>
      <point x="826" y="831"/>
      <point x="663" y="848"/>
      <point x="572" y="848" type="curve"/>
      <point x="579" y="885"/>
      <point x="587" y="932"/>
      <point x="591" y="962" type="curve"/>
      <point x="749" y="962"/>
      <point x="944" y="948"/>
      <point x="1019" y="942" type="curve"/>
      <point x="1043" y="1030"/>
      <point x="1072" y="1162"/>
      <point x="1095" y="1280" type="curve"/>
      <point x="1018" y="1299"/>
      <point x="885" y="1314"/>
      <point x="723" y="1314" type="curve" smooth="yes"/>
      <point x="589" y="1314"/>
      <point x="437" y="1312"/>
      <point x="290" y="1301" type="curve"/>
      <point x="193" y="875"/>
      <point x="93" y="448"/>
      <point x="-13" y="17" type="curve"/>
    </contour>
  </outline>
</glyph>
<glyph name="I" format="2">
  <advance width="588"/>
  <unicode hex="0049"/>
  <anchor x="147" y="0" name="bottom"/>
  <anchor x="322" y="-24" name="ogonek"/>
  <anchor x="493" y="1291" name="top"/>
  <anchor x="238" y="1291" name="topleft"/>
  <outline>
    <contour>
      <point x="322" y="-24" type="curve"/>
      <point x="374" y="94"/>
      <point x="439" y="312"/>
      <point x="502" y="548" type="curve" smooth="yes"/>
      <point x="575" y="823"/>
      <point x="648" y="1128"/>
      <point x="689" y="1323" type="curve"/>
      <point x="591" y="1323"/>
      <point x="365" y="1317"/>
      <point x="310" y="1315" type="curve"/>
      <point x="234" y="1057"/>
      <point x="163" y="808"/>
      <point x="102" y="580" type="curve" smooth="yes"/>
      <point x="44" y="363"/>
      <point x="-18" y="111"/>
      <point x="-46" y="-8" type="curve"/>
      <point x="61" y="-23"/>
      <point x="221" y="-24"/>
    </contour>
  </outline>
</glyph>
<glyph name="J" format="2">
  <advance width="1178"/>
  <unicode hex="004A"/>
  <anchor x="446.585" y="0" name="bottom"/>
  <anchor x="1052" y="1291" name="top"/>
  <outline>
    <contour>
      <point x="7" y="128"/>
      <point x="187" y="-19"/>
      <point x="470" y="-19" type="curve" smooth="yes"/>
      <point x="788" y="-19"/>
      <point x="1007" y="114"/>
      <point x="1131" y="614" type="curve" smooth="yes"/>
      <point x="1172" y="780"/>
      <point x="1246" y="1100"/>
      <point x="1278" y="1277" type="curve"/>
      <point x="1219" y="1285"/>
      <point x="1165" y="1287"/>
      <point x="1091" y="1287" type="curve" smooth="yes"/>
      <point x="1022" y="1287"/>
      <point x="932" y="1278"/>
      <point x="863" y="1265" type="curve"/>
      <point x="860" y="1243"/>
      <point x="788" y="860"/>
      <point x="733" y="653" type="curve" smooth="yes"/>
      <point x="677" y="443"/>
      <point x="634" y="364"/>
      <point x="555" y="364" type="curve" smooth="yes"/>
      <point x="488" y="364"/>
      <point x="425" y="450"/>
      <point x="425" y="581" type="curve"/>
      <point x="327" y="548"/>
      <point x="75" y="443"/>
      <point x="7" y="400" type="curve"/>
    </contour>
  </outline>
</glyph>
<glyph name="M" format="2">
  <advance width="1492"/>
  <unicode hex="004D"/>
  <anchor x="594" y="0" name="bottom"/>
  <anchor x="940" y="1291" name="top"/>
  <outline>
    <contour>
      <point x="-60" y="7" type="curve"/>
      <point x="69" y="7"/>
      <point x="239" y="9"/>
      <point x="329" y="12" type="curve"/>
      <point x="335" y="32"/>
      <point x="430" y="399"/>
      <point x="509" y="707" type="curve"/>
      <point x="506" y="552"/>
      <point x="488" y="171"/>
      <point x="482" y="94" type="curve"/>
      <point x="519" y="83"/>
      <point x="636" y="72"/>
      <point x="721" y="76" type="curve"/>
      <point x="776" y="156"/>
      <point x="994" y="475"/>
      <point x="1066" y="606" type="curve"/>
      <point x="1049" y="555"/>
      <point x="1013" y="443"/>
      <point x="977" y="329" type="curve" smooth="yes"/>
      <point x="938" y="206"/>
      <point x="898" y="80"/>
      <point x="879" y="24" type="curve"/>
      <point x="950" y="19"/>
      <point x="1118" y="9"/>
      <point x="1240" y="9" type="curve"/>
      <point x="1300" y="178"/>
      <point x="1393" y="466"/>
      <point x="1462" y="725" type="curve" smooth="yes"/>
      <point x="1516" y="926"/>
      <point x="1556" y="1114"/>
      <point x="1561" y="1231" type="curve"/>
      <point x="1453" y="1250"/>
      <point x="1227" y="1255"/>
      <point x="1124" y="1255" type="curve"/>
      <point x="1075" y="1153"/>
      <point x="877" y="781"/>
      <point x="775" y="601" type="curve"/>
      <point x="779" y="788"/>
      <point x="784" y="1208"/>
      <point x="784" y="1262" type="curve"/>
      <point x="771" y="1262"/>
      <point x="461" y="1260"/>
      <point x="297" y="1244" type="curve"/>
      <point x="158" y="811"/>
      <point x="-3" y="222"/>
    </contour>
  </outline>
</glyph>
<glyph name="Q" format="2">
  <advance width="1291"/>
  <unicode hex="0051"/>
  <anchor x="503.585" y="0" name="bottom"/>
  <anchor x="849.507" y="1291" name="top"/>
  <outline>
    <contour>
      <point x="904" y="-187" type="curve"/>
      <point x="989" y="-137"/>
      <point x="1098" y="-58"/>
      <point x="1167" y="14" type="curve"/>
      <point x="1106" y="50"/>
      <point x="1034" y="107"/>
      <point x="1001" y="174" type="curve"/>
      <point x="1208" y="303"/>
      <point x="1324" y="585"/>
      <point x="1324" y="848" type="curve" smooth="yes"/>
      <point x="1324" y="1108"/>
      <point x="1183" y="1299"/>
      <point x="839" y="1299" type="curve" smooth="yes"/>
      <point x="390" y="1299"/>
      <point x="50" y="910"/>
      <point x="50" y="456" type="curve" smooth="yes"/>
      <point x="50" y="182"/>
      <point x="203" y="-21"/>
      <point x="497" y="-21" type="curve" smooth="yes"/>
      <point x="587" y="-21"/>
      <point x="690" y="8"/>
      <point x="729" y="29" type="curve"/>
      <point x="745" y="-18"/>
      <point x="847" y="-158"/>
    </contour>
    <contour>
      <point x="621" y="328" type="curve"/>
      <point x="616" y="326"/>
      <point x="605" y="323"/>
      <point x="577" y="323" type="curve" smooth="yes"/>
      <point x="473" y="323"/>
      <point x="439" y="419"/>
      <point x="439" y="530" type="curve" smooth="yes"/>
      <point x="439" y="785"/>
      <point x="574" y="986"/>
      <point x="811" y="986" type="curve" smooth="yes"/>
      <point x="932" y="986"/>
      <point x="976" y="922"/>
      <point x="976" y="805" type="curve" smooth="yes"/>
      <point x="976" y="710"/>
      <point x="939" y="500"/>
      <point x="879" y="433" type="curve"/>
      <point x="861" y="475"/>
      <point x="852" y="548"/>
      <point x="848" y="598" type="curve"/>
      <point x="768" y="558"/>
      <point x="640" y="489"/>
      <point x="587" y="454" type="curve"/>
      <point x="587" y="419"/>
      <point x="612" y="342"/>
    </contour>
  </outline>
</glyph>
<glyph name="T" format="2">
  <advance width="1039"/>
  <unicode hex="0054"/>
  <anchor x="393" y="0" name="bottom"/>
  <anchor x="551" y="646" name="center"/>
  <anchor x="723.507" y="1291" name="top"/>
  <outline>
    <contour>
      <point x="178" y="968" type="curve"/>
      <point x="277" y="968"/>
      <point x="369" y="971"/>
      <point x="455" y="978" type="curve"/>
      <point x="442" y="933"/>
      <point x="426" y="877"/>
      <point x="409" y="814" type="curve" smooth="yes"/>
      <point x="339" y="554"/>
      <point x="248" y="179"/>
      <point x="206" y="-14" type="curve"/>
      <point x="305" y="-14"/>
      <point x="524" y="-2"/>
      <point x="630" y="14" type="curve"/>
      <point x="637" y="52"/>
      <point x="800" y="814"/>
      <point x="838" y="986" type="curve"/>
      <point x="904" y="983"/>
      <point x="1036" y="983"/>
      <point x="1083" y="983" type="curve"/>
      <point x="1113" y="1039"/>
      <point x="1159" y="1167"/>
      <point x="1197" y="1308" type="curve"/>
      <point x="1084" y="1325"/>
      <point x="938" y="1331"/>
      <point x="789" y="1331" type="curve" smooth="yes"/>
      <point x="596" y="1331"/>
      <point x="397" y="1321"/>
      <point x="245" y="1309" type="curve"/>
      <point x="235" y="1272"/>
      <point x="182" y="1038"/>
    </contour>
  </outline>
</glyph>
<glyph name="U" format="2">
  <advance width="1212"/>
  <unicode hex="0055"/>
  <anchor x="463.585" y="0" name="bottom"/>
  <anchor x="652" y="0" name="ogonek"/>
  <anchor x="835" y="1318" name="top"/>
  <anchor x="1261" y="1174" name="topright"/>
  <outline>
    <contour>
      <point x="481" y="-27" type="curve" smooth="yes"/>
      <point x="951" y="-27"/>
      <point x="1116" y="419"/>
      <point x="1263" y="957" type="curve" smooth="yes"/>
      <point x="1296" y="1078"/>
      <point x="1318" y="1195"/>
      <point x="1330" y="1296" type="curve"/>
      <point x="1304" y="1304"/>
      <point x="1055" y="1328"/>
      <point x="924" y="1328" type="curve"/>
      <point x="913" y="1245"/>
      <point x="812" y="833"/>
      <point x="779" y="710" type="curve" smooth="yes"/>
      <point x="741" y="570"/>
      <point x="695" y="458"/>
      <point x="591" y="458" type="curve" smooth="yes"/>
      <point x="542" y="458"/>
      <point x="520" y="488"/>
      <point x="520" y="554" type="curve" smooth="yes"/>
      <point x="520" y="636"/>
      <point x="568" y="824"/>
      <point x="622" y="1009" type="curve" smooth="yes"/>
      <point x="657" y="1129"/>
      <point x="697" y="1248"/>
      <point x="727" y="1335" type="curve"/>
      <point x="662" y="1342"/>
      <point x="577" y="1347"/>
      <point x="496" y="1347" type="curve" smooth="yes"/>
      <point x="433" y="1347"/>
      <point x="356" y="1342"/>
      <point x="285" y="1335" type="curve"/>
      <point x="251" y="1217"/>
      <point x="220" y="1108"/>
      <point x="194" y="1005" type="curve" smooth="yes"/>
      <point x="130" y="752"/>
      <point x="88" y="544"/>
      <point x="88" y="371" type="curve" smooth="yes"/>
      <point x="88" y="112"/>
      <point x="194" y="-27"/>
    </contour>
  </outline>
</glyph>
<glyph name="X" format="2">
  <advance width="1253"/>
  <unicode hex="0058"/>
  <anchor x="484.585" y="0" name="bottom"/>
  <anchor x="830.507" y="1291" name="top"/>
  <outline>
    <contour>
      <point x="473" y="679" type="curve"/>
      <point x="292" y="461"/>
      <point x="61" y="193"/>
      <point x="-72" y="56" type="curve"/>
      <point x="87" y="10"/>
      <point x="225" y="-18"/>
      <point x="352" y="-31" type="curve"/>
      <point x="392" y="10"/>
      <point x="496" y="121"/>
      <point x="643" y="323" type="curve"/>
      <point x="691" y="177"/>
      <point x="710" y="38"/>
      <point x="717" y="-54" type="curve"/>
      <point x="827" y="-34"/>
      <point x="1000" y="18"/>
      <point x="1116" y="81" type="curve"/>
      <point x="1105" y="168"/>
      <point x="996" y="498"/>
      <point x="906" y="673" type="curve"/>
      <point x="1062" y="827"/>
      <point x="1315" y="1077"/>
      <point x="1397" y="1193" type="curve"/>
      <point x="1351" y="1241"/>
      <point x="1145" y="1314"/>
      <point x="991" y="1328" type="curve"/>
      <point x="933" y="1209"/>
      <point x="854" y="1071"/>
      <point x="775" y="961" type="curve"/>
      <point x="771" y="998"/>
      <point x="722" y="1258"/>
      <point x="680" y="1347" type="curve"/>
      <point x="568" y="1332"/>
      <point x="316" y="1255"/>
      <point x="209" y="1207" type="curve"/>
      <point x="241" y="1161"/>
      <point x="407" y="914"/>
    </contour>
  </outline>
</glyph>
<glyph name="bracketleft" format="2">
  <advance width="735"/>
  <unicode hex="005B"/>
  <outline>
    <contour>
      <point x="11" y="-526"/>
      <point x="85" y="-526" type="curve" smooth="yes"/>
      <point x="220" y="-526"/>
      <point x="324" y="-517"/>
      <point x="387" y="-509" type="curve"/>
      <point x="412" y="-449"/>
      <point x="470" y="-275"/>
      <point x="495" y="-191" type="curve"/>
      <point x="467" y="-191"/>
      <point x="405" y="-190"/>
      <point x="367" y="-188" type="curve" smooth="yes"/>
      <point x="315" y="-185"/>
      <point x="273" y="-182"/>
      <point x="255" y="-176" type="curve"/>
      <point x="291" y="-4"/>
      <point x="336" y="186"/>
      <point x="390" y="387" type="curve" smooth="yes"/>
      <point x="473" y="695"/>
      <point x="578" y="1032"/>
      <point x="710" y="1381" type="curve"/>
      <point x="782" y="1386"/>
      <point x="906" y="1393"/>
      <point x="931" y="1393" type="curve"/>
      <point x="940" y="1410"/>
      <point x="967" y="1467"/>
      <point x="995" y="1536" type="curve" smooth="yes"/>
      <point x="1014" y="1582"/>
      <point x="1032" y="1634"/>
      <point x="1045" y="1682" type="curve"/>
      <point x="808" y="1680"/>
      <point x="572" y="1665"/>
      <point x="427" y="1638" type="curve"/>
      <point x="337" y="1443"/>
      <point x="186" y="1009"/>
      <point x="55" y="519" type="curve" smooth="yes"/>
      <point x="-36" y="180"/>
      <point x="-118" y="-186"/>
      <point x="-162" y="-516" type="curve"/>
      <point x="-71" y="-523"/>
    </contour>
  </outline>
</glyph>
<glyph name="a" format="2">
  <advance width="1295"/>
  <unicode hex="0061"/>
  <anchor x="475" y="0" name="bottom"/>
  <anchor x="1064" y="0" name="ogonek"/>
  <anchor x="748" y="1063" name="top"/>
  <outline>
    <contour>
      <point x="381" y="-15" type="curve" smooth="yes"/>
      <point x="600" y="-15"/>
      <point x="762" y="80"/>
      <point x="806" y="179" type="curve"/>
      <point x="806" y="53"/>
      <point x="871" y="-11"/>
      <point x="990" y="-11" type="curve" smooth="yes"/>
      <point x="1101" y="-11"/>
      <point x="1176" y="27"/>
      <point x="1204" y="55" type="curve"/>
      <point x="1159" y="318" type="line"/>
      <point x="1140" y="305"/>
      <point x="1120" y="297"/>
      <point x="1089" y="297" type="curve" smooth="yes"/>
      <point x="1066" y="297"/>
      <point x="1054" y="306"/>
      <point x="1054" y="342" type="curve" smooth="yes"/>
      <point x="1054" y="391"/>
      <point x="1066" y="450"/>
      <point x="1082" y="511" type="curve" smooth="yes"/>
      <point x="1103" y="591"/>
      <point x="1121" y="679"/>
      <point x="1121" y="754" type="curve" smooth="yes"/>
      <point x="1121" y="995"/>
      <point x="961" y="1076"/>
      <point x="688" y="1076" type="curve" smooth="yes"/>
      <point x="474" y="1076"/>
      <point x="257" y="992"/>
      <point x="132" y="869" type="curve"/>
      <point x="379" y="677" type="line"/>
      <point x="420" y="725"/>
      <point x="537" y="775"/>
      <point x="624" y="775" type="curve" smooth="yes"/>
      <point x="705" y="775"/>
      <point x="744" y="754"/>
      <point x="769" y="718" type="curve" smooth="yes"/>
      <point x="784" y="696"/>
      <point x="785" y="644"/>
      <point x="785" y="629" type="curve"/>
      <point x="760" y="652"/>
      <point x="666" y="675"/>
      <point x="583" y="675" type="curve" smooth="yes"/>
      <point x="293" y="675"/>
      <point x="1" y="577"/>
      <point x="1" y="275" type="curve" smooth="yes"/>
      <point x="1" y="63"/>
      <point x="154" y="-15"/>
    </contour>
    <contour>
      <point x="525" y="272" type="curve" smooth="yes"/>
      <point x="432" y="272"/>
      <point x="401" y="294"/>
      <point x="401" y="340" type="curve" smooth="yes"/>
      <point x="401" y="399"/>
      <point x="514" y="423"/>
      <point x="596" y="423" type="curve" smooth="yes"/>
      <point x="654" y="423"/>
      <point x="727" y="413"/>
      <point x="748" y="402" type="curve"/>
      <point x="744" y="387"/>
      <point x="738" y="350"/>
      <point x="738" y="335" type="curve"/>
      <point x="706" y="304"/>
      <point x="597" y="272"/>
    </contour>
  </outline>
</glyph>
<glyph name="b" format="2">
  <advance width="1200"/>
  <unicode hex="0062"/>
  <anchor x="457.585" y="0" name="bottom"/>
  <anchor x="851.47" y="1470" name="top"/>
  <outline>
    <contour>
      <point x="-19" y="-2" type="curve"/>
      <point x="80" y="-15"/>
      <point x="242" y="-19"/>
      <point x="368" y="-19" type="curve"/>
      <point x="370" y="-2"/>
      <point x="387" y="75"/>
      <point x="396" y="114" type="curve"/>
      <point x="413" y="73"/>
      <point x="516" y="0"/>
      <point x="653" y="0" type="curve" smooth="yes"/>
      <point x="962" y="0"/>
      <point x="1163" y="262"/>
      <point x="1163" y="591" type="curve" smooth="yes"/>
      <point x="1163" y="815"/>
      <point x="1043" y="918"/>
      <point x="854" y="918" type="curve" smooth="yes"/>
      <point x="734" y="918"/>
      <point x="631" y="861"/>
      <point x="540" y="786" type="curve"/>
      <point x="593" y="1052"/>
      <point x="664" y="1326"/>
      <point x="697" y="1441" type="curve"/>
      <point x="484" y="1409"/>
      <point x="329" y="1380"/>
      <point x="310" y="1376" type="curve"/>
      <point x="253" y="1164"/>
      <point x="13" y="162"/>
    </contour>
    <contour>
      <point x="455" y="378" type="curve"/>
      <point x="460" y="403"/>
      <point x="477" y="479"/>
      <point x="482" y="501" type="curve"/>
      <point x="520" y="539"/>
      <point x="593" y="603"/>
      <point x="711" y="603" type="curve" smooth="yes"/>
      <point x="781" y="603"/>
      <point x="808" y="565"/>
      <point x="808" y="513" type="curve" smooth="yes"/>
      <point x="808" y="405"/>
      <point x="737" y="342"/>
      <point x="616" y="342" type="curve" smooth="yes"/>
      <point x="558" y="342"/>
      <point x="482" y="361"/>
    </contour>
  </outline>
</glyph>
<glyph name="d" format="2">
  <advance width="1195"/>
  <unicode hex="0064"/>
  <anchor x="426" y="0" name="bottom"/>
  <anchor x="1054" y="1177" name="center"/>
  <anchor x="819" y="1470" name="top"/>
  <anchor x="1277" y="1023" name="topright"/>
  <outline>
    <contour>
      <point x="629" y="3" type="curve"/>
      <point x="708" y="-5"/>
      <point x="901" y="-8"/>
      <point x="957" y="-8" type="curve"/>
      <point x="1093" y="516"/>
      <point x="1216" y="963"/>
      <point x="1371" y="1418" type="curve"/>
      <point x="1285" y="1443"/>
      <point x="1157" y="1454"/>
      <point x="1064" y="1454" type="curve"/>
      <point x="1034" y="1379"/>
      <point x="919" y="1060"/>
      <point x="863" y="851" type="curve"/>
      <point x="843" y="908"/>
      <point x="727" y="959"/>
      <point x="598" y="959" type="curve" smooth="yes"/>
      <point x="266" y="959"/>
      <point x="31" y="714"/>
      <point x="31" y="379" type="curve" smooth="yes"/>
      <point x="31" y="175"/>
      <point x="184" y="-3"/>
      <point x="367" y="-3" type="curve" smooth="yes"/>
      <point x="541" y="-3"/>
      <point x="609" y="66"/>
      <point x="655" y="120" type="curve"/>
      <point x="645" y="84"/>
      <point x="632" y="27"/>
    </contour>
    <contour>
      <point x="513" y="361" type="curve" smooth="yes"/>
      <point x="447" y="361"/>
      <point x="401" y="399"/>
      <point x="401" y="471" type="curve" smooth="yes"/>
      <point x="401" y="573"/>
      <point x="490" y="645"/>
      <point x="590" y="645" type="curve" smooth="yes"/>
      <point x="655" y="645"/>
      <point x="737" y="615"/>
      <point x="768" y="574" type="curve"/>
      <point x="758" y="542"/>
      <point x="743" y="487"/>
      <point x="730" y="439" type="curve"/>
      <point x="663" y="378"/>
      <point x="581" y="361"/>
    </contour>
  </outline>
</glyph>
<glyph name="f" format="2">
  <advance width="896"/>
  <unicode hex="0066"/>
  <anchor x="305.585" y="0" name="bottom"/>
  <anchor x="699.47" y="1470" name="top"/>
  <outline>
    <contour>
      <point x="84" y="-15" type="curve"/>
      <point x="212" y="-15"/>
      <point x="413" y="-12"/>
      <point x="515" y="4" type="curve"/>
      <point x="519" y="55"/>
      <point x="549" y="400"/>
      <point x="557" y="475" type="curve"/>
      <point x="607" y="479"/>
      <point x="731" y="482"/>
      <point x="750" y="482" type="curve"/>
      <point x="776" y="576"/>
      <point x="808" y="709"/>
      <point x="821" y="796" type="curve"/>
      <point x="784" y="802"/>
      <point x="663" y="809"/>
      <point x="603" y="809" type="curve"/>
      <point x="603" y="827"/>
      <point x="605" y="849"/>
      <point x="610" y="868" type="curve" smooth="yes"/>
      <point x="626" y="930"/>
      <point x="669" y="972"/>
      <point x="734" y="972" type="curve" smooth="yes"/>
      <point x="770" y="972"/>
      <point x="811" y="945"/>
      <point x="834" y="898" type="curve"/>
      <point x="878" y="944"/>
      <point x="1028" y="1115"/>
      <point x="1107" y="1213" type="curve"/>
      <point x="1085" y="1265"/>
      <point x="1010" y="1357"/>
      <point x="779" y="1357" type="curve" smooth="yes"/>
      <point x="486" y="1357"/>
      <point x="295" y="1133"/>
      <point x="231" y="898" type="curve" smooth="yes"/>
      <point x="218" y="850"/>
      <point x="209" y="801"/>
      <point x="203" y="752" type="curve"/>
      <point x="176" y="747"/>
      <point x="110" y="730"/>
      <point x="83" y="721" type="curve"/>
      <point x="54" y="623"/>
      <point x="31" y="463"/>
      <point x="31" y="385" type="curve"/>
      <point x="76" y="400"/>
      <point x="129" y="414"/>
      <point x="147" y="417" type="curve"/>
      <point x="131" y="313"/>
      <point x="86" y="3"/>
    </contour>
  </outline>
</glyph>
<glyph name="g" format="2">
  <advance width="1231"/>
  <unicode hex="0067"/>
  <anchor x="331.572" y="-530" name="bottom"/>
  <anchor x="758.415" y="1063" name="top"/>
  <outline>
    <contour>
      <point x="626" y="274" type="curve" smooth="yes"/>
      <point x="939" y="274"/>
      <point x="1183" y="436"/>
      <point x="1183" y="737" type="curve" smooth="yes"/>
      <point x="1183" y="771"/>
      <point x="1179" y="802"/>
      <point x="1171" y="831" type="curve"/>
      <point x="1220" y="891"/>
      <point x="1290" y="930"/>
      <point x="1355" y="956" type="curve"/>
      <point x="1324" y="1017"/>
      <point x="1271" y="1143"/>
      <point x="1251" y="1193" type="curve"/>
      <point x="1169" y="1163"/>
      <point x="1061" y="1085"/>
      <point x="1002" y="1015" type="curve"/>
      <point x="937" y="1042"/>
      <point x="852" y="1056"/>
      <point x="747" y="1056" type="curve" smooth="yes"/>
      <point x="416" y="1056"/>
      <point x="129" y="922"/>
      <point x="129" y="606" type="curve" smooth="yes"/>
      <point x="129" y="540"/>
      <point x="144" y="476"/>
      <point x="184" y="422" type="curve"/>
      <point x="113" y="386"/>
      <point x="48" y="308"/>
      <point x="48" y="233" type="curve" smooth="yes"/>
      <point x="48" y="191"/>
      <point x="71" y="155"/>
      <point x="132" y="124" type="curve"/>
      <point x="-21" y="58"/>
      <point x="-132" y="-53"/>
      <point x="-132" y="-210" type="curve" smooth="yes"/>
      <point x="-132" y="-430"/>
      <point x="71" y="-499"/>
      <point x="377" y="-499" type="curve" smooth="yes"/>
      <point x="723" y="-499"/>
      <point x="1024" y="-373"/>
      <point x="1024" y="-46" type="curve" smooth="yes"/>
      <point x="1024" y="123"/>
      <point x="914" y="207"/>
      <point x="724" y="207" type="curve" smooth="yes"/>
      <point x="582" y="207"/>
      <point x="523" y="203"/>
      <point x="442" y="197" type="curve"/>
      <point x="383" y="197"/>
      <point x="356" y="219"/>
      <point x="356" y="245" type="curve" smooth="yes"/>
      <point x="356" y="262"/>
      <point x="369" y="282"/>
      <point x="394" y="298" type="curve"/>
      <point x="457" y="283"/>
      <point x="534" y="274"/>
    </contour>
    <contour>
      <point x="431" y="-264" type="curve" smooth="yes"/>
      <point x="320" y="-264"/>
      <point x="259" y="-230"/>
      <point x="259" y="-179" type="curve" smooth="yes"/>
      <point x="259" y="-110"/>
      <point x="308" y="-77"/>
      <point x="388" y="-77" type="curve" smooth="yes"/>
      <point x="537" y="-77" type="line" smooth="yes"/>
      <point x="596" y="-77"/>
      <point x="643" y="-95"/>
      <point x="643" y="-141" type="curve" smooth="yes"/>
      <point x="643" y="-224"/>
      <point x="538" y="-264"/>
    </contour>
    <contour>
      <point x="664" y="566" type="curve" smooth="yes"/>
      <point x="589" y="566"/>
      <point x="532" y="593"/>
      <point x="532" y="657" type="curve" smooth="yes"/>
      <point x="532" y="750"/>
      <point x="631" y="774"/>
      <point x="710" y="774" type="curve" smooth="yes"/>
      <point x="773" y="774"/>
      <point x="825" y="737"/>
      <point x="825" y="675" type="curve" smooth="yes"/>
      <point x="825" y="591"/>
      <point x="748" y="566"/>
    </contour>
  </outline>
</glyph>
<glyph name="h" format="2">
  <advance width="1123"/>
  <unicode hex="0068"/>
  <anchor x="419.585" y="0" name="bottom"/>
  <anchor x="523" y="1189" name="center"/>
  <anchor x="439" y="1412" name="top"/>
  <outline>
    <contour>
      <point x="293" y="-5" type="curve"/>
      <point x="339" y="97"/>
      <point x="406" y="295"/>
      <point x="461" y="492" type="curve"/>
      <point x="514" y="540"/>
      <point x="582" y="580"/>
      <point x="645" y="580" type="curve" smooth="yes"/>
      <point x="688" y="580"/>
      <point x="709" y="548"/>
      <point x="709" y="508" type="curve" smooth="yes"/>
      <point x="709" y="434"/>
      <point x="584" y="124"/>
      <point x="534" y="9" type="curve"/>
      <point x="586" y="-2"/>
      <point x="650" y="-8"/>
      <point x="716" y="-8" type="curve" smooth="yes"/>
      <point x="776" y="-8"/>
      <point x="838" y="-3"/>
      <point x="898" y="7" type="curve"/>
      <point x="981" y="189"/>
      <point x="1113" y="548"/>
      <point x="1113" y="709" type="curve" smooth="yes"/>
      <point x="1113" y="844"/>
      <point x="1041" y="913"/>
      <point x="877" y="913" type="curve" smooth="yes"/>
      <point x="768" y="913"/>
      <point x="635" y="870"/>
      <point x="549" y="802" type="curve"/>
      <point x="612" y="1072"/>
      <point x="646" y="1292"/>
      <point x="655" y="1443" type="curve"/>
      <point x="583" y="1443"/>
      <point x="303" y="1405"/>
      <point x="281" y="1398" type="curve"/>
      <point x="235" y="1174"/>
      <point x="170" y="861"/>
      <point x="95" y="583" type="curve" smooth="yes"/>
      <point x="28" y="334"/>
      <point x="-47" y="111"/>
      <point x="-89" y="3" type="curve"/>
      <point x="-58" y="-11"/>
      <point x="20" y="-16"/>
      <point x="107" y="-16" type="curve" smooth="yes"/>
      <point x="180" y="-16"/>
      <point x="254" y="-12"/>
    </contour>
  </outline>
</glyph>
<glyph name="i" format="2">
  <advance width="610"/>
  <unicode hex="0069"/>
  <anchor x="166" y="0" name="bottom"/>
  <outline>
    <contour>
      <point x="328" y="3" type="curve"/>
      <point x="374" y="83"/>
      <point x="473" y="387"/>
      <point x="537" y="627" type="curve" smooth="yes"/>
      <point x="571" y="754"/>
      <point x="595" y="874"/>
      <point x="598" y="922" type="curve"/>
      <point x="508" y="922"/>
      <point x="319" y="912"/>
      <point x="231" y="904" type="curve"/>
      <point x="170" y="696"/>
      <point x="-29" y="92"/>
      <point x="-67" y="5" type="curve"/>
      <point x="-5" y="-3"/>
      <point x="60" y="-6"/>
      <point x="121" y="-6" type="curve" smooth="yes"/>
      <point x="210" y="-6"/>
      <point x="303" y="1"/>
    </contour>
    <contour>
      <point x="464" y="1022" type="curve" smooth="yes"/>
      <point x="612" y="1022"/>
      <point x="741" y="1148"/>
      <point x="741" y="1292" type="curve" smooth="yes"/>
      <point x="741" y="1390"/>
      <point x="660" y="1463"/>
      <point x="551" y="1463" type="curve" smooth="yes"/>
      <point x="395" y="1463"/>
      <point x="252" y="1346"/>
      <point x="252" y="1187" type="curve" smooth="yes"/>
      <point x="252" y="1084"/>
      <point x="345" y="1022"/>
    </contour>
  </outline>
</glyph>
<glyph name="l" format="2">
  <advance width="645"/>
  <unicode hex="006C"/>
  <anchor x="165.585" y="0" name="bottom"/>
  <anchor x="362.528" y="735" name="center"/>
  <anchor x="559.47" y="1470" name="top"/>
  <anchor x="633" y="1038" name="topright"/>
  <outline>
    <contour>
      <point x="566" y="35" type="curve"/>
      <point x="562" y="65"/>
      <point x="528" y="308"/>
      <point x="520" y="347" type="curve"/>
      <point x="495" y="320"/>
      <point x="465" y="303"/>
      <point x="424" y="303" type="curve" smooth="yes"/>
      <point x="392" y="303"/>
      <point x="381" y="325"/>
      <point x="381" y="362" type="curve" smooth="yes"/>
      <point x="381" y="474"/>
      <point x="494" y="818"/>
      <point x="702" y="1426" type="curve"/>
      <point x="626" y="1432"/>
      <point x="568" y="1435"/>
      <point x="506" y="1435" type="curve" smooth="yes"/>
      <point x="460" y="1435"/>
      <point x="401" y="1433"/>
      <point x="341" y="1429" type="curve"/>
      <point x="227" y="1093"/>
      <point x="-6" y="403"/>
      <point x="-6" y="169" type="curve" smooth="yes"/>
      <point x="-6" y="34"/>
      <point x="85" y="-43"/>
      <point x="256" y="-43" type="curve" smooth="yes"/>
      <point x="391" y="-43"/>
      <point x="513" y="-1"/>
    </contour>
  </outline>
</glyph>
<glyph name="o" format="2">
  <advance width="1170"/>
  <unicode hex="006F"/>
  <anchor x="434" y="0" name="bottom"/>
  <anchor x="576" y="532" name="center"/>
  <anchor x="620" y="0" name="ogonek"/>
  <anchor x="718" y="1063" name="top"/>
  <anchor x="973" y="941" name="topright"/>
  <outline>
    <contour>
      <point x="487" y="-17" type="curve" smooth="yes"/>
      <point x="878" y="-17"/>
      <point x="1119" y="243"/>
      <point x="1119" y="648" type="curve" smooth="yes"/>
      <point x="1119" y="897"/>
      <point x="1001" y="1058"/>
      <point x="711" y="1058" type="curve" smooth="yes"/>
      <point x="313" y="1058"/>
      <point x="38" y="788"/>
      <point x="38" y="375" type="curve" smooth="yes"/>
      <point x="38" y="126"/>
      <point x="186" y="-17"/>
    </contour>
    <contour>
      <point x="541" y="342" type="curve" smooth="yes"/>
      <point x="462" y="342"/>
      <point x="425" y="404"/>
      <point x="425" y="490" type="curve" smooth="yes"/>
      <point x="425" y="634"/>
      <point x="508" y="773"/>
      <point x="646" y="773" type="curve" smooth="yes"/>
      <point x="735" y="773"/>
      <point x="768" y="699"/>
      <point x="768" y="614" type="curve" smooth="yes"/>
      <point x="768" y="467"/>
      <point x="692" y="342"/>
    </contour>
  </outline>
</glyph>
<glyph name="p" format="2">
  <advance width="1229"/>
  <unicode hex="0070"/>
  <anchor x="457.585" y="0" name="bottom"/>
  <anchor x="742.415" y="1063" name="top"/>
  <outline>
    <contour>
      <point x="-226" y="-455" type="curve"/>
      <point x="-148" y="-455"/>
      <point x="21" y="-448"/>
      <point x="160" y="-422" type="curve"/>
      <point x="201" y="-306"/>
      <point x="320" y="67"/>
      <point x="343" y="154" type="curve"/>
      <point x="363" y="109"/>
      <point x="487" y="53"/>
      <point x="601" y="53" type="curve" smooth="yes"/>
      <point x="971" y="53"/>
      <point x="1211" y="337"/>
      <point x="1211" y="692" type="curve" smooth="yes"/>
      <point x="1211" y="911"/>
      <point x="1127" y="1068"/>
      <point x="899" y="1068" type="curve" smooth="yes"/>
      <point x="712" y="1068"/>
      <point x="604" y="960"/>
      <point x="560" y="912" type="curve"/>
      <point x="573" y="960"/>
      <point x="584" y="1018"/>
      <point x="592" y="1068" type="curve"/>
      <point x="467" y="1068"/>
      <point x="323" y="1055"/>
      <point x="211" y="1022" type="curve"/>
      <point x="173" y="880"/>
      <point x="-41" y="118"/>
    </contour>
    <contour>
      <point x="623" y="439" type="curve" smooth="yes"/>
      <point x="511" y="439"/>
      <point x="477" y="485"/>
      <point x="455" y="519" type="curve"/>
      <point x="464" y="545"/>
      <point x="488" y="629"/>
      <point x="496" y="659" type="curve"/>
      <point x="544" y="704"/>
      <point x="611" y="750"/>
      <point x="716" y="750" type="curve" smooth="yes"/>
      <point x="813" y="750"/>
      <point x="836" y="705"/>
      <point x="836" y="634" type="curve" smooth="yes"/>
      <point x="836" y="504"/>
      <point x="750" y="439"/>
    </contour>
  </outline>
</glyph>
<glyph name="q" format="2">
  <advance width="1207"/>
  <unicode hex="0071"/>
  <anchor x="461.585" y="0" name="bottom"/>
  <anchor x="746.415" y="1063" name="top"/>
  <outline>
    <contour>
      <point x="874" y="-462" type="curve"/>
      <point x="892" y="-342"/>
      <point x="933" y="-97"/>
      <point x="995" y="136" type="curve" smooth="yes"/>
      <point x="1072" y="426"/>
      <point x="1187" y="782"/>
      <point x="1292" y="1043" type="curve"/>
      <point x="1173" y="1075"/>
      <point x="1069" y="1089"/>
      <point x="954" y="1089" type="curve"/>
      <point x="944" y="1067"/>
      <point x="909" y="987"/>
      <point x="897" y="942" type="curve"/>
      <point x="820" y="1032"/>
      <point x="726" y="1084"/>
      <point x="576" y="1084" type="curve" smooth="yes"/>
      <point x="236" y="1084"/>
      <point x="54" y="789"/>
      <point x="54" y="407" type="curve" smooth="yes"/>
      <point x="54" y="172"/>
      <point x="154" y="-3"/>
      <point x="396" y="-3" type="curve" smooth="yes"/>
      <point x="519" y="-3"/>
      <point x="603" y="42"/>
      <point x="634" y="79" type="curve"/>
      <point x="583" y="-111"/>
      <point x="547" y="-270"/>
      <point x="520" y="-445" type="curve"/>
      <point x="600" y="-453"/>
      <point x="716" y="-462"/>
    </contour>
    <contour>
      <point x="546" y="390" type="curve" smooth="yes"/>
      <point x="466" y="390"/>
      <point x="425" y="433"/>
      <point x="425" y="505" type="curve" smooth="yes"/>
      <point x="425" y="615"/>
      <point x="498" y="722"/>
      <point x="612" y="722" type="curve" smooth="yes"/>
      <point x="699" y="722"/>
      <point x="768" y="661"/>
      <point x="793" y="638" type="curve"/>
      <point x="771" y="571"/>
      <point x="748" y="499"/>
      <point x="728" y="431" type="curve"/>
      <point x="690" y="413"/>
      <point x="615" y="390"/>
    </contour>
  </outline>
</glyph>
<glyph name="u" format="2">
  <advance width="1178"/>
  <unicode hex="0075"/>
  <anchor x="437" y="0" name="bottom"/>
  <anchor x="698" y="0" name="ogonek"/>
  <anchor x="721" y="1063" name="top"/>
  <anchor x="1137" y="902" name="topright"/>
  <outline>
    <contour>
      <point x="813" y="964" type="curve"/>
      <point x="813" y="888"/>
      <point x="795" y="790"/>
      <point x="763" y="676" type="curve" smooth="yes"/>
      <point x="712" y="495"/>
      <point x="642" y="304"/>
      <point x="534" y="304" type="curve" smooth="yes"/>
      <point x="479" y="304"/>
      <point x="460" y="352"/>
      <point x="460" y="425" type="curve" smooth="yes"/>
      <point x="460" y="566"/>
      <point x="533" y="807"/>
      <point x="601" y="995" type="curve"/>
      <point x="557" y="1009"/>
      <point x="465" y="1018"/>
      <point x="381" y="1018" type="curve" smooth="yes"/>
      <point x="323" y="1018"/>
      <point x="243" y="1014"/>
      <point x="198" y="1010" type="curve"/>
      <point x="121" y="779"/>
      <point x="55" y="537"/>
      <point x="55" y="343" type="curve" smooth="yes"/>
      <point x="55" y="95"/>
      <point x="160" y="-64"/>
      <point x="443" y="-64" type="curve" smooth="yes"/>
      <point x="841" y="-64"/>
      <point x="1047" y="278"/>
      <point x="1159" y="696" type="curve" smooth="yes"/>
      <point x="1183" y="787"/>
      <point x="1201" y="880"/>
      <point x="1213" y="973" type="curve"/>
      <point x="1167" y="981"/>
      <point x="1085" y="987"/>
      <point x="1024" y="987" type="curve" smooth="yes"/>
      <point x="950" y="987"/>
      <point x="859" y="978"/>
    </contour>
  </outline>
</glyph>
<glyph name="v" format="2">
  <advance width="1007"/>
  <unicode hex="0076"/>
  <anchor x="361.585" y="0" name="bottom"/>
  <anchor x="646.415" y="1063" name="top"/>
  <outline>
    <contour>
      <point x="770" y="1091" type="curve"/>
      <point x="646" y="778"/>
      <point x="582" y="651"/>
      <point x="496" y="487" type="curve"/>
      <point x="489" y="587"/>
      <point x="476" y="915"/>
      <point x="476" y="1092" type="curve"/>
      <point x="386" y="1067"/>
      <point x="172" y="1017"/>
      <point x="129" y="1012" type="curve"/>
      <point x="142" y="667"/>
      <point x="177" y="311"/>
      <point x="234" y="36" type="curve"/>
      <point x="274" y="31"/>
      <point x="334" y="25"/>
      <point x="396" y="25" type="curve" smooth="yes"/>
      <point x="454" y="25"/>
      <point x="513" y="29"/>
      <point x="557" y="36" type="curve"/>
      <point x="767" y="337"/>
      <point x="969" y="709"/>
      <point x="1109" y="1005" type="curve"/>
      <point x="1088" y="1012"/>
      <point x="937" y="1061"/>
    </contour>
  </outline>
</glyph>
<glyph name="bar" format="2">
  <advance width="487"/>
  <unicode hex="007C"/>
  <outline>
    <contour>
      <point x="129" y="-554" type="curve"/>
      <point x="213" y="-370"/>
      <point x="316" y="-32"/>
      <point x="415" y="335" type="curve" smooth="yes"/>
      <point x="530" y="762"/>
      <point x="639" y="1236"/>
      <point x="698" y="1540" type="curve"/>
      <point x="600" y="1540"/>
      <point x="404" y="1531"/>
      <point x="347" y="1528" type="curve"/>
      <point x="203" y="1048"/>
      <point x="83" y="620"/>
      <point x="-12" y="266" type="curve" smooth="yes"/>
      <point x="-103" y="-72"/>
      <point x="-170" y="-343"/>
      <point x="-216" y="-530" type="curve"/>
      <point x="-111" y="-552"/>
      <point x="28" y="-554"/>
    </contour>
  </outline>
</glyph>
<glyph name="cent" format="2">
  <advance width="1026"/>
  <unicode hex="00A2"/>
  <anchor x="403" y="101" name="bottom"/>
  <anchor x="655.415" y="1164.0" name="top"/>
  <outline>
    <contour>
      <point x="796" y="1308"/>
      <point x="741" y="1308" type="curve"/>
      <point x="618" y="985"/>
      <point x="349" y="375"/>
      <point x="162" y="29" type="curve"/>
      <point x="209" y="2"/>
      <point x="277" y="-12"/>
      <point x="350" y="-12" type="curve"/>
      <point x="480" y="212"/>
      <point x="712" y="732"/>
      <point x="903" y="1284" type="curve"/>
      <point x="884" y="1296"/>
    </contour>
    <component base="c" yOffset="101"/>
  </outline>
</glyph>
<glyph name="sterling" format="2">
  <advance width="1140"/>
  <unicode hex="00A3"/>
  <outline>
    <contour>
      <point x="178" y="485" type="curve" smooth="yes"/>
      <point x="357" y="485"/>
      <point x="719" y="502"/>
      <point x="813" y="528" type="curve"/>
      <point x="824" y="569"/>
      <point x="867" y="752"/>
      <point x="873" y="785" type="curve"/>
      <point x="783" y="767"/>
      <point x="458" y="755"/>
      <point x="278" y="755" type="curve" smooth="yes"/>
      <point x="217" y="755"/>
      <point x="165" y="756"/>
      <point x="130" y="759" type="curve"/>
      <point x="48" y="491" type="line"/>
      <point x="71" y="487"/>
      <point x="119" y="485"/>
    </contour>
    <component base="sterlira"/>
  </outline>
</glyph>
<glyph name="currency" format="2">
  <advance width="974"/>
  <unicode hex="00A4"/>
  <outline>
    <contour>
      <point x="70" y="32" type="curve"/>
      <point x="128" y="82"/>
      <point x="340" y="287"/>
      <point x="393" y="330" type="curve"/>
      <point x="221" y="468" type="line"/>
      <point x="133" y="402"/>
      <point x="-7" y="292"/>
      <point x="-91" y="224" type="curve"/>
      <point x="-77" y="202"/>
      <point x="58" y="53"/>
    </contour>
    <contour>
      <point x="661" y="46" type="curve"/>
      <point x="707" y="78"/>
      <point x="871" y="218"/>
      <point x="909" y="249" type="curve"/>
      <point x="870" y="292"/>
      <point x="795" y="407"/>
      <point x="742" y="470" type="curve"/>
      <point x="508" y="309" type="line"/>
      <point x="537" y="279"/>
      <point x="615" y="112"/>
    </contour>
    <contour>
      <point x="246" y="636" type="curve"/>
      <point x="470" y="821" type="line"/>
      <point x="438" y="892"/>
      <point x="361" y="1014"/>
      <point x="318" y="1063" type="curve"/>
      <point x="270" y="1033"/>
      <point x="97" y="899"/>
      <point x="70" y="867" type="curve"/>
      <point x="116" y="802"/>
      <point x="191" y="699"/>
    </contour>
    <contour>
      <point x="779" y="636" type="line"/>
      <point x="877" y="709"/>
      <point x="963" y="797"/>
      <point x="1057" y="872" type="curve"/>
      <point x="1043" y="894"/>
      <point x="937" y="1046"/>
      <point x="923" y="1067" type="curve"/>
      <point x="829" y="988"/>
      <point x="712" y="887"/>
      <point x="634" y="815" type="curve"/>
    </contour>
    <component base="degree" xOffset="-126" yOffset="-656"/>
  </outline>
</glyph>
<glyph name="yen" format="2">
  <advance width="1065"/>
  <unicode hex="00A5"/>
  <anchor x="411" y="0" name="bottom"/>
  <anchor x="757" y="1291" name="top"/>
  <anchor x="244" y="1291" name="topleft"/>
  <outline>
    <contour>
      <point x="126" y="508" type="curve"/>
      <point x="215" y="510"/>
      <point x="907" y="519"/>
      <point x="1001" y="519" type="curve"/>
      <point x="1019" y="587"/>
      <point x="1033" y="685"/>
      <point x="1043" y="766" type="curve"/>
      <point x="955" y="776"/>
      <point x="823" y="781"/>
      <point x="676" y="781" type="curve" smooth="yes"/>
      <point x="526" y="781"/>
      <point x="362" y="776"/>
      <point x="219" y="765" type="curve"/>
      <point x="203" y="729"/>
      <point x="151" y="603"/>
    </contour>
    <contour>
      <point x="919" y="193" type="curve"/>
      <point x="943" y="281"/>
      <point x="956" y="397"/>
      <point x="956" y="431" type="curve"/>
      <point x="854" y="440"/>
      <point x="701" y="446"/>
      <point x="548" y="446" type="curve" smooth="yes"/>
      <point x="381" y="446"/>
      <point x="213" y="439"/>
      <point x="115" y="431" type="curve"/>
      <point x="83" y="357"/>
      <point x="55" y="290"/>
      <point x="33" y="208" type="curve"/>
      <point x="127" y="208"/>
      <point x="803" y="196"/>
    </contour>
    <component base="Y"/>
  </outline>
</glyph>
<glyph name="brokenbar" format="2">
  <advance width="432"/>
  <unicode hex="00A6"/>
  <outline>
    <contour>
      <point x="78" y="294"/>
      <point x="-23" y="284" type="curve"/>
      <point x="-61" y="144"/>
      <point x="-140" y="-259"/>
      <point x="-164" y="-418" type="curve"/>
      <point x="-80" y="-418"/>
      <point x="96" y="-410"/>
      <point x="151" y="-389" type="curve"/>
      <point x="179" y="-254"/>
      <point x="300" y="214"/>
      <point x="322" y="297" type="curve"/>
      <point x="223" y="297"/>
    </contour>
    <contour>
      <point x="131" y="821" type="curve"/>
      <point x="155" y="817"/>
      <point x="321" y="805"/>
      <point x="468" y="805" type="curve"/>
      <point x="496" y="922"/>
      <point x="605" y="1334"/>
      <point x="641" y="1469" type="curve"/>
      <point x="593" y="1498"/>
      <point x="422" y="1502"/>
      <point x="335" y="1502" type="curve"/>
      <point x="303" y="1401"/>
      <point x="193" y="1053"/>
    </contour>
  </outline>
</glyph>
<glyph name="ordfeminine" format="2">
  <advance width="750"/>
  <unicode hex="00AA"/>
  <outline>
    <contour>
      <point x="517" y="732" type="curve"/>
      <point x="551" y="726"/>
      <point x="625" y="724"/>
      <point x="676" y="724" type="curve" smooth="yes"/>
      <point x="695" y="724"/>
      <point x="736" y="724"/>
      <point x="743" y="725" type="curve"/>
      <point x="797" y="845"/>
      <point x="870" y="1059"/>
      <point x="870" y="1194" type="curve" smooth="yes"/>
      <point x="870" y="1347"/>
      <point x="789" y="1433"/>
      <point x="588" y="1433" type="curve" smooth="yes"/>
      <point x="457" y="1433"/>
      <point x="349" y="1402"/>
      <point x="258" y="1352" type="curve"/>
      <point x="359" y="1176" type="line"/>
      <point x="391" y="1189"/>
      <point x="473" y="1207"/>
      <point x="530" y="1207" type="curve" smooth="yes"/>
      <point x="593" y="1207"/>
      <point x="637" y="1194"/>
      <point x="637" y="1149" type="curve" smooth="yes"/>
      <point x="637" y="1144"/>
      <point x="636" y="1139"/>
      <point x="635" y="1134" type="curve"/>
      <point x="627" y="1151"/>
      <point x="562" y="1163"/>
      <point x="515" y="1163" type="curve" smooth="yes"/>
      <point x="357" y="1163"/>
      <point x="158" y="1103"/>
      <point x="158" y="932" type="curve" smooth="yes"/>
      <point x="158" y="795"/>
      <point x="222" y="729"/>
      <point x="374" y="729" type="curve" smooth="yes"/>
      <point x="442" y="729"/>
      <point x="497" y="751"/>
      <point x="536" y="780" type="curve"/>
      <point x="530" y="761"/>
      <point x="520" y="737"/>
    </contour>
    <contour>
      <point x="501" y="931" type="curve" smooth="yes"/>
      <point x="460" y="931"/>
      <point x="441" y="939"/>
      <point x="441" y="956" type="curve" smooth="yes"/>
      <point x="441" y="989"/>
      <point x="488" y="997"/>
      <point x="528" y="997" type="curve" smooth="yes"/>
      <point x="556" y="997"/>
      <point x="584" y="993"/>
      <point x="594" y="987" type="curve"/>
      <point x="594" y="982"/>
      <point x="591" y="965"/>
      <point x="589" y="961" type="curve" smooth="yes"/>
      <point x="588" y="959"/>
      <point x="586" y="953"/>
      <point x="586" y="950" type="curve"/>
      <point x="567" y="941"/>
      <point x="538" y="931"/>
    </contour>
  </outline>
</glyph>
<glyph name="guillemetleft" format="2">
  <advance width="1214"/>
  <unicode hex="00AB"/>
  <outline>
    <contour>
      <point x="1253" y="1135" type="curve"/>
      <point x="1027" y="971"/>
      <point x="793" y="779"/>
      <point x="552" y="569" type="curve"/>
      <point x="973" y="120" type="line"/>
      <point x="976" y="120"/>
      <point x="1121" y="403"/>
      <point x="1128" y="477" type="curve"/>
      <point x="1089" y="517"/>
      <point x="993" y="572"/>
      <point x="932" y="602" type="curve"/>
      <point x="1333" y="899" type="line"/>
      <point x="1333" y="928"/>
      <point x="1327" y="1074"/>
    </contour>
    <contour>
      <point x="759" y="1121" type="curve"/>
      <point x="515" y="923"/>
      <point x="292" y="728"/>
      <point x="87" y="535" type="curve"/>
      <point x="214" y="335"/>
      <point x="381" y="154"/>
      <point x="552" y="0" type="curve"/>
      <point x="557" y="5"/>
      <point x="680" y="198"/>
      <point x="725" y="272" type="curve"/>
      <point x="702" y="284"/>
      <point x="565" y="444"/>
      <point x="467" y="561" type="curve"/>
      <point x="874" y="938" type="line"/>
      <point x="873" y="961"/>
      <point x="826" y="1055"/>
    </contour>
  </outline>
</glyph>
<glyph name="softhyphen" format="2">
  <advance width="821"/>
  <unicode hex="00AD"/>
  <outline>
    <contour>
      <point x="860" y="844" type="curve"/>
      <point x="772" y="858"/>
      <point x="665" y="863"/>
      <point x="529" y="863" type="curve" smooth="yes"/>
      <point x="417" y="863"/>
      <point x="259" y="851"/>
      <point x="128" y="833" type="curve"/>
      <point x="106" y="785"/>
      <point x="33" y="572"/>
      <point x="9" y="479" type="curve"/>
      <point x="186" y="491"/>
      <point x="711" y="509"/>
      <point x="788" y="509" type="curve"/>
      <point x="812" y="601"/>
      <point x="848" y="740"/>
    </contour>
  </outline>
</glyph>
<glyph name="paragraph" format="2">
  <advance width="1210"/>
  <unicode hex="00B6"/>
  <outline>
    <contour>
      <point x="873" y="-371" type="curve"/>
      <point x="986" y="-101"/>
      <point x="1108" y="280"/>
      <point x="1196" y="608" type="curve" smooth="yes"/>
      <point x="1256" y="831"/>
      <point x="1299" y="1029"/>
      <point x="1314" y="1153" type="curve"/>
      <point x="1220" y="1243"/>
      <point x="919" y="1314"/>
      <point x="728" y="1314" type="curve" smooth="yes"/>
      <point x="359" y="1314"/>
      <point x="74" y="1046"/>
      <point x="74" y="686" type="curve" smooth="yes"/>
      <point x="74" y="528"/>
      <point x="147" y="392"/>
      <point x="295" y="392" type="curve" smooth="yes"/>
      <point x="321" y="392"/>
      <point x="348" y="398"/>
      <point x="375" y="409" type="curve"/>
      <point x="351" y="336"/>
      <point x="206" y="-108"/>
      <point x="147" y="-299" type="curve"/>
      <point x="176" y="-301"/>
      <point x="401" y="-309"/>
      <point x="479" y="-309" type="curve"/>
      <point x="485" y="-288"/>
      <point x="709" y="454"/>
      <point x="875" y="969" type="curve"/>
      <point x="917" y="963"/>
      <point x="966" y="948"/>
      <point x="983" y="939" type="curve"/>
      <point x="966" y="847"/>
      <point x="943" y="746"/>
      <point x="915" y="642" type="curve" smooth="yes"/>
      <point x="828" y="320"/>
      <point x="671" y="-151"/>
      <point x="587" y="-338" type="curve"/>
      <point x="618" y="-343"/>
      <point x="800" y="-371"/>
    </contour>
  </outline>
</glyph>
<glyph name="onesuperior" format="2">
  <advance width="574"/>
  <unicode hex="00B9"/>
  <outline>
    <contour>
      <point x="461" y="749" type="curve"/>
      <point x="502" y="865"/>
      <point x="536" y="983"/>
      <point x="559" y="1067" type="curve" smooth="yes"/>
      <point x="587" y="1171"/>
      <point x="596" y="1221"/>
      <point x="601" y="1264" type="curve"/>
      <point x="554" y="1273"/>
      <point x="441" y="1278"/>
      <point x="390" y="1278" type="curve"/>
      <point x="338" y="1245"/>
      <point x="216" y="1160"/>
      <point x="170" y="1120" type="curve"/>
      <point x="177" y="1072"/>
      <point x="195" y="1005"/>
      <point x="215" y="952" type="curve"/>
      <point x="225" y="958"/>
      <point x="268" y="981"/>
      <point x="292" y="992" type="curve"/>
      <point x="272" y="919"/>
      <point x="244" y="815"/>
      <point x="223" y="737" type="curve"/>
      <point x="199" y="734"/>
      <point x="152" y="727"/>
      <point x="123" y="720" type="curve"/>
      <point x="100" y="670"/>
      <point x="66" y="555"/>
      <point x="50" y="493" type="curve"/>
      <point x="97" y="498"/>
      <point x="395" y="505"/>
      <point x="464" y="505" type="curve"/>
      <point x="480" y="544"/>
      <point x="532" y="705"/>
      <point x="541" y="739" type="curve"/>
      <point x="520" y="745"/>
      <point x="486" y="749"/>
    </contour>
  </outline>
</glyph>
<glyph name="AE" format="2">
  <advance width="1771"/>
  <unicode hex="00C6"/>
  <anchor x="745" y="0" name="bottom"/>
  <anchor x="1155" y="1291" name="top"/>
  <outline>
    <contour>
      <point x="1490" y="-47" type="curve"/>
      <point x="1512" y="-10"/>
      <point x="1604" y="235"/>
      <point x="1640" y="368" type="curve"/>
      <point x="1592" y="372"/>
      <point x="1514" y="378"/>
      <point x="1432" y="378" type="curve" smooth="yes"/>
      <point x="1352" y="378"/>
      <point x="1273" y="378"/>
      <point x="1193" y="378" type="curve"/>
      <point x="1199" y="400"/>
      <point x="1222" y="478"/>
      <point x="1232" y="505" type="curve"/>
      <point x="1267" y="505"/>
      <point x="1554" y="491"/>
      <point x="1597" y="488" type="curve"/>
      <point x="1695" y="828" type="line"/>
      <point x="1608" y="826"/>
      <point x="1405" y="823"/>
      <point x="1326" y="823" type="curve"/>
      <point x="1331" y="842"/>
      <point x="1354" y="929"/>
      <point x="1362" y="946" type="curve"/>
      <point x="1793" y="977" type="line"/>
      <point x="1834" y="1091"/>
      <point x="1869" y="1194"/>
      <point x="1897" y="1298" type="curve"/>
      <point x="1826" y="1298"/>
      <point x="867" y="1232"/>
      <point x="716" y="1216" type="curve"/>
      <point x="437" y="874"/>
      <point x="6" y="251"/>
      <point x="-152" y="-4" type="curve"/>
      <point x="-51" y="-9"/>
      <point x="224" y="-16"/>
      <point x="297" y="-16" type="curve"/>
      <point x="340" y="51"/>
      <point x="417" y="164"/>
      <point x="489" y="269" type="curve"/>
      <point x="531" y="277"/>
      <point x="715" y="283"/>
      <point x="820" y="285" type="curve"/>
      <point x="790" y="175"/>
      <point x="760" y="73"/>
      <point x="730" y="-16" type="curve"/>
      <point x="916" y="-16"/>
      <point x="1284" y="-33"/>
    </contour>
    <contour>
      <point x="687" y="594" type="curve"/>
      <point x="717" y="642"/>
      <point x="851" y="847"/>
      <point x="909" y="926" type="curve"/>
      <point x="926" y="928"/>
      <point x="984" y="932"/>
      <point x="1009" y="932" type="curve"/>
      <point x="997" y="908"/>
      <point x="913" y="654"/>
      <point x="900" y="605" type="curve"/>
      <point x="861" y="605"/>
      <point x="716" y="598"/>
    </contour>
  </outline>
</glyph>
<glyph name="multiply" format="2">
  <advance width="1041"/>
  <unicode hex="00D7"/>
  <outline>
    <contour>
      <point x="1113" y="897" type="curve"/>
      <point x="1100" y="921"/>
      <point x="939" y="1133"/>
      <point x="914" y="1159" type="curve"/>
      <point x="775" y="1031"/>
      <point x="211" y="574"/>
      <point x="42" y="470" type="curve"/>
      <point x="61" y="443"/>
      <point x="198" y="265"/>
      <point x="231" y="238" type="curve"/>
      <point x="500" y="393"/>
      <point x="997" y="778"/>
    </contour>
    <contour>
      <point x="452" y="1138" type="curve"/>
      <point x="419" y="1119"/>
      <point x="167" y="893"/>
      <point x="133" y="852" type="curve"/>
      <point x="233" y="768"/>
      <point x="590" y="407"/>
      <point x="707" y="231" type="curve"/>
      <point x="752" y="258"/>
      <point x="950" y="421"/>
      <point x="991" y="468" type="curve"/>
      <point x="845" y="699"/>
      <point x="571" y="1020"/>
    </contour>
  </outline>
</glyph>
<glyph name="eth" format="2">
  <advance width="1200"/>
  <unicode hex="00F0"/>
  <outline>
    <contour>
      <point x="479" y="-17" type="curve" smooth="yes"/>
      <point x="888" y="-17"/>
      <point x="1142" y="297"/>
      <point x="1142" y="724" type="curve" smooth="yes"/>
      <point x="1142" y="950"/>
      <point x="1054" y="1088"/>
      <point x="858" y="1188" type="curve"/>
      <point x="894" y="1229"/>
      <point x="920" y="1271"/>
      <point x="949" y="1321" type="curve"/>
      <point x="702" y="1412" type="line"/>
      <point x="672" y="1366"/>
      <point x="649" y="1333"/>
      <point x="617" y="1292" type="curve"/>
      <point x="586" y="1304"/>
      <point x="505" y="1325"/>
      <point x="448" y="1330" type="curve"/>
      <point x="231" y="1075" type="line"/>
      <point x="292" y="1063"/>
      <point x="352" y="1048"/>
      <point x="395" y="1032" type="curve"/>
      <point x="370" y="1005"/>
      <point x="340" y="977"/>
      <point x="303" y="949" type="curve"/>
      <point x="349" y="926"/>
      <point x="446" y="877"/>
      <point x="516" y="836" type="curve"/>
      <point x="560" y="871"/>
      <point x="608" y="910"/>
      <point x="650" y="950" type="curve"/>
      <point x="676" y="938"/>
      <point x="748" y="874"/>
      <point x="775" y="826" type="curve"/>
      <point x="761" y="832"/>
      <point x="727" y="839"/>
      <point x="695" y="839" type="curve" smooth="yes"/>
      <point x="364" y="839"/>
      <point x="55" y="651"/>
      <point x="55" y="321" type="curve" smooth="yes"/>
      <point x="55" y="88"/>
      <point x="222" y="-17"/>
    </contour>
    <contour>
      <point x="545" y="297" type="curve" smooth="yes"/>
      <point x="482" y="297"/>
      <point x="400" y="329"/>
      <point x="400" y="396" type="curve" smooth="yes"/>
      <point x="400" y="503"/>
      <point x="519" y="563"/>
      <point x="640" y="563" type="curve" smooth="yes"/>
      <point x="724" y="563"/>
      <point x="763" y="529"/>
      <point x="763" y="469" type="curve" smooth="yes"/>
      <point x="763" y="354"/>
      <point x="651" y="297"/>
    </contour>
  </outline>
</glyph>
<glyph name="divide" format="2">
  <advance width="916"/>
  <unicode hex="00F7"/>
  <outline>
    <contour>
      <point x="572" y="817" type="curve" smooth="yes"/>
      <point x="714" y="817"/>
      <point x="835" y="911"/>
      <point x="835" y="1060" type="curve" smooth="yes"/>
      <point x="835" y="1183"/>
      <point x="773" y="1268"/>
      <point x="651" y="1268" type="curve" smooth="yes"/>
      <point x="499" y="1268"/>
      <point x="365" y="1155"/>
      <point x="365" y="1007" type="curve" smooth="yes"/>
      <point x="365" y="899"/>
      <point x="454" y="817"/>
    </contour>
    <contour>
      <point x="366" y="19" type="curve" smooth="yes"/>
      <point x="514" y="19"/>
      <point x="633" y="110"/>
      <point x="633" y="265" type="curve" smooth="yes"/>
      <point x="633" y="382"/>
      <point x="572" y="465"/>
      <point x="453" y="465" type="curve" smooth="yes"/>
      <point x="313" y="465"/>
      <point x="180" y="356"/>
      <point x="180" y="223" type="curve" smooth="yes"/>
      <point x="180" y="120"/>
      <point x="237" y="19"/>
    </contour>
    <contour>
      <point x="74" y="516" type="curve"/>
      <point x="190" y="519"/>
      <point x="764" y="525"/>
      <point x="872" y="525" type="curve"/>
      <point x="891" y="596"/>
      <point x="904" y="694"/>
      <point x="910" y="747" type="curve"/>
      <point x="821" y="758"/>
      <point x="692" y="763"/>
      <point x="555" y="763" type="curve" smooth="yes"/>
      <point x="420" y="763"/>
      <point x="278" y="758"/>
      <point x="156" y="747" type="curve"/>
      <point x="140" y="715"/>
      <point x="101" y="603"/>
    </contour>
  </outline>
</glyph>
<glyph name="Aogonek" format="2">
  <advance width="1212"/>
  <unicode hex="0104"/>
  <anchor x="495" y="0" name="bottom"/>
  <anchor x="867" y="5" name="ogonek"/>
  <anchor x="903" y="1337" name="top"/>
  <outline>
    <contour>
      <point x="975" y="-247" type="line"/>
      <point x="936" y="-275"/>
      <point x="891" y="-284"/>
      <point x="848" y="-284" type="curve" smooth="yes"/>
      <point x="795" y="-284"/>
      <point x="741" y="-260"/>
      <point x="741" y="-188" type="curve" smooth="yes"/>
      <point x="741" y="-108"/>
      <point x="816" y="-24"/>
      <point x="861" y="7" type="curve"/>
      <point x="725" y="65" type="line"/>
      <point x="660" y="50"/>
      <point x="478" y="-103"/>
      <point x="478" y="-277" type="curve" smooth="yes"/>
      <point x="478" y="-444"/>
      <point x="622" y="-529"/>
      <point x="780" y="-529" type="curve" smooth="yes"/>
      <point x="884" y="-529"/>
      <point x="946" y="-516"/>
      <point x="975" y="-504" type="curve"/>
    </contour>
    <component base="A"/>
  </outline>
</glyph>
<glyph name="iogonek" format="2">
  <advance width="581"/>
  <unicode hex="012F"/>
  <anchor x="99" y="0" name="bottom"/>
  <anchor x="297" y="-3" name="ogonek"/>
  <anchor x="551" y="1400" name="top"/>
  <outline>
    <contour>
      <point x="331" y="-250" type="line"/>
      <point x="292" y="-278"/>
      <point x="247" y="-287"/>
      <point x="204" y="-287" type="curve" smooth="yes"/>
      <point x="151" y="-287"/>
      <point x="97" y="-263"/>
      <point x="97" y="-191" type="curve" smooth="yes"/>
      <point x="97" y="-112"/>
      <point x="172" y="-28"/>
      <point x="217" y="4" type="curve"/>
      <point x="81" y="62" type="line"/>
      <point x="16" y="43"/>
      <point x="-166" y="-108"/>
      <point x="-166" y="-280" type="curve" smooth="yes"/>
      <point x="-166" y="-447"/>
      <point x="-22" y="-532"/>
      <point x="136" y="-532" type="curve" smooth="yes"/>
      <point x="240" y="-532"/>
      <point x="302" y="-519"/>
      <point x="331" y="-507" type="curve"/>
    </contour>
    <component base="idotless"/>
    <component base="dotaccentcomb" xOffset="92" yOffset="-88"/>
  </outline>
</glyph>
<glyph name="idotless" format="2">
  <advance width="581"/>
  <unicode hex="0131"/>
  <anchor x="99" y="0" name="bottom"/>
  <anchor x="297" y="-3" name="ogonek"/>
  <anchor x="435" y="975" name="top"/>
  <outline>
    <contour>
      <point x="297" y="-3" type="curve"/>
      <point x="364" y="120"/>
      <point x="572" y="779"/>
      <point x="588" y="920" type="curve"/>
      <point x="509" y="920"/>
      <point x="326" y="920"/>
      <point x="235" y="896" type="curve"/>
      <point x="167" y="689"/>
      <point x="-47" y="110"/>
      <point x="-91" y="21" type="curve"/>
      <point x="54" y="7"/>
      <point x="195" y="-3"/>
    </contour>
  </outline>
</glyph>
<glyph name="kgreenlandic" format="2">
  <advance width="1156"/>
  <unicode hex="0138"/>
  <anchor x="435.585" y="0" name="bottom"/>
  <anchor x="715" y="1063" name="top"/>
  <outline>
    <contour>
      <point x="667" y="-57" type="curve"/>
      <point x="740" y="-40"/>
      <point x="1006" y="53"/>
      <point x="1064" y="84" type="curve"/>
      <point x="999" y="279"/>
      <point x="887" y="439"/>
      <point x="807" y="499" type="curve"/>
      <point x="883" y="545"/>
      <point x="1090" y="667"/>
      <point x="1226" y="744" type="curve"/>
      <point x="1202" y="819"/>
      <point x="1116" y="988"/>
      <point x="1060" y="1034" type="curve"/>
      <point x="887" y="942"/>
      <point x="663" y="820"/>
      <point x="535" y="700" type="curve"/>
      <point x="578" y="818"/>
      <point x="630" y="987"/>
      <point x="647" y="1073" type="curve"/>
      <point x="587" y="1093"/>
      <point x="514" y="1101"/>
      <point x="435" y="1101" type="curve" smooth="yes"/>
      <point x="382" y="1101"/>
      <point x="326" y="1097"/>
      <point x="269" y="1092" type="curve"/>
      <point x="223" y="920"/>
      <point x="-47" y="91"/>
      <point x="-81" y="-19" type="curve"/>
      <point x="-32" y="-25"/>
      <point x="39" y="-31"/>
      <point x="121" y="-31" type="curve" smooth="yes"/>
      <point x="179" y="-31"/>
      <point x="243" y="-28"/>
      <point x="308" y="-21" type="curve"/>
      <point x="328" y="36"/>
      <point x="360" y="131"/>
      <point x="393" y="246" type="curve"/>
      <point x="405" y="253"/>
      <point x="471" y="291"/>
      <point x="496" y="304" type="curve"/>
      <point x="575" y="268"/>
      <point x="656" y="27"/>
    </contour>
  </outline>
</glyph>
<glyph name="ldot" format="2">
  <advance width="741"/>
  <unicode hex="0140"/>
  <anchor x="165.585" y="0.0" name="bottom"/>
  <anchor x="362.528" y="735.0" name="center"/>
  <anchor x="559.47" y="1470.0" name="top"/>
  <anchor x="633" y="1038" name="topright"/>
  <outline>
    <contour>
      <point x="695" y="687" type="curve" smooth="yes"/>
      <point x="780" y="687"/>
      <point x="857" y="758"/>
      <point x="857" y="843" type="curve" smooth="yes"/>
      <point x="857" y="923"/>
      <point x="800" y="997"/>
      <point x="706" y="997" type="curve" smooth="yes"/>
      <point x="615" y="997"/>
      <point x="538" y="929"/>
      <point x="538" y="843" type="curve" smooth="yes"/>
      <point x="538" y="758"/>
      <point x="583" y="687"/>
    </contour>
    <component base="l"/>
  </outline>
</glyph>
<glyph name="Lslash" format="2">
  <advance width="1121"/>
  <unicode hex="0141"/>
  <anchor x="499.585" y="0.0" name="bottom"/>
  <anchor x="672.6800000000001" y="646.0" name="center"/>
  <anchor x="679" y="1300" name="top"/>
  <anchor x="862" y="911" name="topright"/>
  <outline>
    <contour>
      <point x="56" y="409" type="curve"/>
      <point x="295" y="460"/>
      <point x="597" y="568"/>
      <point x="1061" y="828" type="curve"/>
      <point x="1061" y="875"/>
      <point x="1055" y="1044"/>
      <point x="1044" y="1116" type="curve"/>
      <point x="840" y="1023"/>
      <point x="311" y="782"/>
      <point x="73" y="688" type="curve"/>
      <point x="73" y="628"/>
      <point x="60" y="456"/>
    </contour>
    <component base="L" xOffset="161"/>
  </outline>
</glyph>
<glyph name="lslash" format="2">
  <advance width="564"/>
  <unicode hex="0142"/>
  <anchor x="165.585" y="0.0" name="bottom"/>
  <anchor x="362.528" y="735.0" name="center"/>
  <anchor x="559.47" y="1470.0" name="top"/>
  <anchor x="633" y="1038" name="topright"/>
  <outline>
    <contour>
      <point x="679" y="908"/>
      <point x="665" y="932" type="curve"/>
      <point x="488" y="829"/>
      <point x="113" y="658"/>
      <point x="-147" y="581" type="curve"/>
      <point x="-147" y="568"/>
      <point x="-92" y="417"/>
      <point x="-84" y="400" type="curve"/>
      <point x="191" y="472"/>
      <point x="470" y="607"/>
      <point x="730" y="738" type="curve"/>
      <point x="723" y="763"/>
    </contour>
    <component base="l"/>
  </outline>
</glyph>
<glyph name="Eng" format="2">
  <advance width="1282"/>
  <unicode hex="014A"/>
  <anchor x="498.585" y="0.0" name="bottom"/>
  <anchor x="844.507" y="1291.0" name="top"/>
  <outline>
    <contour>
      <point x="511" y="-419" type="curve" smooth="yes"/>
      <point x="829" y="-419"/>
      <point x="977" y="-210"/>
      <point x="1074" y="91" type="curve"/>
      <point x="672" y="79" type="line"/>
      <point x="678" y="52"/>
      <point x="683" y="16"/>
      <point x="683" y="-15" type="curve" smooth="yes"/>
      <point x="683" y="-58"/>
      <point x="646" y="-83"/>
      <point x="598" y="-83" type="curve" smooth="yes"/>
      <point x="561" y="-83"/>
      <point x="523" y="-51"/>
      <point x="505" y="0" type="curve"/>
      <point x="352" y="-74"/>
      <point x="146" y="-178"/>
      <point x="129" y="-188" type="curve"/>
      <point x="171" y="-338"/>
      <point x="286" y="-419"/>
    </contour>
    <component base="N"/>
  </outline>
</glyph>
<glyph name="eng" format="2">
  <advance width="1330"/>
  <unicode hex="014B"/>
  <anchor x="522.585" y="0.0" name="bottom"/>
  <anchor x="807.415" y="1063.0" name="top"/>
  <outline>
    <contour>
      <point x="268" y="-321"/>
      <point x="344" y="-419"/>
      <point x="569" y="-419" type="curve" smooth="yes"/>
      <point x="822" y="-419"/>
      <point x="1009" y="-238"/>
      <point x="1106" y="12" type="curve"/>
      <point x="719" y="19" type="line"/>
      <point x="677" y="-61"/>
      <point x="642" y="-99"/>
      <point x="597" y="-99" type="curve" smooth="yes"/>
      <point x="556" y="-99"/>
      <point x="535" y="-75"/>
      <point x="528" y="-30" type="curve"/>
      <point x="453" y="-79"/>
      <point x="250" y="-220"/>
      <point x="229" y="-240" type="curve"/>
    </contour>
    <component base="n"/>
  </outline>
</glyph>
<glyph name="OE" format="2">
  <advance width="1803"/>
  <unicode hex="0152"/>
  <anchor x="813" y="0" name="bottom"/>
  <anchor x="1167" y="1291" name="top"/>
  <outline>
    <contour>
      <point x="526" y="-51" type="curve" smooth="yes"/>
      <point x="648" y="-51"/>
      <point x="830" y="13"/>
      <point x="886" y="71" type="curve"/>
      <point x="859" y="80" type="line"/>
      <point x="854" y="59"/>
      <point x="847" y="28"/>
      <point x="844" y="7" type="curve"/>
      <point x="901" y="7"/>
      <point x="1068" y="4"/>
      <point x="1167" y="-2" type="curve" smooth="yes"/>
      <point x="1288" y="-9"/>
      <point x="1491" y="-21"/>
      <point x="1527" y="-25" type="curve"/>
      <point x="1549" y="12"/>
      <point x="1642" y="257"/>
      <point x="1677" y="390" type="curve"/>
      <point x="1630" y="394"/>
      <point x="1551" y="400"/>
      <point x="1469" y="400" type="curve" smooth="yes"/>
      <point x="1406" y="400"/>
      <point x="1343" y="400"/>
      <point x="1280" y="400" type="curve"/>
      <point x="1286" y="422"/>
      <point x="1310" y="500"/>
      <point x="1319" y="527" type="curve"/>
      <point x="1354" y="527"/>
      <point x="1591" y="513"/>
      <point x="1635" y="510" type="curve"/>
      <point x="1733" y="850" type="line"/>
      <point x="1645" y="848"/>
      <point x="1492" y="845"/>
      <point x="1413" y="845" type="curve"/>
      <point x="1418" y="864"/>
      <point x="1442" y="951"/>
      <point x="1449" y="968" type="curve"/>
      <point x="1831" y="999" type="line"/>
      <point x="1871" y="1113"/>
      <point x="1907" y="1216"/>
      <point x="1935" y="1320" type="curve"/>
      <point x="1882" y="1320"/>
      <point x="1567" y="1318"/>
      <point x="1179" y="1249" type="curve"/>
      <point x="1170" y="1230"/>
      <point x="1156" y="1192"/>
      <point x="1148" y="1163" type="curve"/>
      <point x="1162" y="1163" type="line"/>
      <point x="1162" y="1250"/>
      <point x="1016" y="1320"/>
      <point x="874" y="1320" type="curve" smooth="yes"/>
      <point x="390" y="1320"/>
      <point x="44" y="922"/>
      <point x="44" y="419" type="curve" smooth="yes"/>
      <point x="44" y="141"/>
      <point x="170" y="-51"/>
    </contour>
    <contour>
      <point x="621" y="350" type="curve" smooth="yes"/>
      <point x="491" y="350"/>
      <point x="451" y="411"/>
      <point x="451" y="517" type="curve" smooth="yes"/>
      <point x="451" y="738"/>
      <point x="606" y="995"/>
      <point x="811" y="995" type="curve" smooth="yes"/>
      <point x="942" y="995"/>
      <point x="991" y="921"/>
      <point x="991" y="817" type="curve" smooth="yes"/>
      <point x="991" y="606"/>
      <point x="823" y="350"/>
    </contour>
  </outline>
</glyph>
<glyph name="Scedilla" format="2">
  <advance width="1152"/>
  <unicode hex="015E"/>
  <anchor x="463" y="0" name="bottom"/>
  <anchor x="730" y="1339" name="top"/>
  <outline>
    <contour>
      <point x="347" y="-537" type="curve" smooth="yes"/>
      <point x="581" y="-537"/>
      <point x="834" y="-453"/>
      <point x="834" y="-231" type="curve" smooth="yes"/>
      <point x="834" y="-124"/>
      <point x="770" y="-77"/>
      <point x="674" y="-77" type="curve" smooth="yes"/>
      <point x="604" y="-77"/>
      <point x="545" y="-105"/>
      <point x="517" y="-139" type="curve"/>
      <point x="562" y="39" type="line"/>
      <point x="342" y="27" type="line"/>
      <point x="251" y="-257" type="line"/>
      <point x="288" y="-244"/>
      <point x="372" y="-229"/>
      <point x="449" y="-229" type="curve" smooth="yes"/>
      <point x="514" y="-229"/>
      <point x="565" y="-239"/>
      <point x="565" y="-272" type="curve" smooth="yes"/>
      <point x="565" y="-315"/>
      <point x="496" y="-337"/>
      <point x="374" y="-337" type="curve" smooth="yes"/>
      <point x="341" y="-337"/>
      <point x="259" y="-325"/>
      <point x="231" y="-312" type="curve"/>
      <point x="142" y="-515" type="line"/>
      <point x="162" y="-520"/>
      <point x="242" y="-537"/>
    </contour>
    <component base="S"/>
  </outline>
</glyph>
<glyph name="scedilla" format="2">
  <advance width="988"/>
  <unicode hex="015F"/>
  <anchor x="337" y="-70" name="bottom"/>
  <anchor x="641" y="1124" name="top"/>
  <outline>
    <contour>
      <point x="223" y="-567" type="curve" smooth="yes"/>
      <point x="463" y="-567"/>
      <point x="722" y="-478"/>
      <point x="722" y="-252" type="curve" smooth="yes"/>
      <point x="722" y="-151"/>
      <point x="660" y="-107"/>
      <point x="567" y="-107" type="curve" smooth="yes"/>
      <point x="497" y="-107"/>
      <point x="437" y="-135"/>
      <point x="407" y="-169" type="curve"/>
      <point x="450" y="-51" type="line"/>
      <point x="229" y="-63" type="line"/>
      <point x="137" y="-287" type="line"/>
      <point x="175" y="-274"/>
      <point x="260" y="-259"/>
      <point x="337" y="-259" type="curve" smooth="yes"/>
      <point x="400" y="-259"/>
      <point x="450" y="-269"/>
      <point x="450" y="-301" type="curve" smooth="yes"/>
      <point x="450" y="-344"/>
      <point x="381" y="-367"/>
      <point x="258" y="-367" type="curve" smooth="yes"/>
      <point x="225" y="-367"/>
      <point x="143" y="-355"/>
      <point x="116" y="-342" type="curve"/>
      <point x="20" y="-545" type="line"/>
      <point x="39" y="-550"/>
      <point x="118" y="-567"/>
    </contour>
    <component base="s"/>
  </outline>
</glyph>
<glyph name="Tcedilla" format="2">
  <advance width="1039"/>
  <unicode hex="0162"/>
  <anchor x="393" y="0" name="bottom"/>
  <anchor x="551" y="646" name="center"/>
  <anchor x="723.507" y="1291.0" name="top"/>
  <outline>
    <contour>
      <point x="307" y="-537" type="curve" smooth="yes"/>
      <point x="541" y="-537"/>
      <point x="794" y="-453"/>
      <point x="794" y="-231" type="curve" smooth="yes"/>
      <point x="794" y="-124"/>
      <point x="730" y="-77"/>
      <point x="634" y="-77" type="curve" smooth="yes"/>
      <point x="564" y="-77"/>
      <point x="505" y="-105"/>
      <point x="477" y="-139" type="curve"/>
      <point x="522" y="39" type="line"/>
      <point x="302" y="27" type="line"/>
      <point x="211" y="-257" type="line"/>
      <point x="248" y="-244"/>
      <point x="332" y="-229"/>
      <point x="409" y="-229" type="curve" smooth="yes"/>
      <point x="474" y="-229"/>
      <point x="525" y="-239"/>
      <point x="525" y="-272" type="curve" smooth="yes"/>
      <point x="525" y="-315"/>
      <point x="456" y="-337"/>
      <point x="334" y="-337" type="curve" smooth="yes"/>
      <point x="301" y="-337"/>
      <point x="219" y="-325"/>
      <point x="191" y="-312" type="curve"/>
      <point x="102" y="-515" type="line"/>
      <point x="122" y="-520"/>
      <point x="202" y="-537"/>
    </contour>
    <component base="T"/>
  </outline>
</glyph>
<glyph name="Tbar" format="2">
  <advance width="1039"/>
  <unicode hex="0166"/>
  <anchor x="393" y="0" name="bottom"/>
  <anchor x="551" y="646" name="center"/>
  <anchor x="723.507" y="1291.0" name="top"/>
  <outline>
    <contour>
      <point x="905" y="514" type="curve"/>
      <point x="932" y="622"/>
      <point x="958" y="762"/>
      <point x="965" y="801" type="curve"/>
      <point x="832" y="801"/>
      <point x="333" y="791"/>
      <point x="205" y="741" type="curve"/>
      <point x="186" y="667"/>
      <point x="170" y="577"/>
      <point x="157" y="490" type="curve"/>
      <point x="368" y="507"/>
      <point x="790" y="514"/>
    </contour>
    <component base="T"/>
  </outline>
</glyph>
<glyph name="Uogonek" format="2">
  <advance width="1212"/>
  <unicode hex="0172"/>
  <anchor x="463.585" y="0.0" name="bottom"/>
  <anchor x="652" y="0" name="ogonek"/>
  <anchor x="835" y="1318" name="top"/>
  <anchor x="1261" y="1174" name="topright"/>
  <outline>
    <contour>
      <point x="860" y="-219" type="line"/>
      <point x="821" y="-247"/>
      <point x="776" y="-256"/>
      <point x="733" y="-256" type="curve" smooth="yes"/>
      <point x="680" y="-256"/>
      <point x="626" y="-232"/>
      <point x="626" y="-160" type="curve" smooth="yes"/>
      <point x="626" y="-80"/>
      <point x="701" y="4"/>
      <point x="746" y="35" type="curve"/>
      <point x="610" y="93" type="line"/>
      <point x="545" y="74"/>
      <point x="363" y="-77"/>
      <point x="363" y="-249" type="curve" smooth="yes"/>
      <point x="363" y="-416"/>
      <point x="507" y="-501"/>
      <point x="665" y="-501" type="curve" smooth="yes"/>
      <point x="769" y="-501"/>
      <point x="831" y="-488"/>
      <point x="860" y="-476" type="curve"/>
    </contour>
    <component base="U"/>
  </outline>
</glyph>
<glyph name="uogonek" format="2">
  <advance width="1178"/>
  <unicode hex="0173"/>
  <anchor x="437" y="0" name="bottom"/>
  <anchor x="698" y="0" name="ogonek"/>
  <anchor x="721" y="1063" name="top"/>
  <anchor x="1137" y="902" name="topright"/>
  <outline>
    <contour>
      <point x="936" y="-179" type="line"/>
      <point x="897" y="-207"/>
      <point x="852" y="-216"/>
      <point x="809" y="-216" type="curve" smooth="yes"/>
      <point x="756" y="-216"/>
      <point x="702" y="-192"/>
      <point x="702" y="-120" type="curve" smooth="yes"/>
      <point x="702" y="-40"/>
      <point x="777" y="44"/>
      <point x="822" y="75" type="curve"/>
      <point x="686" y="133" type="line"/>
      <point x="621" y="114"/>
      <point x="439" y="-37"/>
      <point x="439" y="-209" type="curve" smooth="yes"/>
      <point x="439" y="-376"/>
      <point x="583" y="-461"/>
      <point x="741" y="-461" type="curve" smooth="yes"/>
      <point x="845" y="-461"/>
      <point x="907" y="-448"/>
      <point x="936" y="-436" type="curve"/>
    </contour>
    <component base="u"/>
  </outline>
</glyph>
<glyph name="Schwa" format="2">
  <advance width="1280"/>
  <unicode hex="018F"/>
  <outline>
    <contour>
      <point x="195" y="1120" type="curve"/>
      <point x="235" y="1043"/>
      <point x="369" y="915"/>
      <point x="386" y="899" type="curve"/>
      <point x="523" y="991"/>
      <point x="668" y="1009"/>
      <point x="731" y="1009" type="curve" smooth="yes"/>
      <point x="879" y="1009"/>
      <point x="961" y="927"/>
      <point x="961" y="783" type="curve" smooth="yes"/>
      <point x="961" y="762"/>
      <point x="958" y="741"/>
      <point x="952" y="720" type="curve"/>
      <point x="889" y="714"/>
      <point x="667" y="700"/>
      <point x="536" y="692" type="curve" smooth="yes"/>
      <point x="420" y="685"/>
      <point x="132" y="665"/>
      <point x="89" y="662" type="curve"/>
      <point x="49" y="575"/>
      <point x="22" y="465"/>
      <point x="22" y="373" type="curve" smooth="yes"/>
      <point x="22" y="108"/>
      <point x="229" y="-26"/>
      <point x="477" y="-26" type="curve" smooth="yes"/>
      <point x="960" y="-26"/>
      <point x="1308" y="360"/>
      <point x="1308" y="846" type="curve" smooth="yes"/>
      <point x="1308" y="1169"/>
      <point x="1077" y="1329"/>
      <point x="819" y="1329" type="curve" smooth="yes"/>
      <point x="595" y="1329"/>
      <point x="349" y="1248"/>
    </contour>
    <contour>
      <point x="863" y="462" type="curve"/>
      <point x="832" y="355"/>
      <point x="670" y="278"/>
      <point x="546" y="278" type="curve" smooth="yes"/>
      <point x="456" y="278"/>
      <point x="404" y="330"/>
      <point x="404" y="396" type="curve" smooth="yes"/>
      <point x="404" y="405"/>
      <point x="405" y="415"/>
      <point x="407" y="424" type="curve"/>
      <point x="426" y="424"/>
      <point x="537" y="431"/>
      <point x="595" y="435" type="curve" smooth="yes"/>
      <point x="700" y="442"/>
      <point x="815" y="456"/>
    </contour>
  </outline>
</glyph>
<glyph name="florin" format="2">
  <advance width="960"/>
  <unicode hex="0192"/>
  <outline>
    <contour>
      <point x="934" y="1434" type="curve" smooth="yes"/>
      <point x="695" y="1434"/>
      <point x="555" y="1336"/>
      <point x="430" y="1110" type="curve" smooth="yes"/>
      <point x="404" y="1063"/>
      <point x="383" y="1015"/>
      <point x="363" y="966" type="curve"/>
      <point x="341" y="968"/>
      <point x="262" y="971"/>
      <point x="199" y="971" type="curve"/>
      <point x="138" y="857"/>
      <point x="86" y="714"/>
      <point x="64" y="632" type="curve"/>
      <point x="91" y="635"/>
      <point x="186" y="642"/>
      <point x="229" y="642" type="curve"/>
      <point x="161" y="455"/>
      <point x="45" y="143"/>
      <point x="10" y="51" type="curve" smooth="yes"/>
      <point x="-52" y="-111"/>
      <point x="-110" y="-164"/>
      <point x="-172" y="-164" type="curve" smooth="yes"/>
      <point x="-215" y="-164"/>
      <point x="-234" y="-151"/>
      <point x="-257" y="-127" type="curve"/>
      <point x="-490" y="-408" type="line"/>
      <point x="-464" y="-448"/>
      <point x="-358" y="-507"/>
      <point x="-188" y="-507" type="curve" smooth="yes"/>
      <point x="-25" y="-507"/>
      <point x="204" y="-420"/>
      <point x="375" y="-8" type="curve" smooth="yes"/>
      <point x="433" y="132"/>
      <point x="546" y="521"/>
      <point x="570" y="606" type="curve"/>
      <point x="616" y="596"/>
      <point x="773" y="566"/>
      <point x="800" y="562" type="curve"/>
      <point x="849" y="652"/>
      <point x="910" y="793"/>
      <point x="947" y="879" type="curve"/>
      <point x="914" y="890"/>
      <point x="734" y="914"/>
      <point x="687" y="920" type="curve"/>
      <point x="693" y="940"/>
      <point x="721" y="995"/>
      <point x="731" y="1013" type="curve" smooth="yes"/>
      <point x="764" y="1073"/>
      <point x="822" y="1126"/>
      <point x="888" y="1126" type="curve" smooth="yes"/>
      <point x="952" y="1126"/>
      <point x="975" y="1103"/>
      <point x="999" y="1049" type="curve"/>
      <point x="1042" y="1084"/>
      <point x="1161" y="1197"/>
      <point x="1229" y="1277" type="curve"/>
      <point x="1205" y="1337"/>
      <point x="1120" y="1434"/>
    </contour>
  </outline>
</glyph>
<glyph name="uhorn" format="2">
  <advance width="1250"/>
  <unicode hex="01B0"/>
  <anchor x="447" y="0" name="bottom"/>
  <anchor x="731" y="1063" name="top"/>
  <outline>
    <contour>
      <point x="813" y="984" type="curve"/>
      <point x="813" y="908"/>
      <point x="795" y="790"/>
      <point x="763" y="676" type="curve" smooth="yes"/>
      <point x="712" y="495"/>
      <point x="642" y="304"/>
      <point x="534" y="304" type="curve" smooth="yes"/>
      <point x="479" y="304"/>
      <point x="460" y="352"/>
      <point x="460" y="425" type="curve" smooth="yes"/>
      <point x="460" y="566"/>
      <point x="533" y="807"/>
      <point x="601" y="995" type="curve"/>
      <point x="557" y="1009"/>
      <point x="465" y="1018"/>
      <point x="381" y="1018" type="curve" smooth="yes"/>
      <point x="323" y="1018"/>
      <point x="243" y="1014"/>
      <point x="198" y="1010" type="curve"/>
      <point x="121" y="779"/>
      <point x="55" y="537"/>
      <point x="55" y="343" type="curve" smooth="yes"/>
      <point x="55" y="95"/>
      <point x="160" y="-64"/>
      <point x="443" y="-64" type="curve" smooth="yes"/>
      <point x="841" y="-64"/>
      <point x="1047" y="278"/>
      <point x="1159" y="696" type="curve" smooth="yes"/>
      <point x="1183" y="787"/>
      <point x="1201" y="880"/>
      <point x="1213" y="973" type="curve"/>
      <point x="1167" y="981"/>
      <point x="1011" y="987"/>
      <point x="950" y="987" type="curve" smooth="yes"/>
      <point x="876" y="987"/>
      <point x="848" y="986"/>
    </contour>
    <contour>
      <point x="1036" y="740" type="line"/>
      <point x="1218" y="740"/>
      <point x="1459" y="825"/>
      <point x="1459" y="1186" type="curve"/>
      <point x="1434" y="1214"/>
      <point x="1295" y="1244"/>
      <point x="1176" y="1244" type="curve"/>
      <point x="1176" y="1057"/>
      <point x="1089" y="987"/>
      <point x="950" y="987" type="curve"/>
    </contour>
  </outline>
</glyph>
<glyph name="udieresismacron" format="2">
  <advance width="1178"/>
  <unicode hex="01D6"/>
  <anchor x="437" y="0" name="bottom"/>
  <anchor x="698" y="0" name="ogonek"/>
  <anchor x="788" y="1486" name="top"/>
  <anchor x="1137" y="902" name="topright"/>
  <outline>
    <contour>
      <point x="1124" y="1642" type="curve"/>
      <point x="1147" y="1750"/>
      <point x="1162" y="1860"/>
      <point x="1167" y="1899" type="curve"/>
      <point x="1043" y="1899"/>
      <point x="688" y="1865"/>
      <point x="542" y="1829" type="curve"/>
      <point x="527" y="1755"/>
      <point x="518" y="1685"/>
      <point x="510" y="1608" type="curve"/>
      <point x="700" y="1629"/>
      <point x="1018" y="1642"/>
    </contour>
    <component base="u"/>
    <component base="dieresiscomb" xOffset="81"/>
  </outline>
</glyph>
<glyph name="udieresiscaron" format="2">
  <advance width="1178"/>
  <unicode hex="01DA"/>
  <anchor x="437" y="0" name="bottom"/>
  <anchor x="698" y="0" name="ogonek"/>
  <anchor x="788" y="1486" name="top"/>
  <anchor x="1137" y="902" name="topright"/>
  <outline>
    <contour>
      <point x="1018" y="1844" type="curve"/>
      <point x="936" y="1769"/>
      <point x="849" y="1701"/>
      <point x="834" y="1692" type="curve"/>
      <point x="847" y="1692" type="line"/>
      <point x="825" y="1713"/>
      <point x="783" y="1780"/>
      <point x="752" y="1854" type="curve"/>
      <point x="684" y="1838"/>
      <point x="583" y="1783"/>
      <point x="537" y="1749" type="curve"/>
      <point x="591" y="1672"/>
      <point x="637" y="1613"/>
      <point x="688" y="1561" type="curve"/>
      <point x="738" y="1556"/>
      <point x="848" y="1553"/>
      <point x="910" y="1553" type="curve"/>
      <point x="963" y="1577"/>
      <point x="1114" y="1668"/>
      <point x="1186" y="1722" type="curve"/>
      <point x="1175" y="1734"/>
      <point x="1074" y="1821"/>
    </contour>
    <component base="u"/>
    <component base="dieresiscomb" xOffset="81"/>
  </outline>
</glyph>
<glyph name="jdotless" format="2">
  <advance width="772"/>
  <unicode hex="0237"/>
  <anchor x="82" y="-530" name="bottom"/>
  <anchor x="486" y="958" name="top"/>
  <outline>
    <contour>
      <point x="-111" y="-532" type="curve" smooth="yes"/>
      <point x="413" y="-532"/>
      <point x="675" y="85"/>
      <point x="675" y="717" type="curve" smooth="yes"/>
      <point x="675" y="769"/>
      <point x="671" y="815"/>
      <point x="664" y="853" type="curve"/>
      <point x="621" y="858"/>
      <point x="574" y="861"/>
      <point x="525" y="861" type="curve" smooth="yes"/>
      <point x="436" y="861"/>
      <point x="340" y="852"/>
      <point x="260" y="834" type="curve"/>
      <point x="242" y="595"/>
      <point x="212" y="317"/>
      <point x="158" y="114" type="curve" smooth="yes"/>
      <point x="118" y="-36"/>
      <point x="56" y="-187"/>
      <point x="-38" y="-187" type="curve" smooth="yes"/>
      <point x="-99" y="-187"/>
      <point x="-127" y="-135"/>
      <point x="-128" y="-64" type="curve"/>
      <point x="-232" y="-92"/>
      <point x="-436" y="-157"/>
      <point x="-559" y="-229" type="curve"/>
      <point x="-571" y="-436"/>
      <point x="-379" y="-532"/>
    </contour>
  </outline>
</glyph>
<glyph name="schwa" format="2">
  <advance width="1032"/>
  <unicode hex="0259"/>
  <anchor x="373.585" y="0" name="bottom"/>
  <anchor x="439" y="20" name="ogonek"/>
  <anchor x="658.415" y="1063" name="top"/>
  <outline>
    <contour>
      <point x="142" y="897" type="curve"/>
      <point x="160" y="786"/>
      <point x="247" y="646"/>
      <point x="261" y="633" type="curve"/>
      <point x="369" y="707"/>
      <point x="493" y="721"/>
      <point x="543" y="721" type="curve" smooth="yes"/>
      <point x="621" y="721"/>
      <point x="679" y="676"/>
      <point x="679" y="610" type="curve" smooth="yes"/>
      <point x="679" y="596"/>
      <point x="679" y="581"/>
      <point x="674" y="565" type="curve"/>
      <point x="624" y="558"/>
      <point x="527" y="545"/>
      <point x="423" y="542" type="curve" smooth="yes"/>
      <point x="331" y="539"/>
      <point x="89" y="532"/>
      <point x="56" y="532" type="curve"/>
      <point x="16" y="456"/>
      <point x="-5" y="375"/>
      <point x="-5" y="282" type="curve" smooth="yes"/>
      <point x="-5" y="79"/>
      <point x="134" y="-16"/>
      <point x="363" y="-16" type="curve" smooth="yes"/>
      <point x="759" y="-16"/>
      <point x="1030" y="284"/>
      <point x="1030" y="681" type="curve" smooth="yes"/>
      <point x="1030" y="918"/>
      <point x="866" y="1063"/>
      <point x="663" y="1063" type="curve" smooth="yes"/>
      <point x="485" y="1063"/>
      <point x="265" y="999"/>
    </contour>
    <contour>
      <point x="606" y="373" type="curve"/>
      <point x="589" y="329"/>
      <point x="519" y="226"/>
      <point x="420" y="226" type="curve" smooth="yes"/>
      <point x="351" y="226"/>
      <point x="306" y="264"/>
      <point x="306" y="313" type="curve" smooth="yes"/>
      <point x="306" y="323"/>
      <point x="306" y="333"/>
      <point x="309" y="343" type="curve"/>
      <point x="324" y="343"/>
      <point x="374" y="347"/>
      <point x="421" y="351" type="curve" smooth="yes"/>
      <point x="505" y="358"/>
      <point x="567" y="367"/>
    </contour>
  </outline>
</glyph>
<glyph name="acutecomb" format="2">
  <unicode hex="0301"/>
  <anchor x="439" y="1063" name="_top"/>
  <anchor x="545" y="1530" name="top"/>
  <outline>
    <contour>
      <point x="581" y="1540" type="curve"/>
      <point x="503" y="1516"/>
      <point x="270" y="1369"/>
      <point x="193" y="1271" type="curve"/>
      <point x="223" y="1237"/>
      <point x="369" y="1156"/>
      <point x="394" y="1146" type="curve"/>
      <point x="447" y="1180"/>
      <point x="644" y="1278"/>
      <point x="794" y="1331" type="curve"/>
      <point x="777" y="1357"/>
      <point x="698" y="1477"/>
    </contour>
  </outline>
</glyph>
<glyph name="circumflexcomb" format="2">
  <unicode hex="0302"/>
  <anchor x="577" y="1063" name="_top"/>
  <anchor x="706" y="1544" name="top"/>
  <outline>
    <contour>
      <point x="992" y="1344"/>
      <point x="895" y="1472"/>
      <point x="839" y="1544" type="curve"/>
      <point x="788" y="1544"/>
      <point x="629" y="1542"/>
      <point x="588" y="1540" type="curve"/>
      <point x="519" y="1506"/>
      <point x="337" y="1396"/>
      <point x="189" y="1298" type="curve"/>
      <point x="238" y="1240"/>
      <point x="358" y="1163"/>
      <point x="420" y="1142" type="curve"/>
      <point x="523" y="1225"/>
      <point x="654" y="1315"/>
      <point x="692" y="1338" type="curve"/>
      <point x="659" y="1338" type="line"/>
      <point x="671" y="1319"/>
      <point x="728" y="1222"/>
      <point x="776" y="1135" type="curve"/>
      <point x="852" y="1156"/>
      <point x="965" y="1205"/>
      <point x="1044" y="1263" type="curve"/>
    </contour>
  </outline>
</glyph>
<glyph name="brevecomb" format="2">
  <unicode hex="0306"/>
  <anchor x="569" y="1063" name="_top"/>
  <anchor x="681" y="1536" name="top"/>
  <outline>
    <contour>
      <point x="1002" y="1492" type="curve"/>
      <point x="955" y="1515"/>
      <point x="853" y="1536"/>
      <point x="731" y="1536" type="curve"/>
      <point x="715" y="1411"/>
      <point x="679" y="1390"/>
      <point x="641" y="1390" type="curve" smooth="yes"/>
      <point x="613" y="1390"/>
      <point x="590" y="1410"/>
      <point x="590" y="1482" type="curve" smooth="yes"/>
      <point x="590" y="1497"/>
      <point x="591" y="1514"/>
      <point x="594" y="1534" type="curve"/>
      <point x="523" y="1534"/>
      <point x="378" y="1532"/>
      <point x="316" y="1513" type="curve"/>
      <point x="313" y="1485"/>
      <point x="311" y="1458"/>
      <point x="311" y="1433" type="curve" smooth="yes"/>
      <point x="311" y="1261"/>
      <point x="400" y="1165"/>
      <point x="614" y="1165" type="curve" smooth="yes"/>
      <point x="830" y="1165"/>
      <point x="979" y="1298"/>
    </contour>
  </outline>
</glyph>
<glyph name="dotaccentcomb" format="2">
  <unicode hex="0307"/>
  <anchor x="343" y="1063" name="_top"/>
  <anchor x="459" y="1488" name="top"/>
  <outline>
    <contour>
      <point x="412" y="1488" type="curve" smooth="yes"/>
      <point x="310" y="1488"/>
      <point x="238" y="1430"/>
      <point x="238" y="1319" type="curve" smooth="yes"/>
      <point x="238" y="1231"/>
      <point x="324" y="1174"/>
      <point x="432" y="1174" type="curve" smooth="yes"/>
      <point x="524" y="1174"/>
      <point x="591" y="1254"/>
      <point x="591" y="1340" type="curve" smooth="yes"/>
      <point x="591" y="1425"/>
      <point x="517" y="1488"/>
    </contour>
  </outline>
</glyph>
<glyph name="hookabovecomb" format="2">
  <unicode hex="0309"/>
  <anchor x="472.615" y="1063" name="_top"/>
  <anchor x="587" y="1540" name="top"/>
  <outline>
    <contour>
      <point x="593" y="1221" type="curve"/>
      <point x="691" y="1231"/>
      <point x="814" y="1271"/>
      <point x="814" y="1395" type="curve" smooth="yes"/>
      <point x="814" y="1510"/>
      <point x="711" y="1540"/>
      <point x="561" y="1540" type="curve" smooth="yes"/>
      <point x="483" y="1540"/>
      <point x="346" y="1519"/>
      <point x="319" y="1510" type="curve"/>
      <point x="319" y="1358" type="line"/>
      <point x="351" y="1365"/>
      <point x="435" y="1379"/>
      <point x="493" y="1379" type="curve" smooth="yes"/>
      <point x="526" y="1379"/>
      <point x="545" y="1378"/>
      <point x="545" y="1352" type="curve" smooth="yes"/>
      <point x="545" y="1324"/>
      <point x="494" y="1317"/>
      <point x="403" y="1317" type="curve"/>
      <point x="396" y="1297"/>
      <point x="365" y="1193"/>
      <point x="355" y="1156" type="curve"/>
      <point x="571" y="1160" type="line"/>
      <point x="578" y="1178"/>
      <point x="585" y="1196"/>
    </contour>
  </outline>
</glyph>
<glyph name="dblgravecomb" format="2">
  <unicode hex="030F"/>
  <anchor x="743.996" y="1063" name="_top"/>
  <anchor x="897" y="1653" name="top"/>
  <outline>
    <contour>
      <point x="518" y="1564" type="curve"/>
      <point x="399" y="1480"/>
      <point x="282" y="1375"/>
      <point x="265" y="1350" type="curve"/>
      <point x="388" y="1317"/>
      <point x="611" y="1243"/>
      <point x="693" y="1192" type="curve"/>
      <point x="722" y="1204"/>
      <point x="849" y="1289"/>
      <point x="887" y="1332" type="curve"/>
      <point x="788" y="1436"/>
      <point x="579" y="1557"/>
    </contour>
    <contour>
      <point x="1064" y="1673" type="curve"/>
      <point x="931" y="1615"/>
      <point x="821" y="1535"/>
      <point x="799" y="1513" type="curve"/>
      <point x="909" y="1454"/>
      <point x="1058" y="1360"/>
      <point x="1126" y="1291" type="curve"/>
      <point x="1155" y="1297"/>
      <point x="1264" y="1342"/>
      <point x="1328" y="1400" type="curve"/>
      <point x="1257" y="1525"/>
      <point x="1120" y="1653"/>
    </contour>
  </outline>
</glyph>
<glyph name="breveinvertedcomb" format="2">
  <unicode hex="0311"/>
  <anchor x="576.026" y="1063" name="_top"/>
  <anchor x="661" y="1534" name="top"/>
  <outline>
    <contour>
      <point x="273" y="1207" type="curve"/>
      <point x="320" y="1184"/>
      <point x="422" y="1163"/>
      <point x="544" y="1163" type="curve"/>
      <point x="560" y="1288"/>
      <point x="596" y="1309"/>
      <point x="634" y="1309" type="curve" smooth="yes"/>
      <point x="662" y="1309"/>
      <point x="685" y="1289"/>
      <point x="685" y="1217" type="curve" smooth="yes"/>
      <point x="685" y="1202"/>
      <point x="684" y="1185"/>
      <point x="681" y="1165" type="curve"/>
      <point x="752" y="1165"/>
      <point x="897" y="1167"/>
      <point x="959" y="1186" type="curve"/>
      <point x="962" y="1214"/>
      <point x="964" y="1241"/>
      <point x="964" y="1266" type="curve" smooth="yes"/>
      <point x="964" y="1438"/>
      <point x="875" y="1534"/>
      <point x="661" y="1534" type="curve" smooth="yes"/>
      <point x="445" y="1534"/>
      <point x="296" y="1401"/>
    </contour>
  </outline>
</glyph>
<glyph name="commaturnedabovecomb" format="2">
  <unicode hex="0312"/>
  <anchor x="377" y="1063" name="_top"/>
  <anchor x="545" y="1642" name="top"/>
  <outline>
    <contour>
      <point x="502" y="1642" type="curve"/>
      <point x="385" y="1576"/>
      <point x="282" y="1431"/>
      <point x="282" y="1311" type="curve" smooth="yes"/>
      <point x="282" y="1222"/>
      <point x="356" y="1180"/>
      <point x="431" y="1180" type="curve" smooth="yes"/>
      <point x="546" y="1180"/>
      <point x="642" y="1239"/>
      <point x="642" y="1354" type="curve" smooth="yes"/>
      <point x="642" y="1409"/>
      <point x="616" y="1455"/>
      <point x="562" y="1455" type="curve" smooth="yes"/>
      <point x="530" y="1455"/>
      <point x="508" y="1450"/>
      <point x="494" y="1441" type="curve"/>
      <point x="494" y="1443"/>
      <point x="494" y="1446"/>
      <point x="495" y="1449" type="curve" smooth="yes"/>
      <point x="502" y="1469"/>
      <point x="574" y="1519"/>
      <point x="609" y="1530" type="curve"/>
      <point x="590" y="1601"/>
      <point x="520" y="1635"/>
    </contour>
  </outline>
</glyph>
<glyph name="horncomb" format="2">
  <unicode hex="031B"/>
  <anchor x="294" y="1088" name="_topright"/>
  <anchor x="812.541" y="1315" name="topright"/>
  <outline>
    <contour>
      <point x="259" y="911" type="line"/>
      <point x="441" y="911"/>
      <point x="689" y="1008"/>
      <point x="777" y="1257" type="curve"/>
      <point x="759" y="1285"/>
      <point x="676" y="1315"/>
      <point x="557" y="1315" type="curve"/>
      <point x="507" y="1128"/>
      <point x="415" y="1088"/>
      <point x="294" y="1088" type="curve"/>
    </contour>
  </outline>
</glyph>
<glyph name="cedillacomb" format="2">
  <unicode hex="0327"/>
  <anchor x="73" y="0" name="_bottom"/>
  <anchor x="-41" y="-497" name="bottom"/>
  <outline>
    <contour>
      <point x="-41" y="-497" type="curve" smooth="yes"/>
      <point x="199" y="-497"/>
      <point x="458" y="-408"/>
      <point x="458" y="-182" type="curve" smooth="yes"/>
      <point x="458" y="-81"/>
      <point x="396" y="-37"/>
      <point x="303" y="-37" type="curve" smooth="yes"/>
      <point x="233" y="-37"/>
      <point x="173" y="-65"/>
      <point x="143" y="-99" type="curve"/>
      <point x="186" y="19" type="line"/>
      <point x="-35" y="7" type="line"/>
      <point x="-127" y="-217" type="line"/>
      <point x="-89" y="-204"/>
      <point x="-4" y="-189"/>
      <point x="73" y="-189" type="curve" smooth="yes"/>
      <point x="136" y="-189"/>
      <point x="186" y="-199"/>
      <point x="186" y="-231" type="curve" smooth="yes"/>
      <point x="186" y="-274"/>
      <point x="117" y="-297"/>
      <point x="-6" y="-297" type="curve" smooth="yes"/>
      <point x="-39" y="-297"/>
      <point x="-121" y="-285"/>
      <point x="-148" y="-272" type="curve"/>
      <point x="-244" y="-475" type="line"/>
      <point x="-225" y="-480"/>
      <point x="-146" y="-497"/>
    </contour>
  </outline>
</glyph>
<glyph name="macronbelowcomb" format="2">
  <unicode hex="0331"/>
  <anchor x="425" y="0" name="_bottom"/>
  <anchor x="307" y="-440" name="bottom"/>
  <outline>
    <contour>
      <point x="700" y="-397" type="curve"/>
      <point x="729" y="-289"/>
      <point x="749" y="-179"/>
      <point x="755" y="-140" type="curve"/>
      <point x="595" y="-140"/>
      <point x="134" y="-174"/>
      <point x="-55" y="-210" type="curve"/>
      <point x="-75" y="-284"/>
      <point x="-86" y="-354"/>
      <point x="-97" y="-431" type="curve"/>
      <point x="150" y="-410"/>
      <point x="562" y="-397"/>
    </contour>
  </outline>
</glyph>
<glyph name="strokeshortcomb" format="2">
  <unicode hex="0335"/>
  <anchor x="537" y="579" name="_center"/>
  <outline>
    <contour>
      <point x="896" y="469" type="curve"/>
      <point x="925" y="577"/>
      <point x="945" y="687"/>
      <point x="951" y="726" type="curve"/>
      <point x="791" y="726"/>
      <point x="330" y="692"/>
      <point x="141" y="656" type="curve"/>
      <point x="121" y="582"/>
      <point x="110" y="512"/>
      <point x="99" y="435" type="curve"/>
      <point x="346" y="456"/>
      <point x="758" y="469"/>
    </contour>
  </outline>
</glyph>
<glyph name="strokelongcomb" format="2">
  <unicode hex="0336"/>
  <anchor x="537" y="579" name="_center"/>
  <outline>
    <contour>
      <point x="965" y="469" type="curve"/>
      <point x="994" y="577"/>
      <point x="1013" y="687"/>
      <point x="1018" y="726" type="curve"/>
      <point x="830" y="726"/>
      <point x="291" y="692"/>
      <point x="72" y="656" type="curve"/>
      <point x="52" y="582"/>
      <point x="42" y="512"/>
      <point x="33" y="435" type="curve"/>
      <point x="321" y="456"/>
      <point x="804" y="469"/>
    </contour>
  </outline>
</glyph>
<glyph name="ecedillabreve" format="2">
  <advance width="1123"/>
  <unicode hex="1E1D"/>
  <anchor x="403" y="10" name="bottom"/>
  <anchor x="678" y="18" name="ogonek"/>
  <anchor x="799" y="1546" name="top"/>
  <outline>
    <contour>
      <point x="307" y="-537" type="curve" smooth="yes"/>
      <point x="541" y="-537"/>
      <point x="794" y="-453"/>
      <point x="794" y="-231" type="curve" smooth="yes"/>
      <point x="794" y="-124"/>
      <point x="730" y="-77"/>
      <point x="634" y="-77" type="curve" smooth="yes"/>
      <point x="564" y="-77"/>
      <point x="505" y="-105"/>
      <point x="477" y="-139" type="curve"/>
      <point x="522" y="39" type="line"/>
      <point x="302" y="27" type="line"/>
      <point x="211" y="-257" type="line"/>
      <point x="248" y="-244"/>
      <point x="332" y="-229"/>
      <point x="409" y="-229" type="curve" smooth="yes"/>
      <point x="474" y="-229"/>
      <point x="525" y="-239"/>
      <point x="525" y="-272" type="curve" smooth="yes"/>
      <point x="525" y="-315"/>
      <point x="456" y="-337"/>
      <point x="334" y="-337" type="curve" smooth="yes"/>
      <point x="301" y="-337"/>
      <point x="219" y="-325"/>
      <point x="191" y="-312" type="curve"/>
      <point x="102" y="-515" type="line"/>
      <point x="122" y="-520"/>
      <point x="202" y="-537"/>
    </contour>
    <component base="e"/>
    <component base="brevecomb" xOffset="118" yOffset="10"/>
  </outline>
</glyph>
<glyph name="Germandbls" format="2">
  <advance width="1197"/>
  <unicode hex="1E9E"/>
  <outline>
    <contour>
      <point x="-89" y="-9" type="curve"/>
      <point x="-14" y="-9"/>
      <point x="173" y="1"/>
      <point x="252" y="9" type="curve"/>
      <point x="278" y="137"/>
      <point x="411" y="637"/>
      <point x="468" y="850" type="curve" smooth="yes"/>
      <point x="514" y="1022"/>
      <point x="583" y="1075"/>
      <point x="692" y="1075" type="curve" smooth="yes"/>
      <point x="754" y="1075"/>
      <point x="792" y="1070"/>
      <point x="833" y="1060" type="curve"/>
      <point x="736" y="1006"/>
      <point x="597" y="916"/>
      <point x="504" y="838" type="curve"/>
      <point x="504" y="700"/>
      <point x="521" y="563"/>
      <point x="530" y="524" type="curve"/>
      <point x="591" y="548"/>
      <point x="692" y="571"/>
      <point x="759" y="571" type="curve" smooth="yes"/>
      <point x="814" y="571"/>
      <point x="845" y="533"/>
      <point x="845" y="473" type="curve" smooth="yes"/>
      <point x="845" y="352"/>
      <point x="763" y="260"/>
      <point x="639" y="260" type="curve" smooth="yes"/>
      <point x="543" y="260"/>
      <point x="518" y="292"/>
      <point x="492" y="335" type="curve"/>
      <point x="464" y="316"/>
      <point x="302" y="133"/>
      <point x="283" y="109" type="curve"/>
      <point x="332" y="19"/>
      <point x="454" y="-17"/>
      <point x="555" y="-17" type="curve" smooth="yes"/>
      <point x="924" y="-17"/>
      <point x="1176" y="173"/>
      <point x="1176" y="550" type="curve" smooth="yes"/>
      <point x="1176" y="722"/>
      <point x="1096" y="800"/>
      <point x="969" y="800" type="curve" smooth="yes"/>
      <point x="911" y="800"/>
      <point x="858" y="789"/>
      <point x="810" y="762" type="curve"/>
      <point x="876" y="791"/>
      <point x="1280" y="1038"/>
      <point x="1297" y="1055" type="curve"/>
      <point x="1302" y="1077"/>
      <point x="1342" y="1253"/>
      <point x="1342" y="1289" type="curve"/>
      <point x="1292" y="1299"/>
      <point x="823" y="1332"/>
      <point x="701" y="1332" type="curve" smooth="yes"/>
      <point x="257" y="1332"/>
      <point x="165" y="1061"/>
      <point x="44" y="610" type="curve" smooth="yes"/>
      <point x="-26" y="349"/>
      <point x="-73" y="136"/>
    </contour>
  </outline>
</glyph>
<glyph name="endash" format="2">
  <advance width="1359"/>
  <unicode hex="2013"/>
  <outline>
    <contour>
      <point x="1383" y="851" type="curve"/>
      <point x="1293" y="856"/>
      <point x="1040" y="870"/>
      <point x="729" y="870" type="curve" smooth="yes"/>
      <point x="573" y="870"/>
      <point x="469" y="865"/>
      <point x="181" y="850" type="curve"/>
      <point x="59" y="496" type="line"/>
      <point x="214" y="504"/>
      <point x="1230" y="516"/>
      <point x="1322" y="516" type="curve"/>
      <point x="1345" y="600"/>
      <point x="1372" y="760"/>
    </contour>
  </outline>
</glyph>
<glyph name="emdash" format="2">
  <advance width="1667"/>
  <unicode hex="2014"/>
  <outline>
    <contour>
      <point x="1703" y="851" type="curve"/>
      <point x="1564" y="861"/>
      <point x="1334" y="876"/>
      <point x="1019" y="876" type="curve" smooth="yes"/>
      <point x="809" y="876"/>
      <point x="543" y="870"/>
      <point x="188" y="850" type="curve"/>
      <point x="157" y="781"/>
      <point x="100" y="622"/>
      <point x="66" y="496" type="curve"/>
      <point x="272" y="499"/>
      <point x="1563" y="516"/>
      <point x="1642" y="516" type="curve"/>
      <point x="1668" y="610"/>
      <point x="1691" y="752"/>
    </contour>
  </outline>
</glyph>
<glyph name="quoteleft" format="2">
  <advance width="533"/>
  <unicode hex="2018"/>
  <outline>
    <contour>
      <point x="521" y="1427" type="curve"/>
      <point x="329" y="1366"/>
      <point x="202" y="1204"/>
      <point x="202" y="1048" type="curve" smooth="yes"/>
      <point x="202" y="940"/>
      <point x="284" y="895"/>
      <point x="386" y="895" type="curve" smooth="yes"/>
      <point x="512" y="895"/>
      <point x="633" y="968"/>
      <point x="633" y="1099" type="curve" smooth="yes"/>
      <point x="633" y="1173"/>
      <point x="594" y="1210"/>
      <point x="530" y="1210" type="curve" smooth="yes"/>
      <point x="498" y="1210"/>
      <point x="456" y="1193"/>
      <point x="440" y="1176" type="curve"/>
      <point x="482" y="1244"/>
      <point x="573" y="1267"/>
      <point x="599" y="1272" type="curve"/>
      <point x="599" y="1325"/>
      <point x="562" y="1393"/>
    </contour>
  </outline>
</glyph>
<glyph name="quoteright" format="2">
  <advance width="515"/>
  <unicode hex="2019"/>
  <outline>
    <contour>
      <point x="345" y="898" type="curve"/>
      <point x="517" y="962"/>
      <point x="670" y="1127"/>
      <point x="670" y="1300" type="curve" smooth="yes"/>
      <point x="670" y="1396"/>
      <point x="599" y="1455"/>
      <point x="492" y="1455" type="curve" smooth="yes"/>
      <point x="370" y="1455"/>
      <point x="243" y="1381"/>
      <point x="243" y="1242" type="curve" smooth="yes"/>
      <point x="243" y="1177"/>
      <point x="278" y="1130"/>
      <point x="346" y="1130" type="curve" smooth="yes"/>
      <point x="361" y="1130"/>
      <point x="374" y="1131"/>
      <point x="382" y="1135" type="curve"/>
      <point x="368" y="1115"/>
      <point x="261" y="1054"/>
      <point x="228" y="1040" type="curve"/>
      <point x="243" y="987"/>
      <point x="308" y="928"/>
    </contour>
  </outline>
</glyph>
<glyph name="quotedblleft" format="2">
  <advance width="1007"/>
  <unicode hex="201C"/>
  <outline>
    <contour>
      <point x="882" y="844" type="curve" smooth="yes"/>
      <point x="1048" y="844"/>
      <point x="1161" y="945"/>
      <point x="1161" y="1107" type="curve" smooth="yes"/>
      <point x="1161" y="1175"/>
      <point x="1131" y="1226"/>
      <point x="1059" y="1226" type="curve" smooth="yes"/>
      <point x="1036" y="1226"/>
      <point x="1007" y="1222"/>
      <point x="981" y="1207" type="curve"/>
      <point x="981" y="1210"/>
      <point x="981" y="1216"/>
      <point x="983" y="1222" type="curve" smooth="yes"/>
      <point x="1001" y="1276"/>
      <point x="1118" y="1322"/>
      <point x="1162" y="1335" type="curve"/>
      <point x="1155" y="1395"/>
      <point x="1063" y="1448"/>
      <point x="1008" y="1465" type="curve"/>
      <point x="837" y="1389"/>
      <point x="672" y="1186"/>
      <point x="672" y="1017" type="curve" smooth="yes"/>
      <point x="672" y="916"/>
      <point x="756" y="844"/>
    </contour>
    <contour>
      <point x="355" y="862" type="curve" smooth="yes"/>
      <point x="513" y="862"/>
      <point x="650" y="936"/>
      <point x="650" y="1096" type="curve" smooth="yes"/>
      <point x="650" y="1172"/>
      <point x="616" y="1230"/>
      <point x="543" y="1230" type="curve" smooth="yes"/>
      <point x="501" y="1230"/>
      <point x="461" y="1211"/>
      <point x="426" y="1185" type="curve"/>
      <point x="426" y="1189"/>
      <point x="427" y="1193"/>
      <point x="429" y="1200" type="curve" smooth="yes"/>
      <point x="443" y="1248"/>
      <point x="579" y="1344"/>
      <point x="649" y="1371" type="curve"/>
      <point x="603" y="1410"/>
      <point x="495" y="1446"/>
      <point x="422" y="1448" type="curve"/>
      <point x="281" y="1363"/>
      <point x="146" y="1197"/>
      <point x="146" y="1052" type="curve" smooth="yes"/>
      <point x="146" y="939"/>
      <point x="227" y="862"/>
    </contour>
  </outline>
</glyph>
<glyph name="quotedblright" format="2">
  <advance width="981"/>
  <unicode hex="201D"/>
  <outline>
    <contour>
      <point x="292" y="856" type="curve"/>
      <point x="493" y="946"/>
      <point x="674" y="1097"/>
      <point x="674" y="1286" type="curve" smooth="yes"/>
      <point x="674" y="1397"/>
      <point x="601" y="1484"/>
      <point x="476" y="1484" type="curve" smooth="yes"/>
      <point x="334" y="1484"/>
      <point x="196" y="1386"/>
      <point x="196" y="1237" type="curve" smooth="yes"/>
      <point x="196" y="1164"/>
      <point x="237" y="1112"/>
      <point x="323" y="1112" type="curve" smooth="yes"/>
      <point x="354" y="1112"/>
      <point x="377" y="1115"/>
      <point x="399" y="1123" type="curve"/>
      <point x="354" y="1096"/>
      <point x="256" y="1056"/>
      <point x="220" y="1048" type="curve"/>
      <point x="220" y="973"/>
      <point x="261" y="899"/>
    </contour>
    <contour>
      <point x="842" y="870" type="curve"/>
      <point x="1005" y="967"/>
      <point x="1177" y="1122"/>
      <point x="1177" y="1303" type="curve" smooth="yes"/>
      <point x="1177" y="1402"/>
      <point x="1109" y="1484"/>
      <point x="997" y="1484" type="curve" smooth="yes"/>
      <point x="833" y="1484"/>
      <point x="698" y="1384"/>
      <point x="698" y="1230" type="curve" smooth="yes"/>
      <point x="698" y="1160"/>
      <point x="743" y="1123"/>
      <point x="828" y="1123" type="curve" smooth="yes"/>
      <point x="836" y="1123"/>
      <point x="843" y="1124"/>
      <point x="848" y="1125" type="curve"/>
      <point x="820" y="1094"/>
      <point x="717" y="1050"/>
      <point x="664" y="1032" type="curve"/>
      <point x="703" y="971"/>
      <point x="765" y="925"/>
    </contour>
  </outline>
</glyph>
<glyph name="dagger" format="2">
  <advance width="1048"/>
  <unicode hex="2020"/>
  <outline>
    <contour>
      <point x="1049" y="744" type="curve"/>
      <point x="1078" y="852"/>
      <point x="1097" y="962"/>
      <point x="1102" y="1001" type="curve"/>
      <point x="914" y="1001"/>
      <point x="374" y="967"/>
      <point x="154" y="931" type="curve"/>
      <point x="134" y="857"/>
      <point x="124" y="787"/>
      <point x="115" y="710" type="curve"/>
      <point x="404" y="731"/>
      <point x="887" y="744"/>
    </contour>
    <component base="bar" xOffset="274"/>
  </outline>
</glyph>
<glyph name="bullet" format="2">
  <advance width="636"/>
  <unicode hex="2022"/>
  <outline>
    <contour>
      <point x="321" y="480" type="curve" smooth="yes"/>
      <point x="470" y="480"/>
      <point x="611" y="595"/>
      <point x="611" y="751" type="curve" smooth="yes"/>
      <point x="611" y="868"/>
      <point x="538" y="953"/>
      <point x="410" y="953" type="curve" smooth="yes"/>
      <point x="236" y="953"/>
      <point x="122" y="829"/>
      <point x="122" y="659" type="curve" smooth="yes"/>
      <point x="122" y="560"/>
      <point x="175" y="480"/>
    </contour>
  </outline>
</glyph>
<glyph name="fraction" format="2">
  <advance width="227"/>
  <unicode hex="2044"/>
  <outline>
    <contour>
      <point x="557" y="1333"/>
      <point x="532" y="1341" type="curve"/>
      <point x="414" y="1139"/>
      <point x="-282" y="205"/>
      <point x="-423" y="45" type="curve"/>
      <point x="-413" y="36"/>
      <point x="-281" y="-30"/>
      <point x="-265" y="-35" type="curve"/>
      <point x="-132" y="126"/>
      <point x="613" y="1139"/>
      <point x="689" y="1258" type="curve"/>
      <point x="678" y="1272"/>
    </contour>
  </outline>
</glyph>
<glyph name="zerosuperior" format="2">
  <advance width="798"/>
  <unicode hex="2070"/>
  <outline>
    <contour>
      <point x="388" y="481" type="curve" smooth="yes"/>
      <point x="650" y="481"/>
      <point x="828" y="755"/>
      <point x="828" y="1047" type="curve" smooth="yes"/>
      <point x="828" y="1200"/>
      <point x="766" y="1304"/>
      <point x="588" y="1304" type="curve" smooth="yes"/>
      <point x="305" y="1304"/>
      <point x="148" y="1065"/>
      <point x="148" y="759" type="curve" smooth="yes"/>
      <point x="148" y="598"/>
      <point x="215" y="481"/>
    </contour>
    <contour>
      <point x="460" y="786" type="curve" smooth="yes"/>
      <point x="450" y="786"/>
      <point x="436" y="790"/>
      <point x="436" y="829" type="curve" smooth="yes"/>
      <point x="436" y="902"/>
      <point x="468" y="1036"/>
      <point x="528" y="1036" type="curve" smooth="yes"/>
      <point x="549" y="1036"/>
      <point x="556" y="1015"/>
      <point x="556" y="988" type="curve" smooth="yes"/>
      <point x="556" y="942"/>
      <point x="514" y="786"/>
    </contour>
  </outline>
</glyph>
<glyph name="fivesuperior" format="2">
  <advance width="814"/>
  <unicode hex="2075"/>
  <outline>
    <contour>
      <point x="50" y="579" type="curve"/>
      <point x="117" y="518"/>
      <point x="252" y="494"/>
      <point x="384" y="494" type="curve" smooth="yes"/>
      <point x="632" y="494"/>
      <point x="846" y="605"/>
      <point x="846" y="850" type="curve" smooth="yes"/>
      <point x="846" y="963"/>
      <point x="794" y="1045"/>
      <point x="644" y="1045" type="curve" smooth="yes"/>
      <point x="591" y="1045"/>
      <point x="512" y="1029"/>
      <point x="489" y="1015" type="curve"/>
      <point x="493" y="1030"/>
      <point x="499" y="1058"/>
      <point x="499" y="1066" type="curve"/>
      <point x="593" y="1079"/>
      <point x="733" y="1086"/>
      <point x="862" y="1086" type="curve"/>
      <point x="870" y="1121"/>
      <point x="881" y="1241"/>
      <point x="881" y="1296" type="curve"/>
      <point x="722" y="1284"/>
      <point x="358" y="1227"/>
      <point x="249" y="1209" type="curve"/>
      <point x="241" y="1122"/>
      <point x="215" y="990"/>
      <point x="174" y="836" type="curve"/>
      <point x="195" y="834"/>
      <point x="260" y="834"/>
      <point x="292" y="834" type="curve" smooth="yes"/>
      <point x="338" y="834"/>
      <point x="386" y="837"/>
      <point x="421" y="842" type="curve"/>
      <point x="428" y="862"/>
      <point x="459" y="881"/>
      <point x="511" y="881" type="curve" smooth="yes"/>
      <point x="565" y="881"/>
      <point x="577" y="857"/>
      <point x="577" y="831" type="curve" smooth="yes"/>
      <point x="577" y="768"/>
      <point x="514" y="751"/>
      <point x="435" y="751" type="curve" smooth="yes"/>
      <point x="371" y="751"/>
      <point x="283" y="769"/>
      <point x="256" y="794" type="curve"/>
      <point x="189" y="735"/>
      <point x="94" y="637"/>
    </contour>
  </outline>
</glyph>
<glyph name="sixsuperior" format="2">
  <advance width="880"/>
  <unicode hex="2076"/>
  <outline>
    <contour>
      <point x="872" y="1136" type="curve"/>
      <point x="866" y="1238"/>
      <point x="813" y="1340"/>
      <point x="793" y="1354" type="curve"/>
      <point x="483" y="1326"/>
      <point x="186" y="1077"/>
      <point x="186" y="770" type="curve" smooth="yes"/>
      <point x="186" y="612"/>
      <point x="282" y="495"/>
      <point x="498" y="495" type="curve" smooth="yes"/>
      <point x="711" y="495"/>
      <point x="908" y="606"/>
      <point x="908" y="827" type="curve" smooth="yes"/>
      <point x="908" y="950"/>
      <point x="834" y="1018"/>
      <point x="727" y="1018" type="curve" smooth="yes"/>
      <point x="665" y="1018"/>
      <point x="572" y="1002"/>
      <point x="491" y="939" type="curve"/>
      <point x="595" y="1074"/>
      <point x="810" y="1136"/>
    </contour>
    <contour>
      <point x="488" y="784" type="curve" smooth="yes"/>
      <point x="498" y="792"/>
      <point x="526" y="805"/>
      <point x="569" y="805" type="curve" smooth="yes"/>
      <point x="611" y="805"/>
      <point x="639" y="796"/>
      <point x="639" y="769" type="curve" smooth="yes"/>
      <point x="639" y="718"/>
      <point x="579" y="704"/>
      <point x="527" y="704" type="curve" smooth="yes"/>
      <point x="496" y="704"/>
      <point x="465" y="711"/>
      <point x="465" y="742" type="curve" smooth="yes"/>
      <point x="465" y="762"/>
      <point x="473" y="771"/>
    </contour>
  </outline>
</glyph>
<glyph name="sevensuperior" format="2">
  <advance width="729"/>
  <unicode hex="2077"/>
  <outline>
    <contour>
      <point x="396" y="503" type="curve"/>
      <point x="475" y="665"/>
      <point x="671" y="943"/>
      <point x="868" y="1090" type="curve"/>
      <point x="871" y="1111"/>
      <point x="888" y="1297"/>
      <point x="890" y="1321" type="curve"/>
      <point x="770" y="1321"/>
      <point x="487" y="1295"/>
      <point x="283" y="1257" type="curve"/>
      <point x="266" y="1192"/>
      <point x="239" y="1030"/>
      <point x="237" y="980" type="curve"/>
      <point x="286" y="994"/>
      <point x="422" y="1021"/>
      <point x="502" y="1030" type="curve"/>
      <point x="356" y="912"/>
      <point x="189" y="743"/>
      <point x="83" y="557" type="curve"/>
      <point x="125" y="552"/>
      <point x="283" y="530"/>
    </contour>
  </outline>
</glyph>
<glyph name="eightsuperior" format="2">
  <advance width="935"/>
  <unicode hex="2078"/>
  <outline>
    <contour>
      <point x="506" y="493" type="curve" smooth="yes"/>
      <point x="702" y="493"/>
      <point x="937" y="575"/>
      <point x="937" y="764" type="curve" smooth="yes"/>
      <point x="937" y="846"/>
      <point x="892" y="894"/>
      <point x="819" y="903" type="curve"/>
      <point x="928" y="933"/>
      <point x="1000" y="1011"/>
      <point x="1000" y="1119" type="curve" smooth="yes"/>
      <point x="1000" y="1244"/>
      <point x="876" y="1318"/>
      <point x="709" y="1318" type="curve" smooth="yes"/>
      <point x="485" y="1318"/>
      <point x="270" y="1261"/>
      <point x="270" y="1087" type="curve" smooth="yes"/>
      <point x="270" y="1022"/>
      <point x="297" y="946"/>
      <point x="358" y="919" type="curve"/>
      <point x="248" y="894"/>
      <point x="146" y="813"/>
      <point x="146" y="697" type="curve" smooth="yes"/>
      <point x="146" y="545"/>
      <point x="287" y="493"/>
    </contour>
    <contour>
      <point x="540" y="696" type="curve" smooth="yes"/>
      <point x="481" y="696"/>
      <point x="462" y="714"/>
      <point x="462" y="736" type="curve" smooth="yes"/>
      <point x="462" y="777"/>
      <point x="507" y="799"/>
      <point x="576" y="799" type="curve" smooth="yes"/>
      <point x="629" y="799"/>
      <point x="654" y="784"/>
      <point x="654" y="762" type="curve" smooth="yes"/>
      <point x="654" y="721"/>
      <point x="602" y="696"/>
    </contour>
    <contour>
      <point x="614" y="1004" type="curve" smooth="yes"/>
      <point x="557" y="1004"/>
      <point x="534" y="1020"/>
      <point x="534" y="1041" type="curve" smooth="yes"/>
      <point x="534" y="1071"/>
      <point x="579" y="1095"/>
      <point x="639" y="1095" type="curve" smooth="yes"/>
      <point x="685" y="1095"/>
      <point x="719" y="1085"/>
      <point x="719" y="1053" type="curve" smooth="yes"/>
      <point x="719" y="1022"/>
      <point x="674" y="1004"/>
    </contour>
  </outline>
</glyph>
<glyph name="colonsign" format="2">
  <advance width="1137"/>
  <unicode hex="20A1"/>
  <anchor x="426.585" y="0.0" name="bottom"/>
  <anchor x="772.507" y="1291.0" name="top"/>
  <outline>
    <contour>
      <point x="990" y="1492" type="line"/>
      <point x="950" y="1430"/>
      <point x="888" y="1351"/>
      <point x="840" y="1291" type="curve"/>
      <point x="1012" y="1235" type="line"/>
      <point x="1062" y="1294"/>
      <point x="1129" y="1381"/>
      <point x="1173" y="1450" type="curve"/>
    </contour>
    <contour>
      <point x="1258" y="1437" type="line"/>
      <point x="1197" y="1349"/>
      <point x="1133" y="1266"/>
      <point x="1059" y="1186" type="curve"/>
      <point x="1184" y="1074" type="line"/>
      <point x="1257" y="1147"/>
      <point x="1356" y="1291"/>
      <point x="1385" y="1351" type="curve"/>
    </contour>
    <contour>
      <point x="148" y="238" type="line"/>
      <point x="98" y="177"/>
      <point x="2" y="75"/>
      <point x="-56" y="14" type="curve"/>
      <point x="96" y="-124" type="line"/>
      <point x="146" y="-63"/>
      <point x="236" y="50"/>
      <point x="289" y="127" type="curve"/>
    </contour>
    <contour>
      <point x="366" y="75" type="line"/>
      <point x="303" y="-16"/>
      <point x="256" y="-79"/>
      <point x="192" y="-156" type="curve"/>
      <point x="369" y="-216" type="line"/>
      <point x="431" y="-134"/>
      <point x="479" y="-47"/>
      <point x="523" y="35" type="curve"/>
    </contour>
    <component base="C"/>
  </outline>
</glyph>
<glyph name="franc" format="2">
  <advance width="949"/>
  <unicode hex="20A3"/>
  <anchor x="313" y="0" name="bottom"/>
  <anchor x="659" y="1291" name="top"/>
  <outline>
    <contour>
      <point x="-48" y="465" type="curve"/>
      <point x="-107" y="226" type="line"/>
      <point x="77" y="226"/>
      <point x="468" y="194"/>
      <point x="577" y="184" type="curve"/>
      <point x="647" y="423" type="line"/>
      <point x="538" y="434"/>
      <point x="137" y="465"/>
    </contour>
    <component base="F"/>
  </outline>
</glyph>
<glyph name="lira" format="2">
  <advance width="1140"/>
  <unicode hex="20A4"/>
  <outline>
    <contour>
      <point x="217" y="681" type="curve" smooth="yes"/>
      <point x="396" y="681"/>
      <point x="756" y="691"/>
      <point x="848" y="707" type="curve"/>
      <point x="855" y="733"/>
      <point x="879" y="846"/>
      <point x="881" y="866" type="curve"/>
      <point x="793" y="855"/>
      <point x="469" y="847"/>
      <point x="289" y="847" type="curve" smooth="yes"/>
      <point x="228" y="847"/>
      <point x="176" y="848"/>
      <point x="141" y="850" type="curve"/>
      <point x="127" y="813"/>
      <point x="99" y="729"/>
      <point x="86" y="684" type="curve"/>
      <point x="110" y="682"/>
      <point x="158" y="681"/>
    </contour>
    <contour>
      <point x="28" y="473" type="curve"/>
      <point x="136" y="464"/>
      <point x="615" y="461"/>
      <point x="782" y="461" type="curve"/>
      <point x="789" y="487"/>
      <point x="814" y="602"/>
      <point x="816" y="622" type="curve"/>
      <point x="704" y="622"/>
      <point x="209" y="624"/>
      <point x="81" y="626" type="curve"/>
      <point x="66" y="587"/>
      <point x="41" y="521"/>
    </contour>
    <component base="sterlira"/>
  </outline>
</glyph>
<glyph name="peseta" format="2">
  <advance width="1040"/>
  <unicode hex="20A7"/>
  <outline>
    <contour>
      <point x="1092" y="767" type="curve"/>
      <point x="1099" y="785"/>
      <point x="1133" y="902"/>
      <point x="1139" y="925" type="curve"/>
      <point x="956" y="925"/>
      <point x="257" y="911"/>
      <point x="95" y="907" type="curve"/>
      <point x="83" y="883"/>
      <point x="59" y="829"/>
      <point x="45" y="778" type="curve"/>
      <point x="181" y="778"/>
      <point x="970" y="769"/>
    </contour>
    <component base="pescomb"/>
  </outline>
</glyph>
<glyph name="won" format="2">
  <advance width="1450"/>
  <unicode hex="20A9"/>
  <anchor x="580.585" y="0.0" name="bottom"/>
  <anchor x="926.507" y="1291.0" name="top"/>
  <outline>
    <contour>
      <point x="103" y="873" type="curve"/>
      <point x="42" y="682" type="line"/>
      <point x="259" y="692"/>
      <point x="1024" y="702"/>
      <point x="1491" y="702" type="curve"/>
      <point x="1544" y="916" type="line"/>
      <point x="1074" y="916"/>
      <point x="316" y="883"/>
    </contour>
    <contour>
      <point x="9" y="547" type="curve"/>
      <point x="-42" y="381" type="line"/>
      <point x="152" y="368"/>
      <point x="910" y="319"/>
      <point x="1387" y="319" type="curve"/>
      <point x="1447" y="514" type="line"/>
      <point x="971" y="514"/>
      <point x="204" y="534"/>
    </contour>
    <component base="W" xOffset="51"/>
  </outline>
</glyph>
<glyph name="dong" format="2">
  <advance width="1195"/>
  <unicode hex="20AB"/>
  <anchor x="396" y="0" name="bottom"/>
  <anchor x="1024" y="1177" name="center"/>
  <anchor x="789" y="1470" name="top"/>
  <anchor x="1247" y="1023" name="topright"/>
  <outline>
    <contour>
      <point x="1322" y="1054" type="curve"/>
      <point x="1349" y="1123"/>
      <point x="1386" y="1234"/>
      <point x="1402" y="1291" type="curve"/>
      <point x="1242" y="1291"/>
      <point x="793" y="1269"/>
      <point x="651" y="1260" type="curve"/>
      <point x="580" y="1059" type="line"/>
      <point x="731" y="1059"/>
      <point x="1182" y="1056"/>
    </contour>
    <contour>
      <point x="907" y="-256" type="curve"/>
      <point x="927" y="-180"/>
      <point x="943" y="-81"/>
      <point x="946" y="-54" type="curve"/>
      <point x="767" y="-54"/>
      <point x="99" y="-61"/>
      <point x="-63" y="-96" type="curve"/>
      <point x="-77" y="-148"/>
      <point x="-86" y="-211"/>
      <point x="-91" y="-272" type="curve"/>
      <point x="187" y="-261"/>
      <point x="746" y="-256"/>
    </contour>
    <component base="d" xOffset="-30"/>
  </outline>
</glyph>
<glyph name="euro" format="2">
  <advance width="1243"/>
  <unicode hex="20AC"/>
  <outline>
    <contour>
      <point x="1369" y="1207" type="curve"/>
      <point x="1347" y="1220"/>
      <point x="1233" y="1270"/>
      <point x="1058" y="1270" type="curve" smooth="yes"/>
      <point x="579" y="1270"/>
      <point x="229" y="941"/>
      <point x="229" y="470" type="curve" smooth="yes"/>
      <point x="229" y="198"/>
      <point x="399" y="26"/>
      <point x="713" y="26" type="curve" smooth="yes"/>
      <point x="931" y="26"/>
      <point x="1028" y="76"/>
      <point x="1052" y="92" type="curve"/>
      <point x="1052" y="126"/>
      <point x="1017" y="311"/>
      <point x="1003" y="345" type="curve"/>
      <point x="979" y="331"/>
      <point x="857" y="284"/>
      <point x="757" y="284" type="curve" smooth="yes"/>
      <point x="625" y="284"/>
      <point x="568" y="368"/>
      <point x="568" y="501" type="curve" smooth="yes"/>
      <point x="568" y="814"/>
      <point x="730" y="1012"/>
      <point x="1047" y="1012" type="curve" smooth="yes"/>
      <point x="1139" y="1012"/>
      <point x="1204" y="991"/>
      <point x="1223" y="980" type="curve"/>
      <point x="1252" y="1014"/>
      <point x="1350" y="1173"/>
    </contour>
    <contour>
      <point x="1107" y="910" type="curve"/>
      <point x="926" y="913"/>
      <point x="354" y="921"/>
      <point x="149" y="921" type="curve"/>
      <point x="129" y="845"/>
      <point x="101" y="703"/>
      <point x="94" y="664" type="curve"/>
      <point x="260" y="664"/>
      <point x="876" y="684"/>
      <point x="1057" y="693" type="curve"/>
      <point x="1073" y="752"/>
      <point x="1105" y="888"/>
    </contour>
    <contour>
      <point x="1029" y="615" type="curve"/>
      <point x="809" y="613"/>
      <point x="245" y="588"/>
      <point x="55" y="578" type="curve"/>
      <point x="36" y="506"/>
      <point x="10" y="383"/>
      <point x="3" y="344" type="curve"/>
      <point x="130" y="347"/>
      <point x="806" y="386"/>
      <point x="965" y="409" type="curve"/>
      <point x="979" y="449"/>
      <point x="1009" y="539"/>
    </contour>
  </outline>
</glyph>
<glyph name="kip" format="2">
  <advance width="1115"/>
  <unicode hex="20AD"/>
  <anchor x="415.585" y="0.0" name="bottom"/>
  <anchor x="761.507" y="1291.0" name="top"/>
  <outline>
    <contour>
      <point x="1076" y="531" type="curve"/>
      <point x="1098" y="614"/>
      <point x="1115" y="723"/>
      <point x="1118" y="753" type="curve"/>
      <point x="926" y="753"/>
      <point x="202" y="745"/>
      <point x="25" y="707" type="curve"/>
      <point x="9" y="649"/>
      <point x="-1" y="579"/>
      <point x="-7" y="512" type="curve"/>
      <point x="298" y="525"/>
      <point x="910" y="531"/>
    </contour>
    <component base="K"/>
  </outline>
</glyph>
<glyph name="peso" format="2">
  <advance width="1060"/>
  <unicode hex="20B1"/>
  <outline>
    <contour>
      <point x="61" y="947" type="curve"/>
      <point x="29" y="804" type="line"/>
      <point x="182" y="807"/>
      <point x="808" y="824"/>
      <point x="1152" y="853" type="curve"/>
      <point x="1189" y="1024" type="line"/>
      <point x="815" y="989"/>
      <point x="213" y="950"/>
    </contour>
    <contour>
      <point x="33" y="739" type="curve"/>
      <point x="-10" y="612" type="line"/>
      <point x="157" y="622"/>
      <point x="745" y="631"/>
      <point x="1103" y="631" type="curve"/>
      <point x="1140" y="779" type="line"/>
      <point x="779" y="779"/>
      <point x="196" y="748"/>
    </contour>
    <component base="pescomb" xOffset="20"/>
  </outline>
</glyph>
<glyph name="liraTurkish" format="2">
  <advance width="990"/>
  <unicode hex="20BA"/>
  <outline>
    <contour>
      <point x="-87" y="31" type="curve"/>
      <point x="-5" y="20"/>
      <point x="121" y="13"/>
      <point x="251" y="13" type="curve" smooth="yes"/>
      <point x="516" y="13"/>
      <point x="858" y="61"/>
      <point x="999" y="585" type="curve"/>
      <point x="931" y="585"/>
      <point x="699" y="575"/>
      <point x="654" y="570" type="curve"/>
      <point x="622" y="451"/>
      <point x="567" y="416"/>
      <point x="495" y="416" type="curve" smooth="yes"/>
      <point x="464" y="416"/>
      <point x="433" y="421"/>
      <point x="417" y="426" type="curve"/>
      <point x="439" y="484"/>
      <point x="464" y="553"/>
      <point x="485" y="617" type="curve" smooth="yes"/>
      <point x="585" y="921"/>
      <point x="670" y="1189"/>
      <point x="697" y="1292" type="curve"/>
      <point x="673" y="1297"/>
      <point x="589" y="1300"/>
      <point x="538" y="1300" type="curve" smooth="yes"/>
      <point x="422" y="1300"/>
      <point x="299" y="1289"/>
      <point x="249" y="1282" type="curve"/>
      <point x="218" y="1140"/>
      <point x="157" y="882"/>
      <point x="91" y="633" type="curve" smooth="yes"/>
      <point x="25" y="383"/>
      <point x="-50" y="141"/>
    </contour>
    <contour>
      <point x="894" y="1189" type="curve"/>
      <point x="731" y="1153"/>
      <point x="171" y="1010"/>
      <point x="42" y="976" type="curve"/>
      <point x="36" y="937"/>
      <point x="20" y="814"/>
      <point x="20" y="778" type="curve"/>
      <point x="136" y="797"/>
      <point x="783" y="961"/>
      <point x="863" y="991" type="curve"/>
      <point x="879" y="1051"/>
      <point x="894" y="1147"/>
    </contour>
    <contour>
      <point x="808" y="870" type="curve"/>
      <point x="646" y="834"/>
      <point x="96" y="717"/>
      <point x="-13" y="697" type="curve"/>
      <point x="-23" y="658"/>
      <point x="-51" y="525"/>
      <point x="-58" y="489" type="curve"/>
      <point x="93" y="536"/>
      <point x="651" y="654"/>
      <point x="738" y="672" type="curve"/>
      <point x="757" y="719"/>
      <point x="797" y="828"/>
    </contour>
  </outline>
</glyph>
<glyph name="manat" format="2">
  <advance width="1260"/>
  <unicode hex="20BC"/>
  <outline>
    <contour>
      <point x="93" y="-24" type="curve" smooth="yes"/>
      <point x="174" y="-24"/>
      <point x="231" y="-20"/>
      <point x="300" y="-13" type="curve"/>
      <point x="318" y="80"/>
      <point x="359" y="276"/>
      <point x="399" y="428" type="curve" smooth="yes"/>
      <point x="463" y="670"/>
      <point x="564" y="775"/>
      <point x="700" y="775" type="curve" smooth="yes"/>
      <point x="808" y="775"/>
      <point x="865" y="724"/>
      <point x="865" y="619" type="curve" smooth="yes"/>
      <point x="865" y="506"/>
      <point x="740" y="157"/>
      <point x="681" y="-7" type="curve"/>
      <point x="812" y="-7"/>
      <point x="1043" y="15"/>
      <point x="1074" y="22" type="curve"/>
      <point x="1162" y="228"/>
      <point x="1237" y="508"/>
      <point x="1237" y="719" type="curve" smooth="yes"/>
      <point x="1237" y="1009"/>
      <point x="1109" y="1211"/>
      <point x="775" y="1211" type="curve" smooth="yes"/>
      <point x="389" y="1211"/>
      <point x="139" y="942"/>
      <point x="-40" y="290" type="curve" smooth="yes"/>
      <point x="-57" y="228"/>
      <point x="-97" y="58"/>
      <point x="-112" y="-13" type="curve"/>
      <point x="-45" y="-20"/>
      <point x="30" y="-24"/>
    </contour>
    <contour>
      <point x="592" y="-17" type="curve"/>
      <point x="635" y="114"/>
      <point x="697" y="320"/>
      <point x="767" y="581" type="curve" smooth="yes"/>
      <point x="848" y="884"/>
      <point x="930" y="1221"/>
      <point x="975" y="1437" type="curve"/>
      <point x="923" y="1437"/>
      <point x="818" y="1431"/>
      <point x="786" y="1429" type="curve"/>
      <point x="686" y="1087"/>
      <point x="601" y="783"/>
      <point x="534" y="531" type="curve" smooth="yes"/>
      <point x="470" y="290"/>
      <point x="426" y="122"/>
      <point x="394" y="-10" type="curve"/>
      <point x="442" y="-17"/>
      <point x="537" y="-17"/>
    </contour>
  </outline>
</glyph>
<glyph name="trademark" format="2">
  <advance width="1156"/>
  <unicode hex="2122"/>
  <outline>
    <contour>
      <point x="565" y="789" type="curve"/>
      <point x="749" y="792" type="line"/>
      <point x="776" y="853"/>
      <point x="814" y="961"/>
      <point x="819" y="1017" type="curve"/>
      <point x="817" y="1053" type="line"/>
      <point x="799" y="986"/>
      <point x="794" y="844"/>
      <point x="794" y="799" type="curve"/>
      <point x="830" y="796"/>
      <point x="871" y="794"/>
      <point x="920" y="794" type="curve"/>
      <point x="942" y="831"/>
      <point x="1003" y="967"/>
      <point x="1043" y="1058" type="curve"/>
      <point x="1018" y="1049" type="line"/>
      <point x="962" y="796" type="line"/>
      <point x="1151" y="792" type="line"/>
      <point x="1219" y="1085"/>
      <point x="1232" y="1164"/>
      <point x="1232" y="1263" type="curve"/>
      <point x="1199" y="1270"/>
      <point x="1127" y="1274"/>
      <point x="1055" y="1274" type="curve"/>
      <point x="1011" y="1205"/>
      <point x="935" y="1076"/>
      <point x="906" y="1025" type="curve"/>
      <point x="940" y="1025" type="line"/>
      <point x="940" y="1102"/>
      <point x="937" y="1235"/>
      <point x="932" y="1279" type="curve"/>
      <point x="860" y="1279"/>
      <point x="803" y="1277"/>
      <point x="735" y="1268" type="curve"/>
      <point x="713" y="1231"/>
      <point x="690" y="1178"/>
      <point x="642" y="1034" type="curve" smooth="yes"/>
      <point x="590" y="879"/>
      <point x="579" y="843"/>
    </contour>
    <contour>
      <point x="248" y="779" type="curve"/>
      <point x="320" y="779"/>
      <point x="398" y="783"/>
      <point x="473" y="788" type="curve"/>
      <point x="494" y="868"/>
      <point x="533" y="1027"/>
      <point x="542" y="1109" type="curve"/>
      <point x="554" y="1109"/>
      <point x="574" y="1109"/>
      <point x="603" y="1108" type="curve"/>
      <point x="640" y="1164"/>
      <point x="675" y="1241"/>
      <point x="687" y="1282" type="curve"/>
      <point x="598" y="1297"/>
      <point x="518" y="1300"/>
      <point x="440" y="1300" type="curve" smooth="yes"/>
      <point x="374" y="1300"/>
      <point x="305" y="1292"/>
      <point x="256" y="1284" type="curve"/>
      <point x="239" y="1205"/>
      <point x="226" y="1137"/>
      <point x="222" y="1098" type="curve"/>
      <point x="264" y="1098"/>
      <point x="298" y="1098"/>
      <point x="325" y="1101" type="curve"/>
      <point x="296" y="991"/>
      <point x="256" y="826"/>
    </contour>
  </outline>
</glyph>
<glyph name="emptyset" format="2">
  <advance width="1400"/>
  <unicode hex="2205"/>
  <outline>
    <contour>
      <point x="573" y="-51" type="curve" smooth="yes"/>
      <point x="1086" y="-51"/>
      <point x="1427" y="280"/>
      <point x="1427" y="788" type="curve" smooth="yes"/>
      <point x="1427" y="1098"/>
      <point x="1248" y="1320"/>
      <point x="870" y="1320" type="curve" smooth="yes"/>
      <point x="373" y="1320"/>
      <point x="5" y="980"/>
      <point x="5" y="490" type="curve" smooth="yes"/>
      <point x="5" y="180"/>
      <point x="192" y="-51"/>
    </contour>
    <contour>
      <point x="647" y="350" type="curve" smooth="yes"/>
      <point x="487" y="350"/>
      <point x="399" y="429"/>
      <point x="399" y="572" type="curve" smooth="yes"/>
      <point x="399" y="801"/>
      <point x="613" y="995"/>
      <point x="837" y="995" type="curve" smooth="yes"/>
      <point x="988" y="995"/>
      <point x="1063" y="878"/>
      <point x="1063" y="730" type="curve" smooth="yes"/>
      <point x="1063" y="482"/>
      <point x="892" y="350"/>
    </contour>
    <contour>
      <point x="1445" y="1361"/>
      <point x="1402" y="1405" type="curve"/>
      <point x="1080" y="1114"/>
      <point x="298" y="437"/>
      <point x="-137" y="145" type="curve"/>
      <point x="-121" y="77"/>
      <point x="-68" y="5"/>
      <point x="-13" y="-45" type="curve"/>
      <point x="399" y="202"/>
      <point x="996" y="672"/>
      <point x="1544" y="1245" type="curve"/>
      <point x="1519" y="1280"/>
    </contour>
  </outline>
</glyph>
<glyph name="approxequal" format="2">
  <advance width="1200"/>
  <unicode hex="2248"/>
  <outline>
    <contour>
      <point x="77" y="753" type="curve"/>
      <point x="108" y="729"/>
      <point x="167" y="614"/>
      <point x="195" y="557" type="curve"/>
      <point x="270" y="610"/>
      <point x="385" y="676"/>
      <point x="482" y="676" type="curve" smooth="yes"/>
      <point x="538" y="676"/>
      <point x="581" y="651"/>
      <point x="625" y="621" type="curve" smooth="yes"/>
      <point x="673" y="588"/>
      <point x="727" y="556"/>
      <point x="802" y="556" type="curve" smooth="yes"/>
      <point x="990" y="556"/>
      <point x="1144" y="746"/>
      <point x="1177" y="819" type="curve"/>
      <point x="1145" y="855"/>
      <point x="989" y="938"/>
      <point x="955" y="950" type="curve"/>
      <point x="919" y="895"/>
      <point x="879" y="855"/>
      <point x="792" y="855" type="curve" smooth="yes"/>
      <point x="724" y="855"/>
      <point x="686" y="879"/>
      <point x="647" y="905" type="curve" smooth="yes"/>
      <point x="605" y="933"/>
      <point x="560" y="962"/>
      <point x="473" y="962" type="curve" smooth="yes"/>
      <point x="311" y="962"/>
      <point x="135" y="837"/>
    </contour>
    <contour>
      <point x="58" y="371" type="curve"/>
      <point x="88" y="341"/>
      <point x="206" y="243"/>
      <point x="276" y="200" type="curve"/>
      <point x="307" y="236"/>
      <point x="370" y="291"/>
      <point x="467" y="291" type="curve" smooth="yes"/>
      <point x="522" y="291"/>
      <point x="561" y="272"/>
      <point x="600" y="250" type="curve" smooth="yes"/>
      <point x="643" y="226"/>
      <point x="690" y="202"/>
      <point x="766" y="202" type="curve" smooth="yes"/>
      <point x="954" y="202"/>
      <point x="1089" y="310"/>
      <point x="1160" y="384" type="curve"/>
      <point x="1136" y="420"/>
      <point x="1035" y="563"/>
      <point x="1001" y="575" type="curve"/>
      <point x="936" y="520"/>
      <point x="831" y="476"/>
      <point x="744" y="476" type="curve" smooth="yes"/>
      <point x="689" y="476"/>
      <point x="657" y="498"/>
      <point x="624" y="523" type="curve" smooth="yes"/>
      <point x="585" y="553"/>
      <point x="540" y="584"/>
      <point x="449" y="584" type="curve" smooth="yes"/>
      <point x="287" y="584"/>
      <point x="109" y="471"/>
    </contour>
  </outline>
</glyph>
<glyph name="D_D" format="2">
  <advance width="2295"/>
  <anchor x="1078" y="0" name="caret_1"/>
  <anchor x="456.585" y="0.0" name="bottom"/>
  <anchor x="354" y="646" name="center"/>
  <anchor x="716" y="1291" name="top"/>
  <outline>
    <contour>
      <point x="1199" y="-50" type="curve"/>
      <point x="1956" y="-50"/>
      <point x="2305" y="148"/>
      <point x="2305" y="875" type="curve" smooth="yes"/>
      <point x="2305" y="1155"/>
      <point x="2171" y="1362"/>
      <point x="1840" y="1362" type="curve" smooth="yes"/>
      <point x="1738" y="1362"/>
      <point x="1601" y="1355"/>
      <point x="1450" y="1338" type="curve"/>
      <point x="1424" y="1209"/>
      <point x="1226" y="171"/>
    </contour>
    <contour>
      <point x="1732" y="1026" type="curve"/>
      <point x="1746" y="1029"/>
      <point x="1785" y="1037"/>
      <point x="1819" y="1037" type="curve" smooth="yes"/>
      <point x="1912" y="1037"/>
      <point x="1946" y="936"/>
      <point x="1946" y="830" type="curve" smooth="yes"/>
      <point x="1946" y="614"/>
      <point x="1858" y="382"/>
      <point x="1669" y="357" type="curve"/>
      <point x="1693" y="581"/>
      <point x="1714" y="802"/>
    </contour>
    <component base="D"/>
  </outline>
</glyph>
<glyph name="E_E" format="2">
  <advance width="1903"/>
  <anchor x="357" y="-25" name="bottom"/>
  <anchor x="816" y="0" name="caret_1"/>
  <anchor x="619" y="-17" name="ogonek"/>
  <anchor x="661" y="1306" name="top"/>
  <anchor x="203" y="1261" name="topleft"/>
  <outline>
    <contour>
      <point x="1643" y="-5" type="curve"/>
      <point x="1665" y="66"/>
      <point x="1725" y="263"/>
      <point x="1753" y="368" type="curve"/>
      <point x="1730" y="378"/>
      <point x="1675" y="394"/>
      <point x="1548" y="400" type="curve" smooth="yes"/>
      <point x="1504" y="402"/>
      <point x="1429" y="403"/>
      <point x="1397" y="403" type="curve"/>
      <point x="1401" y="421"/>
      <point x="1406" y="438"/>
      <point x="1411" y="454" type="curve" smooth="yes"/>
      <point x="1416" y="471"/>
      <point x="1422" y="487"/>
      <point x="1430" y="501" type="curve"/>
      <point x="1468" y="508"/>
      <point x="1604" y="515"/>
      <point x="1670" y="515" type="curve" smooth="yes"/>
      <point x="1713" y="515"/>
      <point x="1754" y="513"/>
      <point x="1775" y="511" type="curve"/>
      <point x="1802" y="581"/>
      <point x="1830" y="659"/>
      <point x="1851" y="739" type="curve" smooth="yes"/>
      <point x="1859" y="769"/>
      <point x="1866" y="799"/>
      <point x="1872" y="829" type="curve"/>
      <point x="1744" y="844"/>
      <point x="1640" y="851"/>
      <point x="1526" y="851" type="curve"/>
      <point x="1530" y="874"/>
      <point x="1540" y="906"/>
      <point x="1548" y="923" type="curve"/>
      <point x="1652" y="930"/>
      <point x="1796" y="938"/>
      <point x="1918" y="938" type="curve"/>
      <point x="1943" y="999"/>
      <point x="1991" y="1155"/>
      <point x="2017" y="1250" type="curve"/>
      <point x="1988" y="1253"/>
      <point x="1889" y="1261"/>
      <point x="1735" y="1261" type="curve" smooth="yes"/>
      <point x="1605" y="1261"/>
      <point x="1434" y="1251"/>
      <point x="1231" y="1219" type="curve"/>
      <point x="1203" y="1131"/>
      <point x="1031" y="581"/>
      <point x="880" y="17" type="curve"/>
      <point x="1226" y="12"/>
      <point x="1547" y="0"/>
    </contour>
    <contour>
      <point x="705" y="-29" type="curve"/>
      <point x="726" y="8"/>
      <point x="810" y="256"/>
      <point x="842" y="390" type="curve"/>
      <point x="794" y="393"/>
      <point x="716" y="396"/>
      <point x="634" y="394" type="curve" smooth="yes"/>
      <point x="546" y="391"/>
      <point x="455" y="388"/>
      <point x="445" y="388" type="curve"/>
      <point x="450" y="410"/>
      <point x="471" y="488"/>
      <point x="480" y="516" type="curve"/>
      <point x="515" y="517"/>
      <point x="752" y="510"/>
      <point x="795" y="509" type="curve"/>
      <point x="882" y="852" type="line"/>
      <point x="796" y="847"/>
      <point x="643" y="839"/>
      <point x="564" y="837" type="curve"/>
      <point x="568" y="856"/>
      <point x="588" y="943"/>
      <point x="596" y="961" type="curve"/>
      <point x="976" y="1004" type="line"/>
      <point x="1013" y="1119"/>
      <point x="1045" y="1223"/>
      <point x="1070" y="1328" type="curve"/>
      <point x="1015" y="1326"/>
      <point x="679" y="1313"/>
      <point x="271" y="1224" type="curve"/>
      <point x="244" y="1125"/>
      <point x="186" y="915"/>
      <point x="121" y="637" type="curve" smooth="yes"/>
      <point x="77" y="449"/>
      <point x="30" y="230"/>
      <point x="-17" y="-6" type="curve"/>
      <point x="103" y="-10"/>
      <point x="224" y="-15"/>
      <point x="345" y="-18" type="curve" smooth="yes"/>
      <point x="465" y="-21"/>
      <point x="585" y="-25"/>
    </contour>
  </outline>
</glyph>
<glyph name="G_G" format="2">
  <advance width="2565"/>
  <anchor x="1279" y="0" name="caret_1"/>
  <anchor x="1785.585" y="0.0" name="bottom"/>
  <anchor x="2131.507" y="1291.0" name="top"/>
  <outline>
    <contour>
      <point x="605" y="-36" type="curve" smooth="yes"/>
      <point x="941" y="-36"/>
      <point x="1129" y="124"/>
      <point x="1253" y="520" type="curve" smooth="yes"/>
      <point x="1279" y="603"/>
      <point x="1301" y="704"/>
      <point x="1301" y="760" type="curve"/>
      <point x="1276" y="763"/>
      <point x="1229" y="766"/>
      <point x="1129" y="766" type="curve" smooth="yes"/>
      <point x="1033" y="766"/>
      <point x="860" y="760"/>
      <point x="798" y="757" type="curve"/>
      <point x="775" y="701"/>
      <point x="715" y="498"/>
      <point x="701" y="448" type="curve"/>
      <point x="724" y="448"/>
      <point x="765" y="446"/>
      <point x="803" y="444" type="curve" smooth="yes"/>
      <point x="835" y="442"/>
      <point x="863" y="440"/>
      <point x="879" y="438" type="curve"/>
      <point x="879" y="433"/>
      <point x="878" y="425"/>
      <point x="875" y="414" type="curve" smooth="yes"/>
      <point x="862" y="367"/>
      <point x="777" y="310"/>
      <point x="686" y="310" type="curve" smooth="yes"/>
      <point x="568" y="310"/>
      <point x="530" y="412"/>
      <point x="530" y="539" type="curve" smooth="yes"/>
      <point x="530" y="762"/>
      <point x="612" y="922"/>
      <point x="821" y="922" type="curve" smooth="yes"/>
      <point x="902" y="922"/>
      <point x="975" y="891"/>
      <point x="991" y="874" type="curve"/>
      <point x="1117" y="968"/>
      <point x="1246" y="1101"/>
      <point x="1296" y="1161" type="curve"/>
      <point x="1220" y="1256"/>
      <point x="1033" y="1295"/>
      <point x="880" y="1295" type="curve" smooth="yes"/>
      <point x="384" y="1295"/>
      <point x="122" y="974"/>
      <point x="122" y="470" type="curve" smooth="yes"/>
      <point x="122" y="170"/>
      <point x="259" y="-36"/>
    </contour>
    <component base="G" xOffset="1290"/>
  </outline>
</glyph>
<glyph name="I.ss01" format="2">
  <advance width="839"/>
  <anchor x="277.585" y="0" name="bottom"/>
  <anchor x="555" y="-15" name="ogonek"/>
  <anchor x="644" y="1321" name="top"/>
  <anchor x="223.507" y="1291" name="topleft"/>
  <outline>
    <contour>
      <point x="325" y="-17" type="curve" smooth="yes"/>
      <point x="428" y="-17"/>
      <point x="555" y="-15"/>
      <point x="605" y="-14" type="curve"/>
      <point x="637" y="57"/>
      <point x="663" y="143"/>
      <point x="681" y="207" type="curve" smooth="yes"/>
      <point x="695" y="256"/>
      <point x="702" y="293"/>
      <point x="703" y="303" type="curve"/>
      <point x="661" y="303"/>
      <point x="618" y="303"/>
      <point x="551" y="301" type="curve"/>
      <point x="573" y="359"/>
      <point x="638" y="557"/>
      <point x="678" y="706" type="curve" smooth="yes"/>
      <point x="702" y="796"/>
      <point x="755" y="993"/>
      <point x="761" y="1014" type="curve"/>
      <point x="791" y="1012"/>
      <point x="849" y="1010"/>
      <point x="888" y="1010" type="curve"/>
      <point x="930" y="1093"/>
      <point x="963" y="1214"/>
      <point x="980" y="1277" type="curve"/>
      <point x="865" y="1291"/>
      <point x="703" y="1308"/>
      <point x="565" y="1308" type="curve" smooth="yes"/>
      <point x="493" y="1308"/>
      <point x="359" y="1306"/>
      <point x="281" y="1304" type="curve"/>
      <point x="280" y="1296"/>
      <point x="275" y="1276"/>
      <point x="267" y="1247" type="curve" smooth="yes"/>
      <point x="251" y="1190"/>
      <point x="227" y="1101"/>
      <point x="204" y="1015" type="curve"/>
      <point x="284" y="1015"/>
      <point x="312" y="1015"/>
      <point x="353" y="1017" type="curve"/>
      <point x="294" y="798"/>
      <point x="214" y="490"/>
      <point x="164" y="297" type="curve"/>
      <point x="82" y="299"/>
      <point x="82" y="299"/>
      <point x="37" y="304" type="curve"/>
      <point x="15" y="243"/>
      <point x="-1" y="191"/>
      <point x="-19" y="123" type="curve" smooth="yes"/>
      <point x="-31" y="78"/>
      <point x="-42" y="36"/>
      <point x="-50" y="2" type="curve"/>
      <point x="133" y="-14"/>
      <point x="229" y="-17"/>
    </contour>
  </outline>
</glyph>
<glyph name="Iogonek.ss01" format="2">
  <advance width="839"/>
  <anchor x="277.585" y="0.0" name="bottom"/>
  <anchor x="555" y="-15" name="ogonek"/>
  <anchor x="644" y="1321" name="top"/>
  <anchor x="223.507" y="1291.0" name="topleft"/>
  <outline>
    <contour>
      <point x="541" y="-244" type="line"/>
      <point x="502" y="-272"/>
      <point x="457" y="-281"/>
      <point x="414" y="-281" type="curve" smooth="yes"/>
      <point x="361" y="-281"/>
      <point x="307" y="-257"/>
      <point x="307" y="-185" type="curve" smooth="yes"/>
      <point x="307" y="-105"/>
      <point x="382" y="-21"/>
      <point x="427" y="10" type="curve"/>
      <point x="291" y="68" type="line"/>
      <point x="226" y="49"/>
      <point x="44" y="-102"/>
      <point x="44" y="-274" type="curve" smooth="yes"/>
      <point x="44" y="-441"/>
      <point x="188" y="-526"/>
      <point x="346" y="-526" type="curve" smooth="yes"/>
      <point x="450" y="-526"/>
      <point x="512" y="-513"/>
      <point x="541" y="-501" type="curve"/>
    </contour>
    <component base="I.ss01"/>
  </outline>
</glyph>
<glyph name="L_L" format="2">
  <advance width="1902"/>
  <anchor x="840" y="0" name="caret_1"/>
  <anchor x="1279.585" y="0.0" name="bottom"/>
  <anchor x="1452.68" y="646.0" name="center"/>
  <anchor x="1459" y="1300" name="top"/>
  <anchor x="1642" y="911" name="topright"/>
  <outline>
    <contour>
      <point x="191" y="17" type="curve" smooth="yes"/>
      <point x="430" y="17"/>
      <point x="769" y="31"/>
      <point x="806" y="41" type="curve"/>
      <point x="827" y="96"/>
      <point x="884" y="271"/>
      <point x="914" y="383" type="curve"/>
      <point x="745" y="383"/>
      <point x="583" y="377"/>
      <point x="462" y="371" type="curve"/>
      <point x="508" y="507"/>
      <point x="669" y="1047"/>
      <point x="719" y="1234" type="curve"/>
      <point x="700" y="1237"/>
      <point x="666" y="1239"/>
      <point x="623" y="1239" type="curve" smooth="yes"/>
      <point x="502" y="1239"/>
      <point x="320" y="1228"/>
      <point x="262" y="1217" type="curve"/>
      <point x="176" y="857"/>
      <point x="40" y="296"/>
      <point x="-27" y="26" type="curve"/>
      <point x="8" y="20"/>
      <point x="91" y="17"/>
    </contour>
    <component base="L" xOffset="941"/>
  </outline>
</glyph>
<glyph name="M.ss02" format="2">
  <advance width="1492"/>
  <anchor x="672" y="0" name="bottom"/>
  <anchor x="1012" y="1291" name="top"/>
  <outline>
    <contour>
      <point x="-58" y="37" type="curve"/>
      <point x="-4" y="21"/>
      <point x="298" y="-11"/>
      <point x="348" y="-8" type="curve"/>
      <point x="353" y="12"/>
      <point x="453" y="319"/>
      <point x="562" y="627" type="curve"/>
      <point x="590" y="591"/>
      <point x="681" y="336"/>
      <point x="700" y="274" type="curve"/>
      <point x="758" y="344"/>
      <point x="917" y="522"/>
      <point x="993" y="591" type="curve"/>
      <point x="982" y="498"/>
      <point x="918" y="78"/>
      <point x="895" y="-6" type="curve"/>
      <point x="966" y="-11"/>
      <point x="1191" y="10"/>
      <point x="1291" y="34" type="curve"/>
      <point x="1420" y="666"/>
      <point x="1382" y="1238"/>
      <point x="1345" y="1334" type="curve"/>
      <point x="1243" y="1266"/>
      <point x="981" y="993"/>
      <point x="875" y="870" type="curve"/>
      <point x="839" y="1000"/>
      <point x="679" y="1283"/>
      <point x="588" y="1351" type="curve"/>
      <point x="490" y="1240"/>
      <point x="190" y="687"/>
    </contour>
  </outline>
</glyph>
<glyph name="M_M" format="2">
  <advance width="2909"/>
  <anchor x="1331" y="0" name="caret_1"/>
  <anchor x="2011" y="0" name="bottom"/>
  <anchor x="2357" y="1291" name="top"/>
  <outline>
    <contour>
      <point x="-71" y="-34" type="curve"/>
      <point x="44" y="-27"/>
      <point x="303" y="-3"/>
      <point x="353" y="3" type="curve"/>
      <point x="357" y="23"/>
      <point x="418" y="344"/>
      <point x="455" y="583" type="curve"/>
      <point x="454" y="426"/>
      <point x="454" y="99"/>
      <point x="454" y="21" type="curve"/>
      <point x="561" y="25"/>
      <point x="684" y="30"/>
      <point x="776" y="43" type="curve"/>
      <point x="840" y="153"/>
      <point x="968" y="428"/>
      <point x="1039" y="582" type="curve"/>
      <point x="992" y="408"/>
      <point x="914" y="146"/>
      <point x="873" y="24" type="curve"/>
      <point x="995" y="28"/>
      <point x="1157" y="39"/>
      <point x="1279" y="48" type="curve"/>
      <point x="1385" y="445"/>
      <point x="1525" y="1063"/>
      <point x="1546" y="1254" type="curve"/>
      <point x="1457" y="1254"/>
      <point x="1200" y="1254"/>
      <point x="1111" y="1254" type="curve"/>
      <point x="1011" y="1087"/>
      <point x="907" y="912"/>
      <point x="778" y="691" type="curve"/>
      <point x="762" y="877"/>
      <point x="733" y="1093"/>
      <point x="698" y="1203" type="curve"/>
      <point x="634" y="1203"/>
      <point x="380" y="1199"/>
      <point x="266" y="1196" type="curve"/>
      <point x="216" y="1034"/>
      <point x="27" y="333"/>
    </contour>
    <component base="M" xOffset="1417"/>
  </outline>
</glyph>
<glyph name="P_P" format="2">
  <advance width="2013"/>
  <anchor x="905" y="0" name="caret_1"/>
  <anchor x="343" y="0" name="bottom"/>
  <anchor x="689" y="1291" name="top"/>
  <outline>
    <contour>
      <point x="990" y="-37" type="curve"/>
      <point x="1110" y="-28"/>
      <point x="1264" y="-11"/>
      <point x="1407" y="23" type="curve"/>
      <point x="1420" y="72"/>
      <point x="1483" y="388"/>
      <point x="1492" y="448" type="curve"/>
      <point x="1840" y="448"/>
      <point x="2089" y="588"/>
      <point x="2089" y="910" type="curve" smooth="yes"/>
      <point x="2089" y="1100"/>
      <point x="1964" y="1189"/>
      <point x="1744" y="1189" type="curve" smooth="yes"/>
      <point x="1608" y="1189"/>
      <point x="1402" y="1157"/>
      <point x="1236" y="1125" type="curve"/>
      <point x="1217" y="1049"/>
      <point x="992" y="-11"/>
    </contour>
    <contour>
      <point x="1547" y="742" type="curve"/>
      <point x="1555" y="784"/>
      <point x="1569" y="894"/>
      <point x="1570" y="908" type="curve"/>
      <point x="1625" y="918"/>
      <point x="1659" y="923"/>
      <point x="1715" y="923" type="curve" smooth="yes"/>
      <point x="1743" y="923"/>
      <point x="1770" y="910"/>
      <point x="1770" y="864" type="curve" smooth="yes"/>
      <point x="1770" y="780"/>
      <point x="1655" y="745"/>
    </contour>
    <component base="P"/>
  </outline>
</glyph>
<glyph name="R_R" format="2">
  <advance width="2208"/>
  <anchor x="1006" y="0" name="caret_1"/>
  <anchor x="404.585" y="0.0" name="bottom"/>
  <anchor x="702" y="1331" name="top"/>
  <outline>
    <contour>
      <point x="1625" y="-14" type="curve"/>
      <point x="1646" y="-14"/>
      <point x="1935" y="5"/>
      <point x="2033" y="30" type="curve"/>
      <point x="2033" y="112"/>
      <point x="2017" y="486"/>
      <point x="1993" y="632" type="curve"/>
      <point x="2192" y="711"/>
      <point x="2322" y="853"/>
      <point x="2322" y="1064" type="curve" smooth="yes"/>
      <point x="2322" y="1265"/>
      <point x="2120" y="1312"/>
      <point x="1883" y="1323" type="curve" smooth="yes"/>
      <point x="1736" y="1330"/>
      <point x="1473" y="1333"/>
      <point x="1426" y="1333" type="curve"/>
      <point x="1305" y="881"/>
      <point x="1176" y="464"/>
      <point x="1034" y="66" type="curve"/>
      <point x="1120" y="44"/>
      <point x="1338" y="20"/>
      <point x="1409" y="15" type="curve"/>
      <point x="1449" y="127"/>
      <point x="1542" y="426"/>
      <point x="1577" y="555" type="curve"/>
      <point x="1598" y="556"/>
      <point x="1649" y="563"/>
      <point x="1669" y="567" type="curve"/>
      <point x="1669" y="461"/>
      <point x="1641" y="145"/>
    </contour>
    <contour>
      <point x="1711" y="848" type="curve" smooth="yes"/>
      <point x="1685" y="848"/>
      <point x="1666" y="849"/>
      <point x="1647" y="851" type="curve"/>
      <point x="1657" y="899"/>
      <point x="1675" y="978"/>
      <point x="1691" y="1035" type="curve"/>
      <point x="1703" y="1036"/>
      <point x="1721" y="1036"/>
      <point x="1742" y="1036" type="curve" smooth="yes"/>
      <point x="1857" y="1036"/>
      <point x="1942" y="1029"/>
      <point x="1942" y="971" type="curve" smooth="yes"/>
      <point x="1942" y="870"/>
      <point x="1823" y="848"/>
    </contour>
    <component base="R"/>
  </outline>
</glyph>
<glyph name="Z.ss02" format="2">
  <advance width="1044"/>
  <anchor x="340" y="0" name="bottom"/>
  <anchor x="522" y="646" name="center"/>
  <anchor x="752" y="1291" name="top"/>
  <outline>
    <contour>
      <point x="765" y="-14" type="curve"/>
      <point x="813" y="79"/>
      <point x="877" y="255"/>
      <point x="915" y="397" type="curve"/>
      <point x="813" y="387"/>
      <point x="650" y="373"/>
      <point x="522" y="373" type="curve"/>
      <point x="688" y="591"/>
      <point x="1081" y="1093"/>
      <point x="1197" y="1213" type="curve"/>
      <point x="1127" y="1251"/>
      <point x="732" y="1294"/>
      <point x="229" y="1294" type="curve"/>
      <point x="211" y="1227"/>
      <point x="173" y="998"/>
      <point x="175" y="939" type="curve"/>
      <point x="293" y="957"/>
      <point x="512" y="961"/>
      <point x="596" y="961" type="curve"/>
      <point x="525" y="882"/>
      <point x="103" y="365"/>
      <point x="-80" y="96" type="curve"/>
      <point x="45" y="36"/>
      <point x="418" y="0"/>
    </contour>
  </outline>
</glyph>
<glyph name=".notdef" format="2">
  <advance width="662"/>
  <outline>
    <contour>
      <point x="-70" y="0" type="line"/>
      <point x="439" y="0" type="line"/>
      <point x="799" y="1344" type="line"/>
      <point x="290" y="1344" type="line"/>
    </contour>
    <contour>
      <point x="108" y="103" type="line"/>
      <point x="243" y="201" type="line"/>
      <point x="326" y="103" type="line"/>
      <point x="363" y="129" type="line"/>
      <point x="280" y="227" type="line"/>
      <point x="415" y="325" type="line"/>
      <point x="392" y="351" type="line"/>
      <point x="257" y="253" type="line"/>
      <point x="174" y="351" type="line"/>
      <point x="137" y="325" type="line"/>
      <point x="220" y="227" type="line"/>
      <point x="85" y="129" type="line"/>
    </contour>
    <contour>
      <point x="224" y="539" type="line"/>
      <point x="360" y="637" type="line"/>
      <point x="442" y="539" type="line"/>
      <point x="479" y="565" type="line"/>
      <point x="397" y="663" type="line"/>
      <point x="532" y="761" type="line"/>
      <point x="509" y="787" type="line"/>
      <point x="374" y="689" type="line"/>
      <point x="291" y="787" type="line"/>
      <point x="254" y="761" type="line"/>
      <point x="337" y="663" type="line"/>
      <point x="201" y="565" type="line"/>
    </contour>
    <contour>
      <point x="-22" y="34" type="line"/>
      <point x="320" y="1310" type="line"/>
      <point x="751" y="1310" type="line"/>
      <point x="409" y="34" type="line"/>
    </contour>
    <contour>
      <point x="341" y="975" type="line"/>
      <point x="476" y="1073" type="line"/>
      <point x="559" y="975" type="line"/>
      <point x="596" y="1001" type="line"/>
      <point x="512" y="1099" type="line"/>
      <point x="649" y="1197" type="line"/>
      <point x="625" y="1222" type="line"/>
      <point x="490" y="1125" type="line"/>
      <point x="407" y="1222" type="line"/>
      <point x="371" y="1197" type="line"/>
      <point x="454" y="1099" type="line"/>
      <point x="318" y="1001" type="line"/>
    </contour>
  </outline>
</glyph>
<glyph name="acutecomb.case" format="2">
  <anchor x="439" y="1291" name="_top"/>
  <anchor x="530" y="1686" name="top"/>
  <outline>
    <contour>
      <point x="636" y="1686" type="curve"/>
      <point x="574" y="1681"/>
      <point x="335" y="1549"/>
      <point x="224" y="1465" type="curve"/>
      <point x="395" y="1359" type="line"/>
      <point x="484" y="1400"/>
      <point x="731" y="1474"/>
      <point x="858" y="1500" type="curve"/>
      <point x="844" y="1521"/>
      <point x="745" y="1618"/>
    </contour>
  </outline>
</glyph>
<glyph name="ampersand.ss01" format="2">
  <advance width="1500"/>
  <outline>
    <contour>
      <point x="11" y="466" type="curve"/>
      <point x="65" y="472"/>
      <point x="195" y="488"/>
      <point x="233" y="494" type="curve"/>
      <point x="239" y="525"/>
      <point x="251" y="577"/>
      <point x="264" y="626" type="curve"/>
      <point x="283" y="632"/>
      <point x="321" y="640"/>
      <point x="375" y="649" type="curve"/>
      <point x="377" y="627"/>
      <point x="378" y="555"/>
      <point x="378" y="515" type="curve"/>
      <point x="450" y="528"/>
      <point x="556" y="549"/>
      <point x="607" y="561" type="curve"/>
      <point x="604" y="611"/>
      <point x="601" y="657"/>
      <point x="598" y="698" type="curve"/>
      <point x="642" y="696"/>
      <point x="697" y="696"/>
      <point x="745" y="696" type="curve"/>
      <point x="756" y="750"/>
      <point x="785" y="916"/>
      <point x="787" y="959" type="curve"/>
      <point x="843" y="846"/>
      <point x="881" y="759"/>
      <point x="892" y="713" type="curve"/>
      <point x="945" y="713"/>
      <point x="999" y="713"/>
      <point x="1052" y="713" type="curve"/>
      <point x="1018" y="635"/>
      <point x="988" y="567"/>
      <point x="977" y="537" type="curve"/>
      <point x="1079" y="514"/>
      <point x="1171" y="497"/>
      <point x="1238" y="497" type="curve" smooth="yes"/>
      <point x="1405" y="497"/>
      <point x="1537" y="668"/>
      <point x="1537" y="841" type="curve" smooth="yes"/>
      <point x="1537" y="931"/>
      <point x="1476" y="987"/>
      <point x="1358" y="1018" type="curve" smooth="yes"/>
      <point x="1302" y="1033"/>
      <point x="1241" y="1041"/>
      <point x="1201" y="1046" type="curve"/>
      <point x="1190" y="1023"/>
      <point x="1156" y="947"/>
      <point x="1117" y="860" type="curve"/>
      <point x="1152" y="992"/>
      <point x="1189" y="1170"/>
      <point x="1189" y="1228" type="curve"/>
      <point x="1158" y="1230"/>
      <point x="1056" y="1233"/>
      <point x="1004" y="1233" type="curve"/>
      <point x="962" y="951" type="line"/>
      <point x="935" y="1053"/>
      <point x="899" y="1132"/>
      <point x="843" y="1221" type="curve"/>
      <point x="790" y="1228"/>
      <point x="677" y="1229"/>
      <point x="646" y="1229" type="curve"/>
      <point x="636" y="1162"/>
      <point x="610" y="1037"/>
      <point x="587" y="929" type="curve" smooth="yes"/>
      <point x="585" y="917"/>
      <point x="582" y="906"/>
      <point x="580" y="894" type="curve"/>
      <point x="568" y="987"/>
      <point x="556" y="1046"/>
      <point x="544" y="1096" type="curve"/>
      <point x="503" y="1094"/>
      <point x="461" y="1088"/>
      <point x="419" y="1082" type="curve" smooth="yes"/>
      <point x="355" y="1073"/>
      <point x="286" y="1057"/>
      <point x="196" y="1035" type="curve"/>
      <point x="147" y="901"/>
      <point x="44" y="588"/>
    </contour>
    <contour>
      <point x="87" y="107" type="line"/>
      <point x="140" y="129"/>
      <point x="491" y="231"/>
      <point x="694" y="231" type="curve" smooth="yes"/>
      <point x="979" y="231"/>
      <point x="1112" y="185"/>
      <point x="1198" y="148" type="curve"/>
      <point x="1314" y="346" type="line"/>
      <point x="1239" y="379"/>
      <point x="1048" y="439"/>
      <point x="756" y="439" type="curve" smooth="yes"/>
      <point x="481" y="439"/>
      <point x="153" y="346"/>
      <point x="54" y="308" type="curve"/>
    </contour>
    <contour>
      <point x="296" y="776" type="curve"/>
      <point x="299" y="792"/>
      <point x="324" y="892"/>
      <point x="334" y="927" type="curve"/>
      <point x="342" y="930"/>
      <point x="372" y="936"/>
      <point x="385" y="938" type="curve"/>
      <point x="384" y="928"/>
      <point x="378" y="816"/>
      <point x="378" y="792" type="curve"/>
      <point x="357" y="789"/>
      <point x="309" y="780"/>
    </contour>
    <contour>
      <point x="1256" y="651" type="curve" smooth="yes"/>
      <point x="1243" y="651"/>
      <point x="1229" y="654"/>
      <point x="1212" y="659" type="curve"/>
      <point x="1240" y="731"/>
      <point x="1271" y="808"/>
      <point x="1303" y="884" type="curve"/>
      <point x="1320" y="884"/>
      <point x="1339" y="879"/>
      <point x="1345" y="877" type="curve" smooth="yes"/>
      <point x="1367" y="871"/>
      <point x="1376" y="856"/>
      <point x="1376" y="835" type="curve" smooth="yes"/>
      <point x="1376" y="765"/>
      <point x="1319" y="651"/>
    </contour>
  </outline>
</glyph>
<glyph name="brevebelowcomb.case" format="2">
  <anchor x="463" y="0" name="_bottom"/>
  <anchor x="319" y="-537" name="bottom"/>
  <outline>
    <contour>
      <point x="720" y="-203" type="curve"/>
      <point x="673" y="-180"/>
      <point x="571" y="-159"/>
      <point x="449" y="-159" type="curve"/>
      <point x="433" y="-284"/>
      <point x="397" y="-305"/>
      <point x="359" y="-305" type="curve" smooth="yes"/>
      <point x="331" y="-305"/>
      <point x="308" y="-285"/>
      <point x="308" y="-213" type="curve" smooth="yes"/>
      <point x="308" y="-198"/>
      <point x="309" y="-181"/>
      <point x="312" y="-161" type="curve"/>
      <point x="241" y="-161"/>
      <point x="96" y="-163"/>
      <point x="34" y="-182" type="curve"/>
      <point x="31" y="-210"/>
      <point x="29" y="-237"/>
      <point x="29" y="-262" type="curve" smooth="yes"/>
      <point x="29" y="-434"/>
      <point x="118" y="-530"/>
      <point x="332" y="-530" type="curve" smooth="yes"/>
      <point x="548" y="-530"/>
      <point x="697" y="-397"/>
    </contour>
  </outline>
</glyph>
<glyph name="breveinvertedcomb.case" format="2">
  <anchor x="630" y="1291" name="_top"/>
  <anchor x="752" y="1744" name="top"/>
  <outline>
    <contour>
      <point x="335" y="1417" type="curve"/>
      <point x="382" y="1394"/>
      <point x="484" y="1373"/>
      <point x="606" y="1373" type="curve"/>
      <point x="622" y="1498"/>
      <point x="658" y="1519"/>
      <point x="696" y="1519" type="curve" smooth="yes"/>
      <point x="724" y="1519"/>
      <point x="747" y="1499"/>
      <point x="747" y="1427" type="curve" smooth="yes"/>
      <point x="747" y="1412"/>
      <point x="746" y="1395"/>
      <point x="743" y="1375" type="curve"/>
      <point x="814" y="1375"/>
      <point x="959" y="1377"/>
      <point x="1021" y="1396" type="curve"/>
      <point x="1024" y="1424"/>
      <point x="1026" y="1451"/>
      <point x="1026" y="1476" type="curve" smooth="yes"/>
      <point x="1026" y="1648"/>
      <point x="937" y="1744"/>
      <point x="723" y="1744" type="curve" smooth="yes"/>
      <point x="507" y="1744"/>
      <point x="358" y="1611"/>
    </contour>
  </outline>
</glyph>
<glyph name="c_c" format="2">
  <advance width="1890"/>
  <anchor x="976" y="0" name="caret_1"/>
  <anchor x="403" y="0" name="bottom"/>
  <anchor x="655.415" y="1063.0" name="top"/>
  <outline>
    <contour>
      <point x="1393" y="92" type="curve" smooth="yes"/>
      <point x="1538" y="92"/>
      <point x="1712" y="144"/>
      <point x="1807" y="240" type="curve"/>
      <point x="1796" y="304"/>
      <point x="1702" y="517"/>
      <point x="1673" y="559" type="curve"/>
      <point x="1653" y="539"/>
      <point x="1577" y="484"/>
      <point x="1512" y="484" type="curve" smooth="yes"/>
      <point x="1440" y="484"/>
      <point x="1396" y="522"/>
      <point x="1396" y="584" type="curve" smooth="yes"/>
      <point x="1396" y="686"/>
      <point x="1482" y="766"/>
      <point x="1598" y="766" type="curve" smooth="yes"/>
      <point x="1690" y="766"/>
      <point x="1720" y="723"/>
      <point x="1726" y="708" type="curve"/>
      <point x="1957" y="985" type="line"/>
      <point x="1910" y="1044"/>
      <point x="1774" y="1087"/>
      <point x="1642" y="1087" type="curve" smooth="yes"/>
      <point x="1311" y="1087"/>
      <point x="1014" y="815"/>
      <point x="1014" y="478" type="curve" smooth="yes"/>
      <point x="1014" y="260"/>
      <point x="1155" y="92"/>
    </contour>
    <component base="c"/>
  </outline>
</glyph>
<glyph name="caroncomb.alt" format="2">
  <anchor x="167.528" y="1063" name="_topright"/>
  <outline>
    <contour>
      <point x="413" y="949"/>
      <point x="639" y="1175"/>
      <point x="715" y="1460" type="curve"/>
      <point x="656" y="1460"/>
      <point x="436" y="1443"/>
      <point x="403" y="1439" type="curve"/>
      <point x="357" y="1268"/>
      <point x="237" y="1063"/>
      <point x="196" y="1004" type="curve"/>
      <point x="210" y="996"/>
      <point x="332" y="927"/>
      <point x="360" y="912" type="curve"/>
    </contour>
  </outline>
</glyph>
